<!-- Generated by IcoMoon.io -->
<svg version="1.1" xmlns="http://www.w3.org/2000/svg" width="32" height="32" viewBox="0 0 32 32">
<title>work</title>
<path d="M5.784 11.568c3.189 0 5.784-2.595 5.784-5.784s-2.595-5.784-5.784-5.784-5.784 2.595-5.784 5.784 2.595 5.784 5.784 5.784zM5.784 1.25c2.5 0 4.534 2.034 4.534 4.534s-2.034 4.534-4.534 4.534-4.534-2.034-4.534-4.534 2.034-4.534 4.534-4.534zM6.281 7.158c0.122 0.122 0.282 0.182 0.441 0.182s0.321-0.061 0.443-0.184c0.244-0.245 0.243-0.64-0.001-0.884l-0.75-0.748v-2.775c0-0.345-0.28-0.625-0.625-0.625s-0.625 0.28-0.625 0.625v3.034c0 0.166 0.066 0.325 0.184 0.443l0.934 0.931zM31.375 20.75h-3.847c-0.529-0.752-1.323-1.285-2.229-1.483l-2.748-0.601c1.124-0.758 1.865-2.044 1.865-3.499v-2.391c0-2.326-1.892-4.218-4.218-4.218s-4.218 1.892-4.218 4.218v2.391c0 1.454 0.739 2.738 1.861 3.496l-2.746 0.602c-0.117 0.026-0.233 0.057-0.346 0.094v-5.172c0-0.345-0.28-0.625-0.625-0.625h-4.25c-0.345 0-0.625 0.28-0.625 0.625s0.28 0.625 0.625 0.625h3.625v8.75h-4.25v-3.125c0-1.034-0.841-1.875-1.875-1.875s-1.875 0.841-1.875 1.875v3.125h-4.25v-8.75h3.625c0.345 0 0.625-0.28 0.625-0.625s-0.28-0.625-0.625-0.625h-4.25c-0.345 0-0.625 0.28-0.625 0.625v10c0 0.345 0.28 0.625 0.625 0.625h4.875v1.188h-0.063c-1.068 0-1.938 0.869-1.938 1.938v0.313h-2.875c-0.345 0-0.625 0.28-0.625 0.625v2.5c0 0.345 0.28 0.625 0.625 0.625h30.75c0.345 0 0.625-0.28 0.625-0.625v-10c0-0.345-0.28-0.625-0.625-0.625zM27.574 28.25h-3.574v-1.25h6.75v1.25h-3.176zM30.75 25.75h-6.75v-1.25h6.75v1.25zM30.75 23.25h-6.75v-1.25h3.18c0.002 0 0.004 0 0.006 0s0.004-0 0.006-0h3.559v1.25zM17.231 12.776c0-1.636 1.331-2.968 2.968-2.968 1.558 0 2.84 1.207 2.959 2.735l-1.453-0.854c-0.263-0.155-0.6-0.097-0.796 0.137-0.633 0.755-1.561 1.189-2.547 1.189h-1.132v-0.24zM17.231 14.266h1.132c1.177 0 2.294-0.449 3.138-1.246l1.666 0.979v1.168c0 1.636-1.331 2.968-2.968 2.968s-2.968-1.331-2.968-2.968v-0.901zM21.178 19.269l-0.988 2.643-0.99-2.648c0.321 0.078 0.655 0.121 1 0.121 0.337 0 0.665-0.041 0.979-0.116zM14.125 24.813c0.345 0 0.625-0.28 0.625-0.625v-3.476c0.193-0.102 0.398-0.177 0.614-0.224l2.734-0.6 1.506 4.029c0.091 0.244 0.325 0.406 0.585 0.406s0.494-0.162 0.585-0.406l1.506-4.029 2.751 0.601c0.241 0.053 0.471 0.142 0.681 0.262h-2.338c-0.345 0-0.625 0.28-0.625 0.625v6.875h-9.301v-3.438h0.676zM12.199 24.813v3.438h-0.949v-0.313c0-1.068-0.869-1.938-1.938-1.938h-0.063v-1.188h2.949zM6.75 20.438c0-0.345 0.28-0.625 0.625-0.625s0.625 0.28 0.625 0.625v5.563h-1.25v-5.563zM4.75 27.938c0-0.379 0.308-0.688 0.688-0.688h3.875c0.379 0 0.688 0.308 0.688 0.688v0.313h-5.25v-0.313zM30.75 30.75h-29.5v-1.25h29.5v1.25zM6.933 13.746c-0.116 0.116-0.183 0.277-0.183 0.442s0.067 0.326 0.183 0.442c0.116 0.116 0.277 0.183 0.442 0.183s0.326-0.067 0.442-0.183c0.116-0.116 0.183-0.277 0.183-0.442s-0.067-0.326-0.183-0.442c-0.116-0.116-0.277-0.183-0.442-0.183s-0.326 0.067-0.442 0.183z"></path>
</svg>
