<!-- Generated by IcoMoon.io -->
<svg version="1.1" xmlns="http://www.w3.org/2000/svg" width="32" height="32" viewBox="0 0 32 32">
<title>window-1</title>
<path d="M31.467 30.933h-0.533v-29.333c0-0.884-0.716-1.6-1.6-1.6h-26.666c-0.884 0-1.6 0.716-1.6 1.6v29.333h-0.533c-0.295 0-0.533 0.239-0.533 0.533s0.239 0.533 0.533 0.533h30.933c0.295 0 0.533-0.239 0.533-0.533s-0.239-0.533-0.533-0.533zM4.267 3.2h23.467v27.733h-23.467zM28.046 2.133h-24.092l-1.067-1.067h26.225zM2.133 1.821l1.067 1.067v28.046h-1.067zM28.8 30.933v-28.046l1.067-1.067v29.113zM14.933 4.267h-9.067c-0.295 0-0.533 0.239-0.533 0.533v24.533c0 0.295 0.239 0.533 0.533 0.533h9.067c0.294 0 0.533-0.239 0.533-0.533v-24.533c0-0.295-0.239-0.533-0.533-0.533zM14.4 28.8h-8v-23.467h8zM26.133 4.267h-9.067c-0.294 0-0.533 0.239-0.533 0.533v24.533c0 0.295 0.239 0.533 0.533 0.533h9.067c0.295 0 0.533-0.239 0.533-0.533v-24.533c0-0.295-0.239-0.533-0.533-0.533zM25.6 28.8h-8v-23.467h8zM19.356 17.977c0.209 0.202 0.542 0.199 0.748-0.007s0.209-0.538 0.006-0.748l-1.067-1.067c-0.209-0.202-0.542-0.199-0.748 0.007s-0.209 0.538-0.007 0.748zM11.89 17.977c0.208 0.208 0.546 0.208 0.754 0l1.067-1.067c0.202-0.209 0.199-0.542-0.007-0.748s-0.538-0.209-0.748-0.007l-1.067 1.067c-0.208 0.208-0.208 0.546 0 0.754zM7.467 8c0.142 0 0.277-0.056 0.377-0.156l1.067-1.067c0.202-0.209 0.199-0.542-0.007-0.748s-0.538-0.209-0.748-0.007l-1.067 1.067c-0.153 0.153-0.198 0.382-0.115 0.581s0.277 0.329 0.492 0.329zM7.467 10.667c0.142 0 0.277-0.056 0.377-0.156l3.733-3.733c0.202-0.209 0.199-0.542-0.007-0.748s-0.538-0.209-0.748-0.007l-3.733 3.733c-0.153 0.152-0.198 0.382-0.115 0.581s0.277 0.329 0.492 0.329zM18.667 8c0.141 0 0.277-0.056 0.377-0.156l1.067-1.067c0.202-0.209 0.199-0.542-0.006-0.748s-0.539-0.209-0.748-0.007l-1.067 1.067c-0.152 0.153-0.198 0.382-0.115 0.581s0.277 0.329 0.493 0.329zM18.667 10.667c0.141 0 0.277-0.056 0.377-0.156l3.733-3.733c0.202-0.209 0.199-0.542-0.007-0.748s-0.538-0.209-0.748-0.007l-3.733 3.733c-0.152 0.152-0.198 0.382-0.115 0.581s0.277 0.329 0.493 0.329z"></path>
</svg>
