<!-- Generated by IcoMoon.io -->
<svg version="1.1" xmlns="http://www.w3.org/2000/svg" width="32" height="32" viewBox="0 0 32 32">
<title>door-3</title>
<path d="M8.702 14.135c-0.782 0-1.419 0.636-1.419 1.419 0 0.597 0.371 1.107 0.893 1.317v0.995c0 0.29 0.235 0.526 0.525 0.526s0.525-0.235 0.525-0.526v-0.995c0.523-0.209 0.893-0.72 0.893-1.317 0-0.782-0.636-1.419-1.419-1.419zM8.702 15.921c-0.203 0-0.368-0.165-0.368-0.368s0.165-0.368 0.368-0.368 0.368 0.165 0.368 0.368-0.165 0.368-0.368 0.368zM25.832 0h-19.664c-0.29 0-0.526 0.235-0.526 0.525v30.949c0 0.29 0.235 0.525 0.526 0.525h19.664c0.29 0 0.526-0.235 0.526-0.526v-30.949c0-0.29-0.235-0.525-0.526-0.525zM6.693 4.834h2.528v7.041h-2.528v-7.041zM13.916 15.143c0.29 0 0.525-0.235 0.525-0.525v-9.783h3.118v10.72h-5.704v-3.153c0-0.29-0.235-0.525-0.525-0.525h-1.057v-7.042h3.118v9.783c0 0.29 0.235 0.525 0.525 0.525zM13.916 17.105c-0.29 0-0.525 0.235-0.525 0.526v7.697h-3.118v-5.045h1.057c0.29 0 0.525-0.235 0.525-0.526v-3.153h5.704v8.723h-3.118v-7.697c0-0.29-0.235-0.526-0.525-0.526zM10.804 12.926v6.306h-1.051c-0.002 0-0.004-0-0.005-0s-0.004 0-0.005 0h-3.048v-6.306h3.052c0 0 0.001 0 0.001 0s0.001-0 0.001-0h1.056zM6.693 20.283h2.528v5.045h-2.528v-5.045zM25.307 30.949h-18.613v-4.57h12.985c0.29 0 0.526-0.235 0.526-0.526s-0.235-0.526-0.526-0.526h-1.069v-8.723h3.118v8.723h-0.542c-0.29 0-0.526 0.235-0.526 0.526s0.235 0.526 0.526 0.526h4.121v4.57zM25.307 25.328h-2.528v-8.723h2.528v8.723zM25.307 15.554h-2.528v-5.070c0-0.29-0.235-0.525-0.526-0.525s-0.526 0.235-0.526 0.525v5.070h-3.118v-10.72h3.118v3.898c0 0.29 0.235 0.525 0.526 0.525s0.526-0.235 0.526-0.525v-3.898h2.528v10.72zM25.307 3.783h-18.613v-2.732h18.613v2.732zM16 29.006c-0.291 0-0.525 0.235-0.525 0.526s0.235 0.525 0.525 0.525c0.29 0 0.526-0.235 0.526-0.525s-0.235-0.526-0.526-0.526zM13.99 29.006c-0.29 0-0.525 0.235-0.525 0.526s0.235 0.525 0.525 0.525c0.29 0 0.525-0.235 0.525-0.525s-0.235-0.526-0.525-0.526zM9.97 29.006c-0.29 0-0.525 0.235-0.525 0.526s0.235 0.525 0.525 0.525c0.29 0 0.525-0.235 0.525-0.525s-0.235-0.526-0.525-0.526zM18.010 29.006c-0.29 0-0.526 0.235-0.526 0.526s0.235 0.525 0.526 0.525 0.526-0.235 0.526-0.525c0-0.291-0.235-0.526-0.526-0.526zM22.030 29.006c-0.29 0-0.525 0.235-0.525 0.526s0.235 0.525 0.525 0.525c0.291 0 0.526-0.235 0.526-0.525s-0.235-0.526-0.526-0.526zM20.020 29.006c-0.29 0-0.526 0.235-0.526 0.526s0.235 0.525 0.526 0.525c0.29 0 0.526-0.235 0.526-0.525s-0.235-0.526-0.526-0.526zM11.98 29.006c-0.29 0-0.525 0.235-0.525 0.526s0.235 0.525 0.525 0.525c0.291 0 0.525-0.235 0.525-0.525s-0.235-0.526-0.525-0.526zM16 1.926c-0.291 0-0.525 0.235-0.525 0.526s0.235 0.525 0.525 0.525c0.29 0 0.526-0.235 0.526-0.525s-0.235-0.526-0.526-0.526zM13.99 1.926c-0.29 0-0.525 0.235-0.525 0.526s0.235 0.525 0.525 0.525c0.29 0 0.525-0.235 0.525-0.525s-0.235-0.526-0.525-0.526zM18.010 1.926c-0.29 0-0.526 0.235-0.526 0.526s0.235 0.525 0.526 0.525 0.526-0.235 0.526-0.525c0-0.291-0.235-0.526-0.526-0.526zM20.020 1.926c-0.29 0-0.526 0.235-0.526 0.526s0.235 0.525 0.526 0.525c0.29 0 0.526-0.235 0.526-0.525s-0.235-0.526-0.526-0.526zM9.97 1.926c-0.29 0-0.525 0.235-0.525 0.526s0.236 0.525 0.525 0.525c0.29 0 0.525-0.235 0.525-0.525s-0.235-0.526-0.525-0.526zM22.030 1.926c-0.29 0-0.525 0.235-0.525 0.526s0.235 0.525 0.525 0.525c0.291 0 0.526-0.235 0.526-0.525s-0.235-0.526-0.526-0.526zM11.98 1.926c-0.29 0-0.525 0.235-0.525 0.526s0.235 0.525 0.525 0.525c0.291 0 0.525-0.235 0.525-0.525s-0.235-0.526-0.525-0.526zM7.96 1.926c-0.29 0-0.526 0.235-0.526 0.526s0.235 0.525 0.526 0.525c0.29 0 0.525-0.235 0.525-0.525s-0.235-0.526-0.526-0.526zM24.040 1.926c-0.29 0-0.526 0.235-0.526 0.526s0.235 0.525 0.526 0.525c0.29 0 0.526-0.235 0.526-0.525s-0.235-0.526-0.526-0.526zM24.040 29.005c-0.29 0-0.526 0.235-0.526 0.526s0.235 0.525 0.526 0.525c0.29 0 0.526-0.235 0.526-0.525s-0.235-0.526-0.526-0.526zM7.96 29.006c-0.29 0-0.526 0.235-0.526 0.526s0.235 0.525 0.526 0.525c0.29 0 0.525-0.235 0.525-0.525s-0.235-0.526-0.526-0.526z"></path>
</svg>
