<!-- Generated by IcoMoon.io -->
<svg version="1.1" xmlns="http://www.w3.org/2000/svg" width="32" height="32" viewBox="0 0 32 32">
<title>atm</title>
<path d="M26.677 0h-21.354c-1.556 0-2.821 1.266-2.821 2.821v21.354c0 1.555 1.266 2.821 2.821 2.821h4.027c0.262 0 0.475-0.213 0.475-0.475s-0.213-0.475-0.475-0.475h-4.027c-1.031 0-1.871-0.839-1.871-1.871v-21.354c0-1.031 0.839-1.871 1.871-1.871h21.354c1.031 0 1.871 0.839 1.871 1.871v4.261c0 0.262 0.213 0.475 0.475 0.475s0.475-0.213 0.475-0.475v-4.261c-0-1.556-1.265-2.821-2.821-2.821zM29.023 8.191c-0.262 0-0.475 0.213-0.475 0.475v15.509c0 1.031-0.839 1.871-1.871 1.871h-4.027c-0.262 0-0.475 0.213-0.475 0.475s0.213 0.475 0.475 0.475h4.027c1.555 0 2.821-1.266 2.821-2.821v-15.509c0-0.262-0.213-0.475-0.475-0.475zM21.066 21.782c-0.262 0-0.475 0.213-0.475 0.475v8.034c0 0.418-0.34 0.758-0.758 0.758h-4.154v-8.792c0-0.262-0.213-0.475-0.475-0.475s-0.475 0.213-0.475 0.475v8.792h-0.95v-8.792c0-0.262-0.213-0.475-0.475-0.475s-0.475 0.213-0.475 0.475v8.792h-0.659c-0.418 0-0.758-0.34-0.758-0.758v-8.034c0-0.262-0.213-0.475-0.475-0.475s-0.475 0.213-0.475 0.475v8.034c0 0.942 0.767 1.709 1.709 1.709h7.664c0.942 0 1.709-0.767 1.709-1.709v-8.034c-0-0.262-0.213-0.475-0.475-0.475zM10.379 17.146h-0.985c-1.060 0-1.922 0.862-1.922 1.922v3.211c0 1.060 0.862 1.922 1.922 1.922 0.262 0 0.475-0.213 0.475-0.475s-0.213-0.475-0.475-0.475c-0.536 0-0.972-0.436-0.972-0.972v-3.211c0-0.536 0.436-0.972 0.972-0.972h0.985c0.262 0 0.475-0.213 0.475-0.475s-0.213-0.475-0.475-0.475zM22.605 17.146h-10.642c-0.262 0-0.475 0.213-0.475 0.475s0.213 0.475 0.475 0.475h10.642c0.536 0 0.972 0.436 0.972 0.972v3.211c0 0.536-0.436 0.972-0.972 0.972-0.262 0-0.475 0.213-0.475 0.475s0.213 0.475 0.475 0.475c1.060 0 1.922-0.862 1.922-1.922v-3.211c0-1.060-0.862-1.922-1.922-1.922zM22.127 20.198h-12.255c-0.262 0-0.475 0.213-0.475 0.475s0.213 0.475 0.475 0.475h12.255c0.262 0 0.475-0.213 0.475-0.475s-0.213-0.475-0.475-0.475zM24.951 4.98c-0.212-0.053-0.432 0.046-0.535 0.239l-1.937 3.653-1.938-3.654c-0.102-0.193-0.323-0.291-0.535-0.239s-0.36 0.243-0.36 0.461v6.273c0 0.262 0.213 0.475 0.475 0.475s0.475-0.213 0.475-0.475v-4.362l1.463 2.758c0.082 0.155 0.244 0.252 0.42 0.252s0.337-0.097 0.42-0.253l1.462-2.757v4.362c0 0.262 0.213 0.475 0.475 0.475s0.475-0.213 0.475-0.475v-6.273c0-0.218-0.149-0.409-0.36-0.461zM12.361 11.545l-2.376-6.273c-0.070-0.185-0.247-0.307-0.444-0.307s-0.374 0.122-0.444 0.307l-2.376 6.273c-0.093 0.245 0.031 0.52 0.276 0.613s0.52-0.031 0.613-0.276l0.766-2.023h2.331l0.766 2.023c0.072 0.19 0.253 0.307 0.444 0.307 0.056 0 0.113-0.010 0.168-0.031 0.245-0.093 0.369-0.367 0.276-0.613zM8.735 8.908l0.805-2.126 0.805 2.126h-1.611zM17.619 4.965h-4.372c-0.262 0-0.475 0.213-0.475 0.475s0.213 0.475 0.475 0.475h1.711v5.798c0 0.262 0.213 0.475 0.475 0.475s0.475-0.213 0.475-0.475v-5.798h1.711c0.262 0 0.475-0.213 0.475-0.475s-0.213-0.475-0.475-0.475z"></path>
</svg>
