<!-- Generated by IcoMoon.io -->
<svg version="1.1" xmlns="http://www.w3.org/2000/svg" width="32" height="32" viewBox="0 0 32 32">
<title>bbq</title>
<path d="M11.875 6.45c-0.511 0.346-1.212 0.82-1.212 1.786 0 0.345 0.28 0.625 0.625 0.625s0.625-0.28 0.625-0.625c0-0.275 0.192-0.432 0.663-0.751 0.512-0.346 1.212-0.82 1.212-1.786s-0.701-1.44-1.212-1.786c-0.471-0.319-0.663-0.476-0.663-0.751s0.192-0.432 0.663-0.751c0.512-0.346 1.212-0.82 1.212-1.786 0-0.345-0.28-0.625-0.625-0.625s-0.625 0.28-0.625 0.625c0 0.275-0.192 0.432-0.663 0.751-0.511 0.346-1.212 0.82-1.212 1.786s0.7 1.44 1.212 1.786c0.471 0.319 0.663 0.476 0.663 0.751s-0.192 0.432-0.663 0.751zM16.187 6.45c-0.511 0.346-1.212 0.82-1.212 1.786 0 0.345 0.28 0.625 0.625 0.625s0.625-0.28 0.625-0.625c0-0.275 0.192-0.432 0.663-0.751 0.512-0.346 1.212-0.82 1.212-1.786s-0.701-1.44-1.212-1.786c-0.471-0.319-0.663-0.476-0.663-0.751s0.192-0.432 0.663-0.751c0.512-0.346 1.212-0.82 1.212-1.786 0-0.345-0.28-0.625-0.625-0.625s-0.625 0.28-0.625 0.625c0 0.275-0.192 0.432-0.663 0.751-0.512 0.346-1.212 0.82-1.212 1.786s0.701 1.44 1.212 1.786c0.471 0.319 0.663 0.476 0.663 0.751s-0.192 0.432-0.663 0.751zM20.498 6.45c-0.511 0.346-1.212 0.82-1.212 1.786 0 0.345 0.28 0.625 0.625 0.625s0.625-0.28 0.625-0.625c0-0.275 0.192-0.432 0.663-0.751 0.511-0.346 1.212-0.82 1.212-1.786s-0.701-1.44-1.212-1.786c-0.471-0.319-0.663-0.476-0.663-0.751s0.192-0.432 0.663-0.751c0.511-0.346 1.212-0.82 1.212-1.786 0-0.345-0.28-0.625-0.625-0.625s-0.625 0.28-0.625 0.625c0 0.275-0.192 0.432-0.663 0.751-0.511 0.346-1.212 0.82-1.212 1.786s0.701 1.44 1.212 1.786c0.471 0.319 0.663 0.476 0.663 0.751s-0.192 0.432-0.663 0.751zM29.838 14.34h-2.286c0.072-0.445 0.119-0.897 0.139-1.357 0.72-0.251 1.238-0.937 1.238-1.742 0-1.017-0.828-1.845-1.845-1.845h-22.205c-1.017 0-1.845 0.828-1.845 1.845 0 0.805 0.518 1.49 1.238 1.742 0.020 0.46 0.067 0.912 0.139 1.357h-2.286c-0.345 0-0.625 0.28-0.625 0.625s0.28 0.625 0.625 0.625h2.56c0.861 3.105 2.971 5.696 5.752 7.196l-1.479 2.775c-0.001 0.002-0.002 0.003-0.003 0.005l-2.762 5.184h-0.951c-0.345 0-0.625 0.28-0.625 0.625s0.28 0.625 0.625 0.625h2.652c0.345 0 0.625-0.28 0.625-0.625s-0.28-0.625-0.625-0.625h-0.285l2.272-4.263h12.349l2.272 4.263h-0.434c-0.345 0-0.625 0.28-0.625 0.625s0.28 0.625 0.625 0.625h2.652c0.345 0 0.625-0.28 0.625-0.625s-0.28-0.625-0.625-0.625h-0.802l-2.762-5.184c-0.001-0.001-0.001-0.003-0.002-0.004l-1.513-2.839c2.725-1.509 4.788-4.071 5.637-7.133h2.56c0.345 0 0.625-0.28 0.625-0.625s-0.28-0.625-0.625-0.625zM10.548 25.237l1.021-1.916c1.363 0.556 2.853 0.863 4.413 0.863 1.607 0 3.139-0.325 4.535-0.913l1.048 1.967zM15.982 22.933c-5.564 0-10.129-4.362-10.453-9.846h20.906c-0.324 5.484-4.889 9.846-10.453 9.846zM27.084 11.837h-22.205c-0.328 0-0.595-0.267-0.595-0.595s0.267-0.595 0.595-0.595h22.205c0.328 0 0.595 0.267 0.595 0.595s-0.267 0.595-0.595 0.595zM15.982 21.833c3.246 0 6.217-1.648 7.946-4.407 0.183-0.292 0.095-0.678-0.198-0.862s-0.678-0.095-0.861 0.198c-1.5 2.393-4.074 3.821-6.887 3.821-0.345 0-0.625 0.28-0.625 0.625s0.28 0.625 0.625 0.625zM23.827 15.047c0.102 0.244 0.352 0.401 0.616 0.385 0.25-0.016 0.47-0.185 0.552-0.423 0.087-0.254-0.005-0.547-0.222-0.705-0.201-0.146-0.477-0.159-0.69-0.032-0.262 0.157-0.373 0.493-0.256 0.775z"></path>
</svg>
