<!-- Generated by IcoMoon.io -->
<svg version="1.1" xmlns="http://www.w3.org/2000/svg" width="32" height="32" viewBox="0 0 32 32">
<title>brickwall-1</title>
<path d="M31.503 12.191h-6.493c-0.274 0-0.497 0.223-0.497 0.497s0.222 0.497 0.497 0.497h0.828v3.644h-9.342v-3.644h5.863c0.274 0 0.497-0.223 0.497-0.497s-0.222-0.497-0.497-0.497h-6.36c-0.274 0-0.497 0.223-0.497 0.497v4.141h-4.671c-0.274 0-0.497 0.223-0.497 0.497v4.141h-4.671c-0.274 0-0.497 0.223-0.497 0.497v4.273h-4.671c-0.274 0-0.497 0.223-0.497 0.497v4.638c0 0.274 0.223 0.497 0.497 0.497h4.903c0.274 0 0.497-0.223 0.497-0.497s-0.223-0.497-0.497-0.497h-4.406v-3.644h9.342v3.644h-2.286c-0.274 0-0.497 0.223-0.497 0.497s0.223 0.497 0.497 0.497h23.453c0.274 0 0.497-0.223 0.497-0.497v-18.683c0-0.274-0.222-0.497-0.497-0.497zM11.329 17.822h9.342v3.644h-9.342v-3.644zM25.838 22.46v3.644h-9.342v-3.644h9.342zM6.162 26.104v-3.644h9.342v3.644h-9.342zM20.671 30.874h-9.342v-3.644h9.342v3.644zM31.006 30.874h-9.342v-3.644h9.342v3.644zM31.006 26.104h-4.174v-3.644h4.174v3.644zM31.006 21.466h-9.342v-3.644h9.342v3.644zM31.006 16.828h-4.174v-3.644h4.174v3.644zM29.515 0.133h-7.023c-0.047 0-0.095 0.007-0.14 0.020l-6.758 1.988c-0.158 0.046-0.279 0.166-0.33 0.316-0.014 0.020-1.962 3.722-1.962 3.722-0.819-0.554-1.807-0.878-2.868-0.878-2.676 0-9.773 4.524-10.073 4.716s-0.3 0.645 0 0.837c0.301 0.193 7.397 4.716 10.073 4.716 2.831 0 5.135-2.303 5.135-5.135 0-1.405-0.568-2.68-1.485-3.608l1.901-3.619 6.367 1.873c0.046 0.013 0.093 0.020 0.14 0.020h7.023c1.37 0 2.484-1.115 2.484-2.485s-1.114-2.485-2.485-2.485zM14.576 10.435c0 2.283-1.858 4.141-4.141 4.141-1.79 0-6.515-2.687-8.871-4.141 2.356-1.454 7.081-4.141 8.871-4.141 0.895 0 1.724 0.286 2.402 0.771l-1.51 2.873h-3.94c-0.274 0-0.497 0.223-0.497 0.497s0.223 0.497 0.497 0.497h4.24c0.185 0 0.354-0.102 0.44-0.266l1.526-2.905c0.612 0.722 0.982 1.655 0.982 2.673zM21.996 3.94l-4.5-1.323 4.5-1.323v2.647zM29.515 4.108h-6.527c0.001-0.011 0.002-0.022 0.002-0.033v-2.948h6.526c0.822 0 1.491 0.669 1.491 1.491s-0.669 1.491-1.491 1.491zM5.4 9.938h-0.928c-0.274 0-0.497 0.223-0.497 0.497s0.223 0.497 0.497 0.497h0.928c0.274 0 0.497-0.223 0.497-0.497s-0.223-0.497-0.497-0.497z"></path>
</svg>
