<!-- Generated by IcoMoon.io -->
<svg version="1.1" xmlns="http://www.w3.org/2000/svg" width="32" height="32" viewBox="0 0 32 32">
<title>cafe-2</title>
<path d="M27.846 16.915h-2.211l0.117-2.452c0.013-0.278-0.088-0.549-0.28-0.75s-0.458-0.315-0.736-0.315h-22.378c-0.278 0-0.544 0.114-0.736 0.315s-0.293 0.473-0.28 0.75l0.452 9.475c0.112 2.341 1.546 4.311 3.561 5.206h-4.336c-0.562 0-1.017 0.456-1.017 1.017s0.456 1.017 1.017 1.017h25.202c0.562 0 1.017-0.456 1.017-1.017s-0.456-1.017-1.017-1.017h-4.48c1.633-0.726 2.884-2.158 3.359-3.922h2.748c2.29 0 4.154-1.863 4.154-4.154s-1.863-4.154-4.154-4.154zM19.298 27.626h-11.502c-2.125 0-3.869-1.663-3.971-3.786l-0.401-8.409h20.245l-0.401 8.409c-0.101 2.123-1.845 3.786-3.971 3.786zM27.846 23.188h-2.51l0.202-4.241c0.015 0.001 0.030 0.002 0.045 0.002h2.263c1.169 0 2.119 0.951 2.119 2.119s-0.951 2.119-2.119 2.119zM10.557 11.73c0.162 0.096 0.341 0.142 0.517 0.142 0.348 0 0.687-0.179 0.877-0.5 0.286-0.484 0.126-1.107-0.358-1.393-0.566-0.334-0.957-0.951-1.073-1.692-0.121-0.771 0.081-1.54 0.539-2.055 0.004-0.005 0.008-0.009 0.012-0.014 0.111-0.129 0.221-0.256 0.331-0.382 0.941-1.081 1.914-2.198 2.194-3.824 0.095-0.554-0.277-1.080-0.83-1.175s-1.080 0.276-1.175 0.83c-0.183 1.064-0.897 1.883-1.723 2.832-0.111 0.128-0.224 0.257-0.336 0.388-0.853 0.964-1.235 2.352-1.022 3.714 0.21 1.344 0.956 2.484 2.047 3.129zM13.714 9.432c0.336 0.865 0.935 1.657 1.687 2.23 0.184 0.14 0.401 0.208 0.616 0.208 0.307 0 0.61-0.138 0.81-0.401 0.341-0.447 0.254-1.085-0.192-1.426-0.452-0.344-0.825-0.836-1.024-1.349-0.397-1.021-0.021-2.039 1.256-3.403 0.906-0.967 1.484-2.106 1.674-3.294 0.088-0.555-0.29-1.076-0.845-1.165s-1.076 0.29-1.165 0.845c-0.127 0.797-0.514 1.545-1.149 2.224-0.667 0.712-2.697 2.88-1.668 5.53z"></path>
</svg>
