<!-- Generated by IcoMoon.io -->
<svg version="1.1" xmlns="http://www.w3.org/2000/svg" width="32" height="32" viewBox="0 0 32 32">
<title>building</title>
<path d="M31.467 30.933h-3.2v-17.6c0-0.295-0.239-0.533-0.533-0.533h-7.467v-12.267c0-0.295-0.239-0.533-0.533-0.533h-13.867c-0.295 0-0.533 0.239-0.533 0.533v30.4h-4.8c-0.295 0-0.533 0.239-0.533 0.533s0.239 0.533 0.533 0.533h30.933c0.295 0 0.533-0.239 0.533-0.533s-0.239-0.533-0.533-0.533zM11.2 30.933h-2.133v-4.8c0-0.295 0.239-0.533 0.533-0.533h1.067c0.295 0 0.533 0.239 0.533 0.533v4.8zM13.333 13.333v17.6h-1.067v-4.8c0-0.884-0.716-1.6-1.6-1.6h-1.067c-0.884 0-1.6 0.716-1.6 1.6v4.8h-1.6v-29.867h12.8v11.733h-5.333c-0.295 0-0.533 0.239-0.533 0.533zM27.2 30.933h-12.8v-17.067h12.8v17.067zM17.067 7.467h-3.2c-0.295 0-0.533 0.239-0.533 0.533v3.2c0 0.295 0.239 0.533 0.533 0.533h3.2c0.295 0 0.533-0.239 0.533-0.533v-3.2c0-0.295-0.239-0.533-0.533-0.533zM16.533 10.667h-2.133v-2.133h2.133v2.133zM17.067 2.133h-3.2c-0.295 0-0.533 0.239-0.533 0.533v3.2c0 0.295 0.239 0.533 0.533 0.533h3.2c0.295 0 0.533-0.239 0.533-0.533v-3.2c0-0.295-0.239-0.533-0.533-0.533zM16.533 5.333h-2.133v-2.133h2.133v2.133zM11.733 7.467h-3.2c-0.295 0-0.533 0.239-0.533 0.533v3.2c0 0.295 0.239 0.533 0.533 0.533h3.2c0.295 0 0.533-0.239 0.533-0.533v-3.2c0-0.295-0.239-0.533-0.533-0.533zM11.2 10.667h-2.133v-2.133h2.133v2.133zM11.733 2.133h-3.2c-0.295 0-0.533 0.239-0.533 0.533v3.2c0 0.295 0.239 0.533 0.533 0.533h3.2c0.295 0 0.533-0.239 0.533-0.533v-3.2c0-0.295-0.239-0.533-0.533-0.533zM11.2 5.333h-2.133v-2.133h2.133v2.133zM11.733 12.8h-3.2c-0.295 0-0.533 0.239-0.533 0.533v3.2c0 0.295 0.239 0.533 0.533 0.533h3.2c0.295 0 0.533-0.239 0.533-0.533v-3.2c0-0.295-0.239-0.533-0.533-0.533zM11.2 16h-2.133v-2.133h2.133v2.133zM11.733 18.133h-3.2c-0.295 0-0.533 0.239-0.533 0.533v3.2c0 0.295 0.239 0.533 0.533 0.533h3.2c0.295 0 0.533-0.239 0.533-0.533v-3.2c0-0.295-0.239-0.533-0.533-0.533zM11.2 21.333h-2.133v-2.133h2.133v2.133zM21.867 24.533h3.2c0.295 0 0.533-0.239 0.533-0.533v-3.2c0-0.295-0.239-0.533-0.533-0.533h-3.2c-0.295 0-0.533 0.239-0.533 0.533v3.2c0 0.295 0.239 0.533 0.533 0.533zM22.4 21.333h2.133v2.133h-2.133v-2.133zM21.867 19.2h3.2c0.295 0 0.533-0.239 0.533-0.533v-3.2c0-0.295-0.239-0.533-0.533-0.533h-3.2c-0.295 0-0.533 0.239-0.533 0.533v3.2c0 0.295 0.239 0.533 0.533 0.533zM22.4 16h2.133v2.133h-2.133v-2.133zM21.867 29.867h3.2c0.295 0 0.533-0.239 0.533-0.533v-3.2c0-0.295-0.239-0.533-0.533-0.533h-3.2c-0.295 0-0.533 0.239-0.533 0.533v3.2c0 0.295 0.239 0.533 0.533 0.533zM22.4 26.667h2.133v2.133h-2.133v-2.133zM16.533 24.533h3.2c0.295 0 0.533-0.239 0.533-0.533v-3.2c0-0.295-0.239-0.533-0.533-0.533h-3.2c-0.295 0-0.533 0.239-0.533 0.533v3.2c0 0.295 0.239 0.533 0.533 0.533zM17.067 21.333h2.133v2.133h-2.133v-2.133zM16.533 19.2h3.2c0.295 0 0.533-0.239 0.533-0.533v-3.2c0-0.295-0.239-0.533-0.533-0.533h-3.2c-0.295 0-0.533 0.239-0.533 0.533v3.2c0 0.295 0.239 0.533 0.533 0.533zM17.067 16h2.133v2.133h-2.133v-2.133zM16.533 29.867h3.2c0.295 0 0.533-0.239 0.533-0.533v-3.2c0-0.295-0.239-0.533-0.533-0.533h-3.2c-0.295 0-0.533 0.239-0.533 0.533v3.2c0 0.295 0.239 0.533 0.533 0.533zM17.067 26.667h2.133v2.133h-2.133v-2.133z"></path>
</svg>
