<!-- Generated by IcoMoon.io -->
<svg version="1.1" xmlns="http://www.w3.org/2000/svg" width="32" height="32" viewBox="0 0 32 32">
<title>conditioner-2</title>
<path d="M30.176 5.871h-28.352c-1.006 0-1.824 0.818-1.824 1.824v16.61c0 1.006 0.818 1.824 1.824 1.824h28.352c1.006 0 1.824-0.818 1.824-1.824v-16.61c0-1.006-0.818-1.824-1.824-1.824zM30.176 24.854h-28.352c-0.303 0-0.549-0.246-0.549-0.549v-16.61c0-0.303 0.246-0.549 0.549-0.549h28.352c0.303 0 0.549 0.246 0.549 0.549v16.61c0 0.303-0.246 0.549-0.549 0.549zM10.327 8.669c-4.042 0-7.331 3.289-7.331 7.331s3.289 7.331 7.331 7.331 7.331-3.289 7.331-7.331-3.289-7.331-7.331-7.331zM10.327 22.056c-3.339 0-6.056-2.717-6.056-6.056s2.717-6.056 6.056-6.056c3.339 0 6.056 2.717 6.056 6.056s-2.717 6.056-6.056 6.056zM15.759 16.424c-0.31-0.488-0.858-0.742-1.431-0.666-0.704 0.095-1.429 0.051-2.118-0.125-0.078-0.355-0.25-0.674-0.49-0.931 0.064-0.158 0.154-0.305 0.266-0.433 0.447-0.51 0.693-1.164 0.693-1.842 0-1.059-0.829-1.929-1.886-1.98l-1.518-0.074c-0.578-0.028-1.102 0.273-1.369 0.785s-0.214 1.115 0.139 1.572c0.424 0.549 0.736 1.161 0.93 1.822-0.294 0.253-0.513 0.59-0.62 0.974-0.143 0.012-0.287 0.005-0.428-0.023-0.665-0.132-1.354-0.018-1.942 0.321-0.917 0.529-1.256 1.682-0.772 2.624l0.695 1.352c0.254 0.494 0.748 0.794 1.299 0.794 0.022 0 0.043-0 0.065-0.001 0.577-0.025 1.072-0.372 1.292-0.906 0.266-0.647 0.643-1.226 1.123-1.727 0.184 0.056 0.379 0.087 0.581 0.087 0.183 0 0.36-0.025 0.528-0.072 0.098 0.13 0.176 0.275 0.228 0.428 0.218 0.642 0.662 1.182 1.249 1.521 0.312 0.18 0.654 0.267 0.991 0.267 0.653 0 1.289-0.323 1.667-0.91l0.823-1.278c0.313-0.486 0.315-1.090 0.005-1.578zM7.384 19.202c-0.038 0.093-0.112 0.115-0.167 0.117s-0.131-0.013-0.176-0.102l-0.695-1.352c-0.173-0.336-0.052-0.748 0.275-0.937 0.319-0.184 0.695-0.246 1.056-0.175 0.245 0.048 0.497 0.063 0.746 0.045 0.058 0.145 0.133 0.281 0.223 0.407-0.534 0.586-0.957 1.256-1.262 1.996zM10.268 16.772c-0.393 0-0.713-0.32-0.713-0.713s0.32-0.713 0.713-0.713 0.713 0.32 0.713 0.713-0.32 0.713-0.713 0.713zM11.026 13.43c-0.175 0.2-0.321 0.426-0.433 0.668-0.106-0.018-0.214-0.027-0.325-0.027-0.036 0-0.072 0.001-0.108 0.003-0.24-0.767-0.611-1.479-1.108-2.122-0.061-0.079-0.044-0.154-0.018-0.203s0.075-0.106 0.177-0.101l1.518 0.074c0.378 0.018 0.673 0.329 0.673 0.707 0 0.369-0.134 0.725-0.377 1.002zM14.682 17.312l-0.823 1.278c-0.205 0.318-0.621 0.419-0.949 0.23-0.319-0.184-0.561-0.478-0.68-0.827-0.089-0.261-0.218-0.509-0.38-0.733 0.082-0.108 0.154-0.225 0.213-0.349 0.796 0.182 1.626 0.221 2.434 0.112 0.099-0.014 0.155 0.039 0.185 0.086s0.054 0.12-0.001 0.204zM28.558 8.861h-8.478c-0.352 0-0.637 0.285-0.637 0.637s0.285 0.637 0.637 0.637h8.478c0.352 0 0.637-0.285 0.637-0.637s-0.285-0.637-0.637-0.637zM28.558 12.112h-8.478c-0.352 0-0.637 0.285-0.637 0.637s0.285 0.637 0.637 0.637h8.478c0.352 0 0.637-0.285 0.637-0.637s-0.285-0.637-0.637-0.637zM28.558 15.363h-8.478c-0.352 0-0.637 0.285-0.637 0.637s0.285 0.637 0.637 0.637h8.478c0.352 0 0.637-0.285 0.637-0.637s-0.285-0.637-0.637-0.637zM28.558 18.614h-8.478c-0.352 0-0.637 0.285-0.637 0.637s0.285 0.637 0.637 0.637h8.478c0.352 0 0.637-0.285 0.637-0.637s-0.285-0.637-0.637-0.637zM26.008 21.865h-5.928c-0.352 0-0.637 0.285-0.637 0.637s0.285 0.637 0.637 0.637h5.928c0.352 0 0.637-0.285 0.637-0.637s-0.285-0.637-0.637-0.637zM28.558 21.865h-0.319c-0.352 0-0.637 0.285-0.637 0.637s0.285 0.637 0.637 0.637h0.319c0.352 0 0.637-0.285 0.637-0.637s-0.285-0.637-0.637-0.637z"></path>
</svg>
