<!-- Generated by IcoMoon.io -->
<svg version="1.1" xmlns="http://www.w3.org/2000/svg" width="32" height="32" viewBox="0 0 32 32">
<title>escalator</title>
<path d="M12.994 4.759c-1.364 0-2.474 1.11-2.474 2.474s1.11 2.474 2.474 2.474 2.474-1.11 2.474-2.474-1.11-2.474-2.474-2.474zM12.994 8.767c-0.846 0-1.534-0.688-1.534-1.534s0.688-1.534 1.534-1.534 1.534 0.688 1.534 1.534-0.688 1.534-1.534 1.534zM27.523 7.264h-3.642c-0.663 0-1.316 0.226-1.838 0.636l-6.575 5.166v-0.823c0-1.364-1.11-2.474-2.474-2.474s-2.474 1.11-2.474 2.474v4.71l-1.143 0.898c-0.357 0.28-0.803 0.435-1.257 0.435h-3.643c-2.469 0-4.478 2.009-4.478 4.477s2.009 4.477 4.478 4.477h3.643c0.663 0 1.316-0.226 1.838-0.636l12.665-9.951c0.357-0.28 0.803-0.435 1.257-0.435h3.642c2.469 0 4.478-2.009 4.478-4.477s-2.009-4.478-4.477-4.478zM11.46 12.243c0-0.846 0.688-1.534 1.534-1.534s1.534 0.688 1.534 1.534v1.545c0 0.005 0.001 0.010 0.001 0.016l-3.069 2.412v-3.972zM27.523 15.28h-3.642c-0.663 0-1.316 0.226-1.838 0.636l-12.665 9.951c-0.357 0.28-0.803 0.435-1.257 0.435h-3.643c-1.951 0-3.538-1.587-3.538-3.538s1.587-3.538 3.538-3.538h3.643c0.663 0 1.316-0.226 1.838-0.636l12.665-9.951c0.357-0.28 0.803-0.435 1.257-0.435h3.642c1.951 0 3.538 1.587 3.538 3.538s-1.587 3.538-3.538 3.538zM27.523 8.767h-3.642c-0.328 0-0.651 0.112-0.909 0.314l-12.665 9.951c-0.62 0.488-1.397 0.756-2.186 0.756h-3.643c-1.64 0-2.975 1.334-2.975 2.975s1.334 2.975 2.975 2.975h3.643c0.328 0 0.651-0.112 0.909-0.314l9.462-7.435c0.204-0.16 0.239-0.456 0.079-0.66s-0.456-0.239-0.66-0.079l-9.462 7.435c-0.093 0.073-0.21 0.114-0.329 0.114h-3.643c-1.122 0-2.035-0.913-2.035-2.035s0.913-2.035 2.035-2.035h3.643c0.999 0 1.981-0.34 2.766-0.957l12.665-9.951c0.093-0.073 0.21-0.114 0.329-0.114h3.642c1.122 0 2.035 0.913 2.035 2.035s-0.913 2.035-2.035 2.035h-3.643c-0.999 0-1.981 0.34-2.766 0.957l-1.926 1.513c-0.204 0.16-0.239 0.456-0.079 0.66s0.456 0.239 0.66 0.079l1.926-1.513c0.62-0.488 1.397-0.756 2.186-0.756h3.643c1.64 0 2.975-1.334 2.975-2.975s-1.334-2.975-2.975-2.975z"></path>
</svg>
