<!-- Generated by IcoMoon.io -->
<svg version="1.1" xmlns="http://www.w3.org/2000/svg" width="32" height="32" viewBox="0 0 32 32">
<title>door-5</title>
<path d="M0.49 28.018v0.98h4.503v-0.98h-0.511v-8.025h0.511v-0.98h-4.503v0.98h0.51v8.025h-0.51zM1.981 19.992h1.521v8.025h-1.521v-8.025zM26.517 16.51h-1.021v-1.511c0-5.236-4.26-9.496-9.496-9.496s-9.496 4.26-9.496 9.496v1.511h-1.021v-0.5h-5.483v2.481h5.483v-1.001h1.021v13.029h-1.021v-1.001h-5.483v2.481h5.483v-0.5h21.034v0.5h5.483v-2.481h-5.483v1.001h-1.021v-13.029h1.021v1.001h5.483v-2.481h-5.483v0.5zM4.503 17.511h-3.522v-0.521h3.522v0.521zM4.503 31.020h-3.522v-0.521h3.522v0.521zM16.49 6.498c0.7 0.040 1.377 0.164 2.022 0.364v7.716c-0.528-0.547-1.233-0.923-2.022-1.035v-7.045zM13.488 6.862v0c0.645-0.199 1.322-0.324 2.022-0.364v7.045c-0.789 0.111-1.493 0.487-2.022 1.035v-7.716zM9.506 30.519h-2.022v-15.52c0-2.096 0.761-4.017 2.022-5.502v21.022zM12.508 30.519h-2.022v-22.004c0.607-0.517 1.286-0.95 2.022-1.282v23.286zM15.51 30.519h-2.022v-11.096c0.528 0.547 1.233 0.923 2.022 1.035v10.062zM18.512 30.519h-2.022v-10.062c0.789-0.111 1.493-0.487 2.022-1.035v11.096zM16 19.512c-1.385 0-2.512-1.127-2.512-2.512s1.127-2.512 2.512-2.512 2.512 1.127 2.512 2.512-1.127 2.512-2.512 2.512zM21.514 30.519h-2.022v-23.286c0.735 0.332 1.415 0.765 2.022 1.282v22.004zM24.516 30.519h-2.022v-21.022c1.26 1.485 2.022 3.406 2.022 5.502v15.52zM27.497 30.499h3.523v0.521h-3.523v-0.521zM27.497 16.991h3.523v0.521h-3.523v-0.521zM31.51 19.992v-0.98h-4.503v0.98h0.511v8.025h-0.511v0.98h4.503v-0.98h-0.511v-8.025h0.511zM30.019 28.018h-1.521v-8.025h1.521v8.025zM16.715 15.593l-0.715 0.715-0.715-0.715-0.693 0.693 0.715 0.715-0.715 0.715 0.693 0.693 0.715-0.715 0.715 0.715 0.693-0.693-0.715-0.715 0.715-0.715zM4.993 14.509l-0.508-0c0.125-6.077 4.98-11.011 11.024-11.266v1.75h0.98v-1.75c6.045 0.254 10.899 5.189 11.024 11.266h-0.507v0.98h4.503v-0.98h-0.519c-0.122-3.823-1.667-7.399-4.384-10.116-2.833-2.833-6.6-4.393-10.606-4.393s-7.773 1.56-10.606 4.393c-2.716 2.716-4.261 6.291-4.384 10.113l-0.519-0-0.001 0.98 4.503 0.004 0.001-0.98zM1.99 14.507c0.122-3.56 1.565-6.889 4.097-9.42 2.648-2.648 6.168-4.106 9.913-4.106s7.265 1.458 9.913 4.106c2.532 2.532 3.975 5.862 4.097 9.423h-1.515c-0.129-6.781-5.684-12.258-12.495-12.258s-12.366 5.476-12.495 12.257l-1.515-0.001z"></path>
</svg>
