<!-- Generated by IcoMoon.io -->
<svg version="1.1" xmlns="http://www.w3.org/2000/svg" width="32" height="32" viewBox="0 0 32 32">
<title>elevator-4</title>
<path d="M28.376 0h-24.753c-0.345 0-0.625 0.28-0.625 0.625v30.75c0 0.345 0.28 0.625 0.625 0.625h24.753c0.345 0 0.625-0.28 0.625-0.625v-30.75c0-0.345-0.28-0.625-0.625-0.625zM15.375 30.694h-6.751v-22.569h6.751v22.569zM23.376 30.694h-6.751v-22.569h6.751v22.569zM27.751 30.75h-3.125v-23.25c0-0.345-0.28-0.625-0.625-0.625h-16.002c-0.345 0-0.625 0.28-0.625 0.625v23.25h-3.125v-29.5h23.503v29.5zM26.184 13c-0.345 0-0.625 0.28-0.625 0.625v1.373c0 0.345 0.28 0.625 0.625 0.625s0.625-0.28 0.625-0.625v-1.373c0-0.345-0.28-0.625-0.625-0.625zM26.184 16.403c-0.345 0-0.625 0.28-0.625 0.625v1.373c0 0.345 0.28 0.625 0.625 0.625s0.625-0.28 0.625-0.625v-1.373c0-0.345-0.28-0.625-0.625-0.625zM21.5 2.122h-11c-0.345 0-0.625 0.28-0.625 0.625v2.5c0 0.345 0.28 0.625 0.625 0.625h11c0.345 0 0.625-0.28 0.625-0.625v-2.5c0-0.345-0.28-0.625-0.625-0.625zM20.875 4.622h-9.75v-1.25h9.75v1.25zM10.676 13.089c-0.008-0.039-0.021-0.079-0.036-0.117s-0.035-0.074-0.057-0.107c-0.022-0.034-0.049-0.066-0.078-0.095-0.146-0.146-0.361-0.212-0.564-0.171-0.040 0.008-0.079 0.020-0.117 0.036s-0.074 0.035-0.107 0.057c-0.034 0.023-0.066 0.049-0.095 0.078s-0.055 0.061-0.078 0.095c-0.023 0.034-0.042 0.070-0.057 0.107s-0.028 0.078-0.036 0.117c-0.008 0.041-0.012 0.082-0.012 0.123s0.004 0.082 0.012 0.122 0.021 0.079 0.036 0.117c0.016 0.038 0.034 0.074 0.057 0.108s0.049 0.066 0.078 0.095c0.029 0.029 0.061 0.055 0.095 0.078s0.070 0.042 0.107 0.057c0.038 0.016 0.078 0.027 0.117 0.036s0.081 0.012 0.122 0.012c0.041 0 0.082-0.004 0.122-0.012s0.079-0.020 0.117-0.036c0.038-0.016 0.074-0.035 0.108-0.057s0.066-0.049 0.095-0.078c0.029-0.029 0.055-0.061 0.078-0.095s0.042-0.070 0.057-0.108c0.016-0.037 0.028-0.077 0.036-0.117s0.012-0.081 0.012-0.122c0-0.041-0.004-0.082-0.012-0.123zM10.063 14.753c-0.345 0-0.625 0.28-0.625 0.625v10.229c0 0.345 0.28 0.625 0.625 0.625s0.625-0.28 0.625-0.625v-10.229c0-0.345-0.28-0.625-0.625-0.625zM22.643 25.486c-0.008-0.040-0.020-0.079-0.036-0.117s-0.034-0.074-0.058-0.108c-0.023-0.034-0.049-0.066-0.078-0.095s-0.061-0.055-0.095-0.077c-0.034-0.023-0.070-0.042-0.108-0.058s-0.078-0.027-0.117-0.036c-0.081-0.016-0.164-0.016-0.244 0-0.040 0.008-0.079 0.020-0.117 0.036s-0.074 0.035-0.108 0.058c-0.034 0.022-0.066 0.049-0.095 0.077s-0.055 0.061-0.077 0.095c-0.023 0.034-0.042 0.070-0.058 0.108s-0.028 0.077-0.036 0.117c-0.008 0.040-0.012 0.081-0.012 0.122s0.004 0.082 0.012 0.122c0.008 0.039 0.020 0.079 0.036 0.117s0.035 0.074 0.058 0.108c0.022 0.034 0.049 0.066 0.077 0.095s0.061 0.055 0.095 0.078c0.034 0.022 0.070 0.042 0.108 0.058s0.077 0.027 0.117 0.036c0.040 0.008 0.081 0.012 0.122 0.012s0.082-0.004 0.122-0.012c0.039-0.008 0.079-0.020 0.117-0.036s0.074-0.035 0.108-0.058c0.034-0.023 0.066-0.049 0.095-0.078s0.055-0.061 0.078-0.095c0.022-0.034 0.042-0.070 0.058-0.108s0.028-0.078 0.036-0.117c0.008-0.041 0.012-0.082 0.012-0.122s-0.004-0.082-0.012-0.122zM22.029 12.587c-0.345 0-0.625 0.28-0.625 0.625v10.229c0 0.345 0.28 0.625 0.625 0.625s0.625-0.28 0.625-0.625v-10.229c0-0.345-0.28-0.625-0.625-0.625z"></path>
</svg>
