<!-- Generated by IcoMoon.io -->
<svg version="1.1" xmlns="http://www.w3.org/2000/svg" width="32" height="32" viewBox="0 0 32 32">
<title>exhibition</title>
<path d="M30.289 28.375h-0.789v-11.227c0-1.018-0.825-1.844-1.844-1.844s-1.844 0.825-1.844 1.844v0 1.849c-0.125 1.18-1.053 2.281-2.739 3.154-0.392 0.206-0.87 0.416-1.362 0.596l-0.086 0.028v-5.712h3.093c0.276 0 0.469-0.247 0.469-0.523v-3.642c0-0.276-0.193-0.522-0.469-0.522h-6.343v-0.469c1.249-0.8 2.048-2.395 2.048-4.118 0-1.578-0.838-3.177-2.11-4.070v-0.656h0.25c0.276 0 0.5-0.224 0.5-0.5v0-1.188c0-0.276-0.224-0.5-0.5-0.5v0h-5.313c-0.276 0-0.5 0.224-0.5 0.5v0 1.188c0 0.276 0.224 0.5 0.5 0.5v0h0.25v0.656c-1.223 0.863-1.972 2.376-1.972 4.019 0 1.611 0.801 3.161 2.061 4.047l0.012 0.591h-6.319c-0.276 0-0.469 0.246-0.469 0.522v3.642c0 0.276 0.193 0.523 0.469 0.523h3.093v5.714c-0.575-0.207-1.051-0.417-1.509-0.655l0.068 0.032c-1.532-0.794-2.434-1.776-2.684-2.834v-2.171c0-1.036-0.839-1.875-1.875-1.875s-1.875 0.839-1.875 1.875v0 11.352h-0.789c-0.276 0-0.523 0.197-0.523 0.473v1.652c0.011 0.279 0.24 0.5 0.52 0.5 0.001 0 0.002 0 0.004 0h5.25c0.264-0.002 0.477-0.216 0.477-0.481 0-0.007-0-0.014-0-0.020l0 0.001v-1.652c0-0.005 0-0.010 0-0.015 0-0.253-0.205-0.458-0.458-0.458-0.007 0-0.013 0-0.020 0l0.001-0h-0.711v-7.13c0.563 0.619 1.286 1.185 2.224 1.671 0.532 0.283 1.161 0.55 1.813 0.766l0.088 0.025v5.27c0.006 0.284 0.232 0.514 0.515 0.524l0.001 0h10.218c0.283-0.010 0.51-0.239 0.516-0.523v-5.27c0.744-0.24 1.375-0.508 1.978-0.824l-0.069 0.033c0.965-0.5 1.716-1.084 2.279-1.725v7.059h-0.773c-0.006-0-0.012-0-0.018-0-0.253 0-0.458 0.205-0.458 0.458 0 0.005 0 0.011 0 0.016l-0-0.001v1.652c-0 0.006-0 0.013-0 0.020 0 0.264 0.213 0.478 0.477 0.48h5.25c0.001 0 0.002 0 0.004 0 0.28 0 0.509-0.222 0.52-0.499l0-0.001v-1.652c0-0.276-0.247-0.473-0.523-0.473zM14 2.063h-0.25v-0.188h4.313v0.188h-0.25c-0.276 0-0.5 0.224-0.5 0.5v0 1.426c0 0.18 0.095 0.338 0.239 0.426l0.002 0.001c0.251 0.155 0.468 0.327 0.663 0.522l-0-0h-4.608c0.19-0.197 0.404-0.369 0.637-0.513l0.014-0.008c0.145-0.089 0.241-0.247 0.241-0.428v0-1.426c0-0.276-0.224-0.5-0.5-0.5v0zM12.923 5.938h6.029c0.291 0.536 0.465 1.173 0.471 1.849v0.002c-0 0.341-0.039 0.673-0.111 0.991l0.006-0.030h-6.655c-0.085-0.303-0.134-0.652-0.135-1.012v-0.001c-0-0.004-0-0.010-0-0.015 0-0.648 0.146-1.262 0.406-1.811l-0.011 0.026zM13.072 9.75h5.894c-0.276 0.553-0.665 1.015-1.13 1.314-0.259 0.021-0.461 0.236-0.461 0.498 0 0 0 0 0 0v0 0.75h-2.775l-0.016-0.801c-0.004-0.176-0.098-0.33-0.238-0.416l-0.002-0.001c-0.532-0.338-0.961-0.791-1.263-1.326l-0.010-0.019zM4.375 16.289c0 0 0.001 0 0.001 0 0.478 0 0.866 0.383 0.874 0.859v1.29h-1.75v-1.289c0.008-0.476 0.396-0.859 0.874-0.859 0 0 0.001 0 0.001 0h-0zM6.438 30.125h-4.25v-0.625h4.25zM5.25 28.5h-1.75v-9.063h1.741s0.009-0.022 0.009-0.020zM7.813 13.375h16.375v2.688h-16.375zM11.375 17.063h9.25v6.022c-1.389 0.369-2.983 0.581-4.627 0.581-1.642 0-3.235-0.211-4.753-0.608l0.13 0.029zM20.625 28.625h-9.25v-4.506c1.389 0.349 2.984 0.549 4.625 0.549s3.236-0.2 4.761-0.577l-0.136 0.028zM27.656 16.289c0.466 0.002 0.844 0.38 0.844 0.847 0 0.004-0 0.009-0 0.013v-0.001 1.289h-1.688v-1.289c-0-0.004-0-0.008-0-0.012 0-0.467 0.377-0.845 0.844-0.847h0zM26.813 19.438h1.688v8.938h-1.688zM29.813 30h-4.25v-0.625h4.25z"></path>
</svg>
