<!-- Generated by IcoMoon.io -->
<svg version="1.1" xmlns="http://www.w3.org/2000/svg" width="32" height="32" viewBox="0 0 32 32">
<title>fence</title>
<path d="M30.853 12.854c0.091-0.090 0.147-0.215 0.147-0.353 0-0 0-0 0-0.001v0c-0.003-1.47-0.491-2.826-1.312-3.917l0.012 0.017-0.3-0.4c-0.092-0.122-0.237-0.2-0.4-0.2s-0.308 0.078-0.399 0.199l-0.001 0.001-0.3 0.4c-0.809 1.074-1.297 2.43-1.3 3.899v0.001c0 0 0 0 0 0.001 0 0.138 0.056 0.263 0.147 0.353v0c0.165 0.165 0.268 0.394 0.268 0.646 0 0.186-0.056 0.359-0.151 0.503l0.002-0.003h-9.531c-0.093-0.141-0.149-0.314-0.149-0.5 0-0.252 0.102-0.481 0.268-0.646v0c0.091-0.090 0.147-0.215 0.147-0.353 0-0 0-0 0-0.001v0c-0.003-1.47-0.491-2.826-1.312-3.917l0.012 0.017-0.3-0.4c-0.092-0.122-0.237-0.2-0.4-0.2s-0.308 0.078-0.399 0.199l-0.001 0.001-0.3 0.4c-0.809 1.074-1.297 2.43-1.3 3.899v0.001c0 0 0 0 0 0.001 0 0.138 0.056 0.263 0.147 0.353v0c0.165 0.165 0.268 0.394 0.268 0.646 0 0.186-0.056 0.359-0.151 0.503l0.002-0.003h-9.531c-0.093-0.141-0.149-0.314-0.149-0.5 0-0.252 0.102-0.481 0.268-0.646v0c0.091-0.090 0.147-0.215 0.147-0.353 0-0 0-0 0-0.001v0c-0.003-1.47-0.491-2.826-1.312-3.917l0.012 0.017-0.3-0.4c-0.092-0.122-0.237-0.2-0.4-0.2s-0.308 0.078-0.399 0.199l-0.001 0.001-0.3 0.4c-0.809 1.074-1.297 2.43-1.3 3.899v0.001c0 0 0 0 0 0.001 0 0.138 0.056 0.263 0.147 0.353v0c0.165 0.165 0.268 0.394 0.268 0.646s-0.102 0.481-0.268 0.646v0c-0.091 0.090-0.147 0.215-0.147 0.353 0 0 0 0 0 0.001v-0 15c0 0 0 0 0 0 0 0.276 0.224 0.5 0.5 0.5 0 0 0 0 0 0h29c0 0 0 0 0 0 0.276 0 0.5-0.224 0.5-0.5 0 0 0 0 0-0v0-15c0-0 0-0 0-0.001 0-0.138-0.056-0.263-0.147-0.353v0c-0.165-0.165-0.268-0.394-0.268-0.646s0.102-0.481 0.268-0.646v0zM29 9.338c0.529 0.748 0.88 1.656 0.975 2.64l0.002 0.023h-1.954c0.096-1.006 0.448-1.914 0.988-2.68l-0.012 0.017zM29.653 13c-0.042 0.15-0.066 0.322-0.066 0.5s0.024 0.35 0.069 0.514l-0.003-0.014h-1.306c0.042-0.15 0.066-0.322 0.066-0.5s-0.024-0.35-0.069-0.514l0.003 0.014zM24 18.5v-3.5h1v3.5zM23 18.5h-1v-3.5h1zM21 18.5h-1v-3.5h1zM19 18.5h-1v-3.5h1zM18 19.5h9v9.5h-9zM26 18.5v-3.5h1v3.5zM16.653 14h-1.306c0.042-0.15 0.066-0.322 0.066-0.5s-0.024-0.35-0.069-0.514l0.003 0.014h1.306c-0.042 0.15-0.066 0.322-0.066 0.5s0.024 0.35 0.069 0.514l-0.003-0.014zM16 9.338c0.529 0.748 0.88 1.656 0.975 2.64l0.002 0.023h-1.954c0.096-1.006 0.448-1.914 0.988-2.68l-0.012 0.017zM11 18.5v-3.5h1v3.5zM10 18.5h-1v-3.5h1zM8 18.5h-1v-3.5h1zM6 18.5h-1v-3.5h1zM5 19.5h9v9.5h-9zM13 18.5v-3.5h1v3.5zM3.653 14h-1.306c0.042-0.15 0.066-0.322 0.066-0.5s-0.024-0.35-0.069-0.514l0.003 0.014h1.306c-0.042 0.15-0.066 0.322-0.066 0.5s0.024 0.35 0.069 0.514l-0.003-0.014zM3 9.338c0.529 0.748 0.88 1.656 0.975 2.64l0.002 0.023h-1.954c0.096-1.006 0.448-1.914 0.988-2.68l-0.012 0.017zM4 29h-2v-14h2zM17 29h-2v-14h2zM30 29h-2v-14h2zM14.232 6.732l0.707 0.707c0.272-0.271 0.647-0.439 1.061-0.439s0.789 0.168 1.061 0.439l-0-0 0.707-0.707c-0.453-0.452-1.078-0.731-1.768-0.731s-1.315 0.279-1.768 0.731l0-0zM19.182 5.318c-0.815-0.813-1.94-1.316-3.182-1.316s-2.367 0.503-3.182 1.316l0-0 0.707 0.707c0.634-0.632 1.509-1.023 2.475-1.023s1.841 0.391 2.475 1.024l-0-0zM20.596 3.904c-1.176-1.176-2.801-1.904-4.596-1.904s-3.42 0.728-4.596 1.904v0l0.707 0.707c0.995-0.995 2.37-1.611 3.889-1.611s2.894 0.616 3.889 1.611v0z"></path>
</svg>
