<!-- Generated by IcoMoon.io -->
<svg version="1.1" xmlns="http://www.w3.org/2000/svg" width="32" height="32" viewBox="0 0 32 32">
<title>fingerprint-1</title>
<path d="M8.5 16.626c-0.346 0-0.624 0.278-0.624 0.624s0.278 0.624 0.624 0.624c0.346 0 0.624-0.278 0.624-0.624s-0.278-0.624-0.624-0.624zM5.625 0h-5c-0.345 0-0.625 0.28-0.625 0.625v5c0 0.345 0.28 0.625 0.625 0.625s0.625-0.28 0.625-0.625v-4.375h4.375c0.345 0 0.625-0.28 0.625-0.625s-0.28-0.625-0.625-0.625zM31.375 0h-5c-0.345 0-0.625 0.28-0.625 0.625s0.28 0.625 0.625 0.625h4.375v4.375c0 0.345 0.28 0.625 0.625 0.625s0.625-0.28 0.625-0.625v-5c0-0.345-0.28-0.625-0.625-0.625zM5.625 30.75h-4.375v-4.375c0-0.345-0.28-0.625-0.625-0.625s-0.625 0.28-0.625 0.625v5c0 0.345 0.28 0.625 0.625 0.625h5c0.345 0 0.625-0.28 0.625-0.625s-0.28-0.625-0.625-0.625zM31.375 25.75c-0.345 0-0.625 0.28-0.625 0.625v4.375h-4.375c-0.345 0-0.625 0.28-0.625 0.625s0.28 0.625 0.625 0.625h5c0.345 0 0.625-0.28 0.625-0.625v-5c0-0.345-0.28-0.625-0.625-0.625zM17.086 1.68c-0.715-0.073-1.457-0.073-2.172 0-0.343 0.035-0.593 0.342-0.558 0.685s0.342 0.593 0.685 0.558c0.631-0.065 1.287-0.065 1.918 0 0.022 0.002 0.043 0.003 0.064 0.003 0.317 0 0.588-0.24 0.621-0.561 0.035-0.343-0.215-0.65-0.558-0.685zM20.468 28.721c-0.134-0.318-0.501-0.467-0.819-0.332-1.156 0.488-2.383 0.736-3.649 0.736-3.841 0-7.253-2.3-8.694-5.859-0.129-0.32-0.494-0.474-0.814-0.345s-0.474 0.494-0.345 0.814c1.59 3.928 5.427 6.64 9.852 6.64 1.434 0 2.825-0.281 4.136-0.835 0.318-0.134 0.467-0.501 0.332-0.819zM6 16.625c-0.345 0-0.625 0.28-0.625 0.625v2.5c0 0.345 0.28 0.625 0.625 0.625s0.625-0.28 0.625-0.625v-2.5c0-0.345-0.28-0.625-0.625-0.625zM12.683 2.792c-0.134-0.318-0.501-0.467-0.819-0.332-3.942 1.668-6.489 5.511-6.489 9.79v2.5c0 0.345 0.28 0.625 0.625 0.625s0.625-0.28 0.625-0.625v-2.5c0-3.776 2.248-7.167 5.726-8.639 0.318-0.135 0.467-0.501 0.332-0.819zM26 18.188c-0.345 0-0.625 0.28-0.625 0.625v0.938c0 2.809-1.244 5.445-3.412 7.234-0.266 0.22-0.304 0.614-0.084 0.88s0.613 0.304 0.88 0.084c2.457-2.027 3.867-5.015 3.867-8.198v-0.938c0-0.345-0.28-0.625-0.625-0.625zM20.136 2.46c-0.318-0.135-0.685 0.014-0.819 0.332s0.014 0.685 0.332 0.819c5.151 2.179 5.718 7.006 5.723 8.981 0 0.064 0 0.113 0.003 0.158v2.787c0 0.345 0.28 0.622 0.625 0.622s0.625-0.282 0.625-0.627v-2.813c0-4.551-2.132-8.416-6.489-10.259zM23.96 10.615c-0.214-1.043-0.626-2.020-1.224-2.905-0.193-0.286-0.582-0.361-0.868-0.168s-0.361 0.582-0.168 0.868c0.506 0.749 0.855 1.575 1.036 2.457 0.061 0.296 0.321 0.499 0.612 0.499 0.042 0 0.084-0.004 0.126-0.013 0.338-0.069 0.556-0.4 0.486-0.738zM20.541 5.515c-3.212-2.172-7.537-1.754-10.283 0.993-2.302 2.302-2.342 4.483-2.373 6.235-0.020 1.131 0-0.581-0.009 2.008 0 0.345 0.28 0.625 0.625 0.625s0.625-0.28 0.625-0.625v-1.554c0.050-1.913-0.067-3.722 2.016-5.805 2.324-2.324 5.982-2.678 8.699-0.841 0.286 0.193 0.674 0.118 0.868-0.168s0.118-0.675-0.168-0.868zM20.708 25.617c-0.193-0.286-0.582-0.361-0.868-0.168-1.154 0.781-2.459 1.177-3.778 1.183-3.539 0.015-6.938-2.783-6.938-6.882 0-0.345-0.28-0.625-0.625-0.625s-0.625 0.28-0.625 0.625c0 4.742 3.883 8.126 8.168 8.126 1.608 0 3.165-0.489 4.498-1.39 0.286-0.193 0.361-0.582 0.168-0.868zM23.5 12.563c-0.345 0-0.625 0.28-0.625 0.625v6.563c0 1.375-0.406 2.703-1.175 3.841-0.193 0.286-0.118 0.674 0.168 0.868 0.285 0.192 0.674 0.119 0.868-0.168 0.909-1.345 1.39-2.915 1.39-4.541v-6.563c0-0.345-0.28-0.625-0.625-0.625zM16 24.125c-2.412 0-4.375-1.96-4.375-4.375v-7.5c0-0.59 0.116-1.162 0.344-1.7 0.135-0.318-0.014-0.685-0.331-0.819s-0.685 0.014-0.819 0.331c-0.294 0.694-0.443 1.43-0.443 2.188v7.5c0 3.103 2.519 5.625 5.625 5.625 0.345 0 0.625-0.28 0.625-0.625s-0.28-0.625-0.625-0.625zM21.024 20.144c-0.337-0.069-0.668 0.148-0.738 0.487-0.172 0.837-0.585 1.602-1.194 2.211-0.244 0.244-0.244 0.64 0 0.884s0.64 0.244 0.884 0c0.783-0.783 1.314-1.766 1.535-2.844 0.069-0.338-0.149-0.669-0.487-0.738zM16 6.625c-0.758 0-1.494 0.149-2.188 0.443-0.318 0.135-0.466 0.501-0.332 0.819s0.502 0.466 0.819 0.332c0.539-0.228 1.111-0.344 1.701-0.344 2.412 0 4.375 1.963 4.375 4.375v5.631c0 0.345 0.28 0.625 0.625 0.625s0.625-0.28 0.625-0.625v-5.631c0-3.102-2.523-5.625-5.625-5.625zM16 9.125c-1.723 0-3.125 1.402-3.125 3.125v5.625c0 0.345 0.28 0.625 0.625 0.625s0.625-0.28 0.625-0.625v-5.625c0-1.034 0.841-1.875 1.875-1.875s1.875 0.841 1.875 1.875c0 0.345 0.28 0.625 0.625 0.625s0.625-0.28 0.625-0.625c0-1.723-1.402-3.125-3.125-3.125zM19.123 19.116c-0.005-0.269-0.007 0.128 0.002-3.116 0-0.345-0.28-0.625-0.625-0.625s-0.619 0.28-0.619 0.625c-0.008 3.123-0.011 2.581-0.002 3.137 0.012 0.678 0.010 0.959-0.152 1.341-0.295 0.696-0.973 1.146-1.728 1.146s-1.433-0.45-1.728-1.146c-0.135-0.318-0.501-0.466-0.819-0.332s-0.466 0.502-0.332 0.819c0.491 1.159 1.621 1.909 2.879 1.909s2.388-0.749 2.879-1.909c0.266-0.627 0.257-1.114 0.245-1.85zM16 11.625c-0.345 0-0.625 0.28-0.625 0.625v7.5c0 0.345 0.28 0.625 0.625 0.625s0.625-0.28 0.625-0.625v-7.5c0-0.345-0.28-0.625-0.625-0.625z"></path>
</svg>
