<!-- Generated by IcoMoon.io -->
<svg version="1.1" xmlns="http://www.w3.org/2000/svg" width="32" height="32" viewBox="0 0 32 32">
<title>fire-alarm</title>
<path d="M31.817 0.183c-0.116-0.116-0.278-0.183-0.442-0.183s-0.326 0.067-0.442 0.183c-0.116 0.116-0.183 0.278-0.183 0.442s0.067 0.326 0.183 0.442c0.116 0.116 0.278 0.183 0.442 0.183s0.326-0.067 0.442-0.183c0.116-0.116 0.183-0.278 0.183-0.442s-0.067-0.326-0.183-0.442zM28.875 0h-28.25c-0.345 0-0.625 0.28-0.625 0.625s0.28 0.625 0.625 0.625h12.75v1.875c0 0.345 0.28 0.625 0.625 0.625h4c0.345 0 0.625-0.28 0.625-0.625v-1.875h10.25c0.345 0 0.625-0.28 0.625-0.625s-0.28-0.625-0.625-0.625zM17.375 2.5h-2.75v-1.25h2.75zM9.813 26.418c-0.131-0.319-0.496-0.472-0.815-0.341s-0.472 0.496-0.341 0.815l0.009 0.021c0.099 0.242 0.332 0.388 0.578 0.388 0.079 0 0.159-0.015 0.237-0.047 0.319-0.131 0.472-0.496 0.341-0.815zM20.447 14.769c-0.258 0.126-0.397 0.412-0.337 0.692 0.214 0.998 0.173 1.996-0.119 2.978-0.016-0.138-0.035-0.279-0.059-0.423-0.296-1.759-1.362-4.215-4.755-5.928-0.227-0.114-0.501-0.080-0.692 0.087s-0.263 0.433-0.181 0.674c1.058 3.094 0 4.039-0.7 4.665-0.572 0.511-0.973 1.060-1.252 1.59-0.465-1.053-1.274-2.168-2.684-2.853-0.194-0.094-0.422-0.082-0.605 0.032s-0.293 0.314-0.293 0.53c0 2.611-0.214 3.473-0.403 4.234-0.164 0.662-0.32 1.288-0.32 2.741 0 0.135 0.003 0.271 0.010 0.404 0.017 0.345 0.309 0.609 0.655 0.594s0.611-0.31 0.594-0.655c-0.005-0.113-0.008-0.229-0.008-0.344 0-1.3 0.131-1.828 0.283-2.439 0.175-0.704 0.369-1.487 0.424-3.392 1.442 1.247 1.679 3.22 1.717 3.737 0.002 0.105 0.009 0.17 0.010 0.184 0.034 0.332 0.322 0.578 0.657 0.56 0.334-0.019 0.593-0.297 0.589-0.631-0-0.019-0.001-0.089-0.009-0.2-0.003-0.46 0.101-1.938 1.467-3.16 1.033-0.923 1.888-2.116 1.458-4.478 1.558 1.098 2.496 2.508 2.796 4.205 0.284 1.606-0.132 2.895-0.135 2.906-0.094 0.279 0.019 0.585 0.271 0.736s0.575 0.106 0.776-0.108c0.082-0.087 1.603-1.738 1.857-4.268 1.16 1.934 1.764 4.095 1.764 6.349 0 2.574-1.405 4.827-3.488 6.032 0.247-0.508 0.385-1.078 0.385-1.679 0-0.523-0.103-1.031-0.306-1.509-0.001-0.003-0.002-0.006-0.004-0.009-0.095-0.223-0.213-0.438-0.35-0.64-0.116-0.199-0.236-0.398-0.354-0.591-0.681-1.122-1.324-2.181-1.072-3.265 0.052-0.226-0.025-0.462-0.2-0.614s-0.421-0.194-0.637-0.109c-0.97 0.38-1.743 1.219-2.158 2.078-0.62-0.523-1.256-0.6-1.297-0.605-0.221-0.024-0.439 0.070-0.571 0.249s-0.16 0.413-0.071 0.617c0.019 0.046 0.463 1.139-0.114 2.351-0.078 0.125-0.149 0.253-0.21 0.382-0.007 0.013-0.013 0.026-0.019 0.040-0.238 0.512-0.358 1.058-0.358 1.625 0 0.602 0.139 1.172 0.385 1.68-0.646-0.372-1.235-0.849-1.739-1.418-0.229-0.258-0.624-0.282-0.882-0.053s-0.282 0.624-0.053 0.882c1.559 1.76 3.8 2.77 6.15 2.77 4.529 0 8.213-3.684 8.213-8.213 0-3.24-1.132-6.304-3.274-8.858-0.184-0.22-0.495-0.286-0.753-0.16zM16.261 30.75c-1.439 0-2.61-1.171-2.61-2.61 0-0.388 0.084-0.763 0.249-1.112 0.001-0.001 0.001-0.002 0.001-0.003 0.046-0.098 0.101-0.195 0.162-0.291 0.013-0.020 0.025-0.041 0.035-0.063 0.335-0.686 0.436-1.349 0.433-1.905 0.091 0.132 0.176 0.291 0.246 0.481 0.116 0.314 0.459 0.481 0.779 0.378s0.5-0.439 0.41-0.762c-0.071-0.255 0.196-1.078 0.806-1.7 0.158 1.048 0.738 2.004 1.268 2.876 0.118 0.194 0.239 0.395 0.353 0.589 0.008 0.013 0.016 0.026 0.025 0.039 0.097 0.142 0.181 0.294 0.248 0.451 0 0.001 0.001 0.002 0.001 0.002 0.137 0.322 0.206 0.665 0.206 1.019 0 1.439-1.171 2.61-2.61 2.61zM8.012 13.782c-0.244-0.244-0.64-0.244-0.884 0l-0.724 0.724c-0.244 0.244-0.244 0.64 0 0.884 0.122 0.122 0.282 0.183 0.442 0.183s0.32-0.061 0.442-0.183l0.724-0.724c0.244-0.244 0.244-0.64 0-0.884zM4.214 15.287c0.122 0.122 0.282 0.183 0.442 0.183s0.32-0.061 0.442-0.183c0.244-0.244 0.244-0.64 0-0.884l-0.639-0.639c-0.244-0.244-0.64-0.244-0.884 0s-0.244 0.64-0 0.884zM4.232 16.678l-0.674 0.674c-0.244 0.244-0.244 0.64 0 0.884 0.122 0.122 0.282 0.183 0.442 0.183s0.32-0.061 0.442-0.183l0.674-0.674c0.244-0.244 0.244-0.64 0-0.884s-0.64-0.244-0.884 0zM24.872 13.782c-0.244-0.244-0.639-0.244-0.884 0s-0.244 0.64 0 0.884l0.724 0.724c0.122 0.122 0.282 0.183 0.442 0.183s0.32-0.061 0.442-0.183c0.244-0.244 0.244-0.64 0-0.884zM27.344 15.47c0.16 0 0.32-0.061 0.442-0.183l0.639-0.639c0.244-0.244 0.244-0.64 0-0.884s-0.64-0.244-0.884 0l-0.639 0.639c-0.244 0.244-0.244 0.64 0 0.884 0.122 0.122 0.282 0.183 0.442 0.183zM27.768 16.678c-0.244-0.244-0.64-0.244-0.884 0s-0.244 0.64 0 0.884l0.674 0.674c0.122 0.122 0.282 0.183 0.442 0.183s0.32-0.061 0.442-0.183c0.244-0.244 0.244-0.64 0-0.884zM11.801 8.115c-0.278-0.204-0.669-0.145-0.874 0.134l-0.185 0.252c-0.204 0.278-0.145 0.669 0.134 0.874 0.111 0.082 0.241 0.121 0.37 0.121 0.192 0 0.382-0.088 0.504-0.255l0.185-0.252c0.204-0.278 0.145-0.669-0.134-0.874zM13.095 6.352c-0.278-0.204-0.669-0.145-0.874 0.134l-0.185 0.252c-0.204 0.278-0.145 0.669 0.134 0.874 0.112 0.082 0.241 0.121 0.37 0.121 0.192 0 0.382-0.088 0.504-0.255l0.185-0.252c0.205-0.278 0.145-0.669-0.134-0.874zM13.465 5.848c0.111 0.082 0.241 0.121 0.369 0.121 0.192 0 0.382-0.088 0.504-0.255l0.185-0.252c0.204-0.278 0.145-0.669-0.134-0.874s-0.669-0.145-0.874 0.134l-0.185 0.252c-0.204 0.278-0.145 0.669 0.134 0.874zM10.506 9.878c-0.278-0.204-0.669-0.144-0.874 0.134l-0.185 0.252c-0.204 0.278-0.145 0.669 0.134 0.874 0.111 0.082 0.241 0.121 0.369 0.121 0.192 0 0.382-0.088 0.504-0.255l0.185-0.252c0.204-0.278 0.145-0.669-0.134-0.874zM18.485 4.725c-0.203-0.279-0.594-0.341-0.873-0.138s-0.341 0.594-0.138 0.873l0.184 0.253c0.122 0.168 0.313 0.257 0.506 0.257 0.127 0 0.256-0.039 0.367-0.12 0.279-0.203 0.341-0.594 0.138-0.873zM21.519 11.020c0.122 0.168 0.313 0.257 0.506 0.257 0.128 0 0.256-0.039 0.367-0.12 0.279-0.203 0.341-0.594 0.137-0.873l-0.184-0.253c-0.203-0.279-0.594-0.341-0.873-0.137s-0.341 0.594-0.137 0.873zM19.772 6.494c-0.203-0.279-0.594-0.341-0.873-0.138s-0.341 0.594-0.138 0.873l0.184 0.253c0.122 0.168 0.313 0.257 0.506 0.257 0.127 0 0.256-0.039 0.367-0.12 0.279-0.203 0.341-0.594 0.138-0.873zM21.059 8.262c-0.203-0.279-0.594-0.341-0.873-0.137s-0.341 0.594-0.137 0.873l0.184 0.253c0.122 0.168 0.313 0.257 0.506 0.257 0.128 0 0.256-0.039 0.367-0.12 0.279-0.203 0.341-0.594 0.137-0.873zM15.375 10.023c0 0.345 0.28 0.625 0.625 0.625s0.625-0.28 0.625-0.625v-0.313c0-0.345-0.28-0.625-0.625-0.625s-0.625 0.28-0.625 0.625zM16 6.273c0.345 0 0.625-0.28 0.625-0.625v-0.313c0-0.345-0.28-0.625-0.625-0.625s-0.625 0.28-0.625 0.625v0.313c0 0.345 0.28 0.625 0.625 0.625zM15.375 7.836c0 0.345 0.28 0.625 0.625 0.625s0.625-0.28 0.625-0.625v-0.313c0-0.345-0.28-0.625-0.625-0.625s-0.625 0.28-0.625 0.625z"></path>
</svg>
