<!-- Generated by IcoMoon.io -->
<svg version="1.1" xmlns="http://www.w3.org/2000/svg" width="32" height="32" viewBox="0 0 32 32">
<title>fountain-2</title>
<path d="M30.4 24.533h-11.815l-0.356-2.133h1.785c1.011 0.003 1.936-0.568 2.385-1.474l1.396-2.792h0.204c0.884 0 1.6-0.716 1.6-1.6-0.002-0.182-0.035-0.363-0.098-0.533h0.341c0.455 0.001 0.823 0.369 0.823 0.824v4.509h1.067v-4.509c-0.001-1.044-0.847-1.89-1.89-1.891h-7.791l-0.358-2.148c0.848-0.069 1.574-0.637 1.843-1.444l0.581-1.741h0.682c0.884 0 1.6-0.716 1.6-1.6-0.002-0.182-0.035-0.362-0.098-0.533h0.341c0.455 0.001 0.823 0.369 0.823 0.824v3.443h1.067v-3.443c-0.001-1.044-0.847-1.89-1.89-1.891h-4.8c0.189-0.978-0.298-1.962-1.191-2.404l-0.119-0.059v-1.27c0-0.884 0.716-1.6 1.6-1.6s1.6 0.716 1.6 1.6v0.533h1.067v-0.533c0.003-1.15-0.733-2.172-1.826-2.533s-2.292 0.023-2.974 0.949c-0.682-0.926-1.882-1.309-2.974-0.949s-1.829 1.382-1.826 2.533v0.533h1.067v-0.533c0-0.884 0.716-1.6 1.6-1.6s1.6 0.716 1.6 1.6v1.27l-0.118 0.059c-0.892 0.442-1.38 1.426-1.191 2.404h-4.8c-1.044 0.001-1.889 0.847-1.891 1.891v3.443h1.067v-3.443c0.001-0.455 0.369-0.823 0.824-0.824h0.341c-0.063 0.171-0.096 0.351-0.098 0.533 0 0.884 0.716 1.6 1.6 1.6h0.682l0.581 1.741c0.27 0.807 0.995 1.376 1.843 1.444l-0.358 2.148h-7.791c-1.044 0.001-1.889 0.847-1.891 1.891v4.509h1.067v-4.509c0.001-0.455 0.369-0.823 0.824-0.824h0.341c-0.063 0.171-0.096 0.351-0.098 0.533 0 0.884 0.716 1.6 1.6 1.6h0.204l1.396 2.792c0.449 0.906 1.374 1.478 2.385 1.474h1.785l-0.356 2.133h-11.815c-0.884 0-1.6 0.716-1.6 1.6s0.716 1.6 1.6 1.6h0.204l1.396 2.792c0.449 0.906 1.374 1.478 2.385 1.474h20.83c1.011 0.003 1.936-0.568 2.385-1.474l1.396-2.792h0.204c0.884 0 1.6-0.716 1.6-1.6s-0.716-1.6-1.6-1.6zM13.929 18.133l0.4 3.2h-1.124c-0.298-1.097-0.687-2.167-1.162-3.2zM15.404 21.333l-0.4-3.2h1.992l-0.4 3.2zM17.671 21.333l0.4-3.2h1.886c-0.475 1.033-0.864 2.103-1.162 3.2zM21.446 20.449c-0.269 0.544-0.824 0.886-1.431 0.884h-0.113c0.316-1.101 0.728-2.172 1.232-3.2h1.47zM15.445 11.733c-0.036-0.721-0.148-1.436-0.333-2.133h1.775c-0.185 0.697-0.297 1.412-0.333 2.133zM18.525 11.004c-0.134 0.395-0.488 0.674-0.903 0.712 0.042-0.717 0.167-1.428 0.373-2.116h0.996zM15.219 5.692c0.085-0.323 0.305-0.593 0.604-0.742l0.177-0.088 0.175 0.088c0.533 0.266 0.78 0.891 0.572 1.45h-1.493c-0.084-0.227-0.096-0.474-0.033-0.707zM10.667 8c0-0.295 0.239-0.533 0.533-0.533h9.6c0.295 0 0.533 0.239 0.533 0.533s-0.239 0.533-0.533 0.533h-9.6c-0.295 0-0.533-0.239-0.533-0.533zM13.475 11.003l-0.468-1.404h0.996c0.206 0.689 0.331 1.399 0.373 2.116-0.415-0.039-0.768-0.318-0.902-0.713zM15.385 12.8h1.23l0.355 2.133h-1.94zM7.467 16.533c0-0.295 0.239-0.533 0.533-0.533h16c0.295 0 0.533 0.239 0.533 0.533s-0.239 0.533-0.533 0.533h-16c-0.295 0-0.533-0.239-0.533-0.533zM10.554 20.449l-1.158-2.316h1.47c0.503 1.028 0.916 2.099 1.232 3.2h-0.113c-0.607 0.002-1.162-0.341-1.431-0.884zM14.852 22.4h2.296l0.355 2.133h-3.007zM4.154 30.049l-1.158-2.316h1.467l1.527 3.2h-0.406c-0.607 0.002-1.162-0.341-1.431-0.884zM26.355 27.733l-1.527 3.2h-1.622l1.146-3.2zM22.073 30.933h-1.664l0.764-3.2h2.046zM19.313 30.933h-1.642l0.4-3.2h2.005zM16.596 30.933h-1.192l-0.4-3.2h1.992zM13.929 27.733l0.4 3.2h-1.642l-0.763-3.2zM10.827 27.733l0.763 3.2h-1.664l-1.146-3.2zM7.647 27.733l1.146 3.2h-1.621l-1.527-3.2zM27.845 30.049c-0.269 0.543-0.824 0.886-1.43 0.884h-0.406l1.527-3.2h1.467zM30.4 26.666h-28.8c-0.295 0-0.533-0.239-0.533-0.533s0.239-0.533 0.533-0.533h28.8c0.295 0 0.533 0.239 0.533 0.533s-0.239 0.533-0.533 0.533zM11.2 4.266h1.067v1.067h-1.067zM7.467 12.8h1.067v1.067h-1.067zM4.267 22.4h1.067v1.067h-1.067zM19.733 4.266h1.067v1.067h-1.067zM23.467 12.8h1.067v1.067h-1.067zM26.667 22.4h1.067v1.067h-1.067z"></path>
</svg>
