<!-- Generated by IcoMoon.io -->
<svg version="1.1" xmlns="http://www.w3.org/2000/svg" width="32" height="32" viewBox="0 0 32 32">
<title>decor-2</title>
<path d="M26.242 8.486c2.111-0.251 3.753-2.050 3.753-4.227 0-2.348-1.91-4.258-4.258-4.258h-19.473c-2.348 0-4.258 1.91-4.258 4.258 0 2.177 1.642 3.977 3.753 4.227v5.154c-0.777 0.221-1.347 0.936-1.347 1.782s0.571 1.561 1.347 1.782v14.291c0 0.279 0.226 0.505 0.505 0.505s0.505-0.226 0.505-0.505v-14.22h18.462v14.22c0 0.279 0.226 0.505 0.505 0.505s0.505-0.226 0.505-0.505v-14.291c0.777-0.221 1.347-0.936 1.347-1.782s-0.571-1.561-1.347-1.782v-5.154zM3.016 4.258c0-1.791 1.457-3.248 3.248-3.248h19.473c1.791 0 3.248 1.457 3.248 3.248s-1.457 3.248-3.248 3.248-3.248-1.457-3.248-3.248c0-0.529 0.123-1.033 0.366-1.499 0.129-0.247 0.033-0.553-0.215-0.682s-0.553-0.033-0.682 0.215c-0.314 0.602-0.48 1.282-0.48 1.966 0 2.177 1.642 3.977 3.753 4.227v2.389h-14.925c-0.279 0-0.505 0.226-0.505 0.505s0.226 0.505 0.505 0.505h14.925v1.684h-18.462v-1.684h1.516c0.279 0 0.505-0.226 0.505-0.505s-0.226-0.505-0.505-0.505h-1.516v-2.389c2.111-0.251 3.753-2.050 3.753-4.227 0-0.683-0.166-1.363-0.48-1.966-0.129-0.247-0.434-0.344-0.682-0.215s-0.344 0.434-0.215 0.682c0.243 0.465 0.366 0.97 0.366 1.499 0 1.791-1.457 3.248-3.248 3.248s-3.248-1.457-3.248-3.248zM26.578 15.422c0 0.464-0.378 0.842-0.842 0.842h-19.473c-0.464 0-0.842-0.378-0.842-0.842s0.378-0.842 0.842-0.842h19.473c0.464 0 0.842 0.378 0.842 0.842zM10.458 18.959c-1.022 0-1.853 0.831-1.853 1.853v10.683c0 0.279 0.226 0.505 0.505 0.505s0.505-0.226 0.505-0.505v-10.683c0-0.464 0.378-0.842 0.842-0.842s0.842 0.378 0.842 0.842v10.683c0 0.279 0.226 0.505 0.505 0.505s0.505-0.226 0.505-0.505v-10.683c0-1.022-0.831-1.853-1.853-1.853zM16 18.959c-1.022 0-1.853 0.831-1.853 1.853v10.683c0 0.279 0.226 0.505 0.505 0.505s0.505-0.226 0.505-0.505v-10.683c0-0.464 0.378-0.842 0.842-0.842s0.842 0.378 0.842 0.842v10.683c0 0.279 0.226 0.505 0.505 0.505s0.505-0.226 0.505-0.505v-10.683c0-1.022-0.831-1.853-1.853-1.853zM21.542 18.959c-1.022 0-1.853 0.831-1.853 1.853v10.683c0 0.279 0.226 0.505 0.505 0.505s0.505-0.226 0.505-0.505v-10.683c0-0.464 0.378-0.842 0.842-0.842s0.842 0.378 0.842 0.842v2.021c0 0.279 0.226 0.505 0.505 0.505s0.505-0.226 0.505-0.505v-2.021c0-1.022-0.831-1.853-1.853-1.853zM22.889 24.348c-0.279 0-0.505 0.226-0.505 0.505v6.641c0 0.279 0.226 0.505 0.505 0.505s0.505-0.226 0.505-0.505v-6.641c0-0.279-0.226-0.505-0.505-0.505zM8.501 4.258c0-0.279-0.226-0.505-0.505-0.505s-0.505 0.226-0.505 0.505c0 0.676-0.55 1.227-1.227 1.227s-1.227-0.55-1.227-1.227 0.55-1.227 1.227-1.227c0.279 0 0.505-0.226 0.505-0.505s-0.226-0.505-0.505-0.505c-1.234 0-2.237 1.004-2.237 2.237s1.004 2.237 2.237 2.237 2.237-1.004 2.237-2.237zM25.736 6.496c1.234 0 2.237-1.004 2.237-2.237s-1.004-2.237-2.237-2.237c-0.279 0-0.505 0.226-0.505 0.505s0.226 0.505 0.505 0.505c0.677 0 1.227 0.55 1.227 1.227s-0.55 1.227-1.227 1.227-1.227-0.55-1.227-1.227c0-0.279-0.226-0.505-0.505-0.505s-0.505 0.226-0.505 0.505c0 1.234 1.004 2.237 2.237 2.237zM12.038 4.764h7.924c0.279 0 0.505-0.226 0.505-0.505s-0.226-0.505-0.505-0.505h-7.924c-0.279 0-0.505 0.226-0.505 0.505s0.226 0.505 0.505 0.505z"></path>
</svg>
