<!-- Generated by IcoMoon.io -->
<svg version="1.1" xmlns="http://www.w3.org/2000/svg" width="32" height="32" viewBox="0 0 32 32">
<title>garage</title>
<path d="M31.289 9.081l-2.992-1.493c-0.226-0.112-0.499-0.021-0.612 0.205s-0.021 0.499 0.205 0.612l2.992 1.493c0.127 0.063 0.206 0.191 0.206 0.332v1.515c0 0.187-0.123 0.283-0.176 0.316-0.036 0.022-0.113 0.060-0.211 0.056-0.001-0-0.003-0-0.004-0-0.024-0.001-0.048-0.005-0.072-0.012-0.001-0-0.002-0.001-0.003-0.001-0.010-0.003-0.020-0.006-0.030-0.010-0.002-0.001-0.004-0.001-0.006-0.002-0.011-0.004-0.021-0.009-0.032-0.014-0.001-0-0.002-0.001-0.002-0.001l-14.049-7.008c-0.314-0.157-0.689-0.157-1.002 0l-14.049 7.008c-0.001 0-0.002 0.001-0.002 0.001-0.010 0.005-0.021 0.010-0.032 0.014-0.002 0.001-0.004 0.001-0.006 0.002-0.010 0.004-0.020 0.007-0.031 0.010-0.001 0-0.002 0.001-0.003 0.001-0.024 0.006-0.048 0.010-0.072 0.012-0.001 0-0.003 0-0.004 0-0.098 0.004-0.175-0.034-0.211-0.056-0.053-0.033-0.176-0.129-0.176-0.316v-1.515c0-0.142 0.079-0.269 0.206-0.332l14.788-7.376c0.059-0.029 0.129-0.029 0.188 0l9.118 4.548c0.225 0.112 0.499 0.021 0.612-0.205s0.021-0.499-0.205-0.612l-9.118-4.548c-0.314-0.157-0.688-0.157-1.002 0l-14.788 7.376c-0.438 0.219-0.711 0.659-0.711 1.149v1.515c0 0.448 0.227 0.856 0.608 1.092 0.085 0.052 0.173 0.093 0.265 0.124v16.674c0 0.428 0.349 0.777 0.777 0.777h0.966c0.428 0 0.777-0.349 0.777-0.777v-17.508l12.513-6.241c0.059-0.029 0.129-0.029 0.188 0l12.513 6.241v17.508c0 0.428 0.349 0.777 0.777 0.777h0.966c0.428 0 0.777-0.349 0.777-0.777v-16.674c0.091-0.031 0.18-0.072 0.265-0.125 0.381-0.236 0.608-0.644 0.608-1.092v-1.515c0-0.49-0.272-0.93-0.711-1.149zM2.481 29.5h-0.696v-16.573c0.024-0.010 0.048-0.021 0.071-0.033h0l0.624-0.311v16.918zM30.215 29.5h-0.696v-16.918l0.624 0.311c0.009 0.004 0.017 0.008 0.026 0.012 0.015 0.007 0.029 0.014 0.044 0.020 0.001 0 0.001 0.001 0.002 0.001v16.573zM27.098 18.325h-1.307c-0.208 0-0.401 0.065-0.561 0.175l-1.138-3.587c-0.263-0.828-1.023-1.384-1.892-1.384h-12.4c-0.869 0-1.629 0.556-1.892 1.384l-1.136 3.58c-0.158-0.106-0.347-0.168-0.551-0.168h-1.307c-0.546 0-0.991 0.445-0.991 0.991v0.657c0 0.546 0.444 0.991 0.991 0.991h0.5c-0.274 0.457-0.431 0.992-0.431 1.563v3.492c0 0.726 0.473 1.344 1.127 1.562v1.444c0 0.765 0.623 1.388 1.388 1.388h1.381c0.765 0 1.388-0.623 1.388-1.388v-1.36h11.465v1.36c0 0.765 0.623 1.388 1.388 1.388h1.381c0.765 0 1.388-0.623 1.388-1.388v-1.444c0.654-0.218 1.127-0.835 1.127-1.562v-3.492c0-0.571-0.158-1.105-0.431-1.563h0.513c0.546 0 0.991-0.445 0.991-0.991v-0.657c0-0.546-0.444-0.991-0.991-0.991zM8.778 15.189c0.142-0.447 0.553-0.748 1.022-0.748h12.4c0.469 0 0.88 0.301 1.022 0.748l1.381 4.352c-0.033-0.007-0.066-0.013-0.1-0.019-0.011-0.002-0.021-0.004-0.032-0.006-0.031-0.005-0.062-0.010-0.093-0.014-0.018-0.003-0.036-0.005-0.054-0.007-0.026-0.003-0.053-0.006-0.079-0.009s-0.052-0.004-0.078-0.006c-0.020-0.001-0.040-0.003-0.061-0.004-0.048-0.002-0.096-0.004-0.143-0.004h-15.926c-0.048 0-0.096 0.001-0.144 0.004-0.020 0.001-0.040 0.003-0.061 0.004-0.026 0.002-0.052 0.004-0.078 0.006s-0.053 0.006-0.079 0.009c-0.018 0.002-0.036 0.004-0.054 0.007-0.031 0.004-0.062 0.009-0.093 0.014-0.011 0.002-0.022 0.004-0.033 0.006-0.033 0.006-0.066 0.012-0.099 0.019l1.381-4.352zM7.606 20.428c0 0 0-0 0-0 0.028-0.006 0.056-0.011 0.084-0.015 0.013-0.002 0.027-0.004 0.040-0.006 0.023-0.003 0.045-0.006 0.068-0.009 0.022-0.002 0.043-0.004 0.065-0.006 0.017-0.001 0.034-0.003 0.051-0.004 0.040-0.002 0.081-0.004 0.122-0.004h15.926c0.041 0 0.081 0.002 0.122 0.004 0.017 0.001 0.034 0.003 0.051 0.004 0.022 0.002 0.044 0.004 0.066 0.006 0.023 0.003 0.046 0.005 0.068 0.009 0.014 0.002 0.027 0.004 0.040 0.006 0.028 0.005 0.056 0.009 0.084 0.015 0 0 0 0 0.001 0 0.207 0.043 0.403 0.115 0.584 0.213-0.724 0.993-1.889 1.595-3.132 1.595h-11.693c-1.243 0-2.408-0.602-3.132-1.595 0.181-0.098 0.377-0.17 0.584-0.213zM4.914 20.052c-0.043 0-0.079-0.035-0.079-0.079v-0.657c0-0.043 0.035-0.079 0.079-0.079h1.307c0.043 0 0.079 0.035 0.079 0.079v0.657c0 0.009-0.002 0.016-0.005 0.024l-0.003 0.009c-0.013 0.027-0.039 0.046-0.071 0.046h-1.307zM8.88 29.5h-1.381c-0.262 0-0.476-0.213-0.476-0.476v-1.36h2.333v1.36h0c0 0.262-0.213 0.476-0.476 0.476zM24.501 29.5h-1.381c-0.262 0-0.476-0.213-0.476-0.476v-1.36h2.333v1.36h0c0 0.262-0.213 0.476-0.476 0.476zM26.105 26.019v0c-0 0.388-0.303 0.706-0.684 0.731-0.003 0-0.007-0-0.011 0l-0.028 0.002-18.792-0.002c-0.004-0-0.007 0-0.011 0-0.381-0.026-0.684-0.344-0.684-0.731v-3.492c0-0.484 0.161-0.93 0.433-1.289 0.897 1.192 2.314 1.912 3.825 1.912h11.693c1.511 0 2.928-0.72 3.825-1.912 0.272 0.359 0.433 0.806 0.433 1.289v3.492zM27.177 19.973c0 0.043-0.035 0.079-0.079 0.079h-1.307c-0.043 0-0.079-0.035-0.079-0.079v-0.657c0-0.043 0.035-0.079 0.079-0.079h1.307c0.043 0 0.079 0.035 0.079 0.079v0.657zM10.2 25.178l-0.325-1.12c-0.073-0.251-0.275-0.448-0.528-0.514l-1.99-0.52c-0.242-0.063-0.497-0.002-0.684 0.164s-0.278 0.412-0.244 0.659l0.151 1.107c0.042 0.305 0.262 0.55 0.561 0.624l2.164 0.534c0.059 0.015 0.118 0.022 0.178 0.022 0.201 0 0.397-0.081 0.539-0.229 0.184-0.192 0.252-0.47 0.178-0.725zM7.468 24.718l-0.102-0.749 1.659 0.434 0.219 0.753-1.776-0.438zM25.326 23.187c-0.187-0.166-0.442-0.227-0.684-0.164l-1.99 0.52c-0.253 0.066-0.455 0.263-0.528 0.514l-0.325 1.12c-0.074 0.255-0.006 0.533 0.178 0.725 0.142 0.148 0.338 0.229 0.539 0.229 0.059 0 0.119-0.007 0.178-0.022l2.164-0.534c0.299-0.074 0.519-0.319 0.561-0.624l0.151-1.107c0.034-0.247-0.058-0.494-0.244-0.659zM24.531 24.718l-1.776 0.438 0.219-0.753 1.659-0.434-0.102 0.749zM21.149 23.734h-5.714c-0.252 0-0.456 0.204-0.456 0.456s0.204 0.456 0.456 0.456h5.714c0.252 0 0.456-0.204 0.456-0.456s-0.204-0.456-0.456-0.456zM12.427 23.734h-1.627c-0.252 0-0.456 0.204-0.456 0.456s0.204 0.456 0.456 0.456h1.627c0.252 0 0.456-0.204 0.456-0.456s-0.204-0.456-0.456-0.456zM20.872 25.111h-9.743c-0.252 0-0.456 0.204-0.456 0.456s0.204 0.456 0.456 0.456h9.744c0.252 0 0.456-0.204 0.456-0.456s-0.204-0.456-0.456-0.456z"></path>
</svg>
