<!-- Generated by IcoMoon.io -->
<svg version="1.1" xmlns="http://www.w3.org/2000/svg" width="32" height="32" viewBox="0 0 32 32">
<title>garbage1</title>
<path d="M28.075 5.77c0-1.184-0.964-2.148-2.148-2.148h-5.701v-1.811c0-0.999-0.813-1.811-1.811-1.811h-4.83c-0.999 0-1.811 0.813-1.811 1.811v1.811h-5.701c-1.184 0-2.148 0.964-2.148 2.148v2.683h1.208v21.296c0 1.241 1.010 2.251 2.251 2.251h17.232c1.242 0 2.251-1.010 2.251-2.251v-21.296h1.208v-2.683zM12.981 1.811c0-0.333 0.271-0.604 0.604-0.604h4.83c0.333 0 0.604 0.27 0.604 0.604v1.811h-6.038v-1.811zM25.66 29.749c0 0.576-0.469 1.044-1.044 1.044h-17.233c-0.576 0-1.044-0.468-1.044-1.044v-21.296h19.321v21.296zM26.868 7.245h-21.736v-1.475c0-0.519 0.421-0.94 0.94-0.94h19.856c0.519 0 0.94 0.421 0.94 0.94v1.475zM9.358 12.679c0 0.333-0.27 0.604-0.604 0.604s-0.604-0.27-0.604-0.604c0-0.333 0.27-0.604 0.604-0.604s0.604 0.27 0.604 0.604zM9.358 16.302c0 0.333-0.27 0.604-0.604 0.604s-0.604-0.27-0.604-0.604c0-0.333 0.27-0.604 0.604-0.604s0.604 0.27 0.604 0.604zM11.17 10.868c0 0.333-0.27 0.604-0.604 0.604s-0.604-0.27-0.604-0.604c0-0.333 0.27-0.604 0.604-0.604s0.604 0.27 0.604 0.604zM14.792 10.868c0 0.333-0.27 0.604-0.604 0.604s-0.604-0.27-0.604-0.604c0-0.333 0.27-0.604 0.604-0.604s0.604 0.27 0.604 0.604zM11.17 14.491c0 0.333-0.27 0.604-0.604 0.604s-0.604-0.27-0.604-0.604c0-0.333 0.27-0.604 0.604-0.604s0.604 0.27 0.604 0.604zM14.792 14.491c0 0.333-0.27 0.604-0.604 0.604s-0.604-0.27-0.604-0.604c0-0.333 0.27-0.604 0.604-0.604s0.604 0.27 0.604 0.604zM12.981 12.679c0 0.333-0.27 0.604-0.604 0.604s-0.604-0.27-0.604-0.604c0-0.333 0.27-0.604 0.604-0.604s0.604 0.27 0.604 0.604zM16.604 12.679c0 0.333-0.27 0.604-0.604 0.604s-0.604-0.27-0.604-0.604c0-0.333 0.27-0.604 0.604-0.604s0.604 0.27 0.604 0.604zM12.981 16.302c0 0.333-0.27 0.604-0.604 0.604s-0.604-0.27-0.604-0.604c0-0.333 0.27-0.604 0.604-0.604s0.604 0.27 0.604 0.604zM16.604 16.302c0 0.333-0.27 0.604-0.604 0.604s-0.604-0.27-0.604-0.604c0-0.333 0.27-0.604 0.604-0.604s0.604 0.27 0.604 0.604zM18.415 10.868c0 0.333-0.27 0.604-0.604 0.604s-0.604-0.27-0.604-0.604c0-0.333 0.27-0.604 0.604-0.604s0.604 0.27 0.604 0.604zM22.038 10.868c0 0.333-0.27 0.604-0.604 0.604s-0.604-0.27-0.604-0.604c0-0.333 0.27-0.604 0.604-0.604s0.604 0.27 0.604 0.604zM18.415 14.491c0 0.333-0.27 0.604-0.604 0.604s-0.604-0.27-0.604-0.604c0-0.333 0.27-0.604 0.604-0.604s0.604 0.27 0.604 0.604zM22.038 14.491c0 0.333-0.27 0.604-0.604 0.604s-0.604-0.27-0.604-0.604c0-0.333 0.27-0.604 0.604-0.604s0.604 0.27 0.604 0.604zM20.226 12.679c0 0.333-0.27 0.604-0.604 0.604s-0.604-0.27-0.604-0.604c0-0.333 0.27-0.604 0.604-0.604s0.604 0.27 0.604 0.604zM23.849 12.679c0 0.333-0.27 0.604-0.604 0.604s-0.604-0.27-0.604-0.604c0-0.333 0.27-0.604 0.604-0.604s0.604 0.27 0.604 0.604zM20.226 16.302c0 0.333-0.27 0.604-0.604 0.604s-0.604-0.27-0.604-0.604c0-0.333 0.27-0.604 0.604-0.604s0.604 0.27 0.604 0.604zM23.849 16.302c0 0.333-0.27 0.604-0.604 0.604s-0.604-0.27-0.604-0.604c0-0.333 0.27-0.604 0.604-0.604s0.604 0.27 0.604 0.604zM9.358 19.925c0 0.333-0.27 0.604-0.604 0.604s-0.604-0.27-0.604-0.604c0-0.333 0.27-0.604 0.604-0.604s0.604 0.27 0.604 0.604zM9.358 23.547c0 0.333-0.27 0.604-0.604 0.604s-0.604-0.27-0.604-0.604c0-0.333 0.27-0.604 0.604-0.604s0.604 0.27 0.604 0.604zM11.17 18.113c0 0.333-0.27 0.604-0.604 0.604s-0.604-0.27-0.604-0.604c0-0.333 0.27-0.604 0.604-0.604s0.604 0.27 0.604 0.604zM14.792 18.113c0 0.333-0.27 0.604-0.604 0.604s-0.604-0.27-0.604-0.604c0-0.333 0.27-0.604 0.604-0.604s0.604 0.27 0.604 0.604zM11.17 21.736c0 0.333-0.27 0.604-0.604 0.604s-0.604-0.27-0.604-0.604c0-0.333 0.27-0.604 0.604-0.604s0.604 0.27 0.604 0.604zM14.792 21.736c0 0.333-0.27 0.604-0.604 0.604s-0.604-0.27-0.604-0.604c0-0.333 0.27-0.604 0.604-0.604s0.604 0.27 0.604 0.604zM12.981 19.925c0 0.333-0.27 0.604-0.604 0.604s-0.604-0.27-0.604-0.604c0-0.333 0.27-0.604 0.604-0.604s0.604 0.27 0.604 0.604zM16.604 19.925c0 0.333-0.27 0.604-0.604 0.604s-0.604-0.27-0.604-0.604c0-0.333 0.27-0.604 0.604-0.604s0.604 0.27 0.604 0.604zM12.981 23.547c0 0.333-0.27 0.604-0.604 0.604s-0.604-0.27-0.604-0.604c0-0.333 0.27-0.604 0.604-0.604s0.604 0.27 0.604 0.604zM16.604 23.547c0 0.333-0.27 0.604-0.604 0.604s-0.604-0.27-0.604-0.604c0-0.333 0.27-0.604 0.604-0.604s0.604 0.27 0.604 0.604zM18.415 18.113c0 0.333-0.27 0.604-0.604 0.604s-0.604-0.27-0.604-0.604c0-0.333 0.27-0.604 0.604-0.604s0.604 0.27 0.604 0.604zM22.038 18.113c0 0.333-0.27 0.604-0.604 0.604s-0.604-0.27-0.604-0.604c0-0.333 0.27-0.604 0.604-0.604s0.604 0.27 0.604 0.604zM18.415 21.736c0 0.333-0.27 0.604-0.604 0.604s-0.604-0.27-0.604-0.604c0-0.333 0.27-0.604 0.604-0.604s0.604 0.27 0.604 0.604zM22.038 21.736c0 0.333-0.27 0.604-0.604 0.604s-0.604-0.27-0.604-0.604c0-0.333 0.27-0.604 0.604-0.604s0.604 0.27 0.604 0.604zM20.226 19.925c0 0.333-0.27 0.604-0.604 0.604s-0.604-0.27-0.604-0.604c0-0.333 0.27-0.604 0.604-0.604s0.604 0.27 0.604 0.604zM23.849 19.925c0 0.333-0.27 0.604-0.604 0.604s-0.604-0.27-0.604-0.604c0-0.333 0.27-0.604 0.604-0.604s0.604 0.27 0.604 0.604zM20.226 23.547c0 0.333-0.27 0.604-0.604 0.604s-0.604-0.27-0.604-0.604c0-0.333 0.27-0.604 0.604-0.604s0.604 0.27 0.604 0.604zM23.849 23.547c0 0.333-0.27 0.604-0.604 0.604s-0.604-0.27-0.604-0.604c0-0.333 0.27-0.604 0.604-0.604s0.604 0.27 0.604 0.604zM9.358 27.17c0 0.333-0.27 0.604-0.604 0.604s-0.604-0.27-0.604-0.604c0-0.333 0.27-0.604 0.604-0.604s0.604 0.27 0.604 0.604zM11.17 25.358c0 0.333-0.27 0.604-0.604 0.604s-0.604-0.27-0.604-0.604c0-0.333 0.27-0.604 0.604-0.604s0.604 0.27 0.604 0.604zM14.792 25.358c0 0.333-0.27 0.604-0.604 0.604s-0.604-0.27-0.604-0.604c0-0.333 0.27-0.604 0.604-0.604s0.604 0.27 0.604 0.604zM11.17 28.981c0 0.333-0.27 0.604-0.604 0.604s-0.604-0.27-0.604-0.604c0-0.333 0.27-0.604 0.604-0.604s0.604 0.27 0.604 0.604zM14.792 28.981c0 0.333-0.27 0.604-0.604 0.604s-0.604-0.27-0.604-0.604c0-0.333 0.27-0.604 0.604-0.604s0.604 0.27 0.604 0.604zM12.981 27.17c0 0.333-0.27 0.604-0.604 0.604s-0.604-0.27-0.604-0.604c0-0.333 0.27-0.604 0.604-0.604s0.604 0.27 0.604 0.604zM16.604 27.17c0 0.333-0.27 0.604-0.604 0.604s-0.604-0.27-0.604-0.604c0-0.333 0.27-0.604 0.604-0.604s0.604 0.27 0.604 0.604zM18.415 25.358c0 0.333-0.27 0.604-0.604 0.604s-0.604-0.27-0.604-0.604c0-0.333 0.27-0.604 0.604-0.604s0.604 0.27 0.604 0.604zM22.038 25.358c0 0.333-0.27 0.604-0.604 0.604s-0.604-0.27-0.604-0.604c0-0.333 0.27-0.604 0.604-0.604s0.604 0.27 0.604 0.604zM18.415 28.981c0 0.333-0.27 0.604-0.604 0.604s-0.604-0.27-0.604-0.604c0-0.333 0.27-0.604 0.604-0.604s0.604 0.27 0.604 0.604zM22.038 28.981c0 0.333-0.27 0.604-0.604 0.604s-0.604-0.27-0.604-0.604c0-0.333 0.27-0.604 0.604-0.604s0.604 0.27 0.604 0.604zM20.226 27.17c0 0.333-0.27 0.604-0.604 0.604s-0.604-0.27-0.604-0.604c0-0.333 0.27-0.604 0.604-0.604s0.604 0.27 0.604 0.604zM23.849 27.17c0 0.333-0.27 0.604-0.604 0.604s-0.604-0.27-0.604-0.604c0-0.333 0.27-0.604 0.604-0.604s0.604 0.27 0.604 0.604z"></path>
</svg>
