<!-- Generated by IcoMoon.io -->
<svg version="1.1" xmlns="http://www.w3.org/2000/svg" width="32" height="32" viewBox="0 0 32 32">
<title>garden</title>
<path d="M31.458 27.564h-6.826v-3.237c1.491-0.201 2.812-1.131 3.58-2.543 1.021-0.233 1.948-0.824 2.634-1.684 0.745-0.934 1.155-2.127 1.155-3.36 0-1.876-0.96-3.611-2.471-4.513-0.157-3.128-2.569-5.622-5.505-5.622-0.924 0-1.839 0.252-2.645 0.728-0.251 0.148-0.334 0.471-0.186 0.722s0.471 0.334 0.722 0.186c0.644-0.38 1.373-0.581 2.109-0.581 2.454 0 4.454 2.191 4.459 4.884 0 0.198 0.112 0.38 0.289 0.47 1.321 0.668 2.174 2.131 2.174 3.727 0 2.014-1.364 3.758-3.172 4.056-0.169 0.028-0.314 0.137-0.389 0.291-0.566 1.173-1.588 1.966-2.753 2.172v-4.665l2.595-2.386c0.214-0.197 0.228-0.531 0.031-0.745s-0.531-0.228-0.745-0.031l-1.881 1.73v-3.52c0-0.291-0.236-0.527-0.527-0.527s-0.527 0.236-0.527 0.527v6.381l-1.881-1.73c-0.214-0.197-0.548-0.183-0.745 0.031s-0.183 0.548 0.031 0.745l2.595 2.386v1.828c-1.243-0.16-2.34-0.983-2.928-2.228-0.070-0.149-0.206-0.256-0.367-0.29-1.75-0.372-3.019-2.065-3.019-4.026 0-1.546 0.78-2.946 2.035-3.653 0.168-0.095 0.271-0.273 0.269-0.466-0-0.015-0.001-0.029-0.001-0.044-0-0.008-0.001-0.017-0.001-0.025 0-1.098 0.324-2.136 0.937-3.001 0.168-0.238 0.112-0.567-0.125-0.735s-0.567-0.112-0.735 0.125c-0.699 0.985-1.086 2.152-1.128 3.388-1.43 0.932-2.306 2.593-2.306 4.41 0 2.363 1.5 4.421 3.602 4.996 0.791 1.49 2.191 2.455 3.766 2.609v3.218h-0.334c-0.078-1.38-1.021-2.58-2.334-2.985-0.412-0.877-1.213-1.513-2.154-1.719-0.309-1.403-1.571-2.449-3.043-2.449-1.135 0-2.164 0.61-2.712 1.581-1.080 0.041-2.051 0.618-2.609 1.512-0.348-0.956-1.238-1.653-2.281-1.728v-1.386c1.423-0.198 2.684-1.088 3.42-2.435 0.978-0.226 1.867-0.794 2.524-1.618 0.716-0.898 1.111-2.045 1.111-3.23 0-1.799-0.919-3.465-2.367-4.334-0.157-3.001-2.473-5.391-5.292-5.391-1.082 0-2.122 0.349-3.009 1.009-0.234 0.174-0.282 0.504-0.108 0.738s0.504 0.282 0.738 0.108c0.703-0.524 1.526-0.8 2.379-0.8 2.337 0 4.242 2.087 4.246 4.653 0 0.198 0.112 0.38 0.289 0.47 1.257 0.636 2.069 2.029 2.069 3.548 0 1.917-1.298 3.577-3.018 3.861-0.169 0.028-0.315 0.137-0.389 0.291-0.534 1.108-1.495 1.859-2.593 2.063v-4.43l2.477-2.278c0.214-0.197 0.228-0.531 0.031-0.745s-0.531-0.228-0.745-0.031l-1.763 1.621v-3.318c0-0.291-0.236-0.527-0.527-0.527s-0.527 0.236-0.527 0.527v6.058l-1.763-1.621c-0.214-0.197-0.548-0.183-0.745 0.031s-0.183 0.548 0.031 0.745l2.477 2.278v1.715c-1.172-0.16-2.204-0.94-2.76-2.117-0.070-0.149-0.206-0.256-0.367-0.29-1.665-0.354-2.873-1.966-2.873-3.833 0-1.473 0.742-2.805 1.937-3.477 0.168-0.095 0.271-0.273 0.269-0.466-0-0.014-0.001-0.028-0.001-0.043-0-0.008-0.001-0.015-0.001-0.023 0-0.652 0.12-1.283 0.357-1.874 0.071-0.176 0.152-0.348 0.241-0.513 0.139-0.256 0.045-0.576-0.211-0.715s-0.576-0.045-0.715 0.211c-0.109 0.201-0.208 0.411-0.294 0.625-0.26 0.648-0.404 1.334-0.429 2.041-1.369 0.898-2.208 2.492-2.208 4.234 0 2.269 1.439 4.245 3.456 4.803 0.759 1.422 2.094 2.345 3.599 2.499v1.508c-0.577 0.202-1.071 0.6-1.389 1.136-1.28 0.073-2.315 1.018-2.515 2.266-0.944 0.419-1.646 1.251-1.905 2.246h-0.719c-0.291 0-0.527 0.236-0.527 0.527s0.236 0.527 0.527 0.527h30.93c0.291 0 0.527-0.236 0.527-0.527s-0.236-0.527-0.527-0.527zM2.352 27.564c0.252-0.641 0.781-1.151 1.455-1.37 0.212-0.069 0.358-0.263 0.365-0.486 0.027-0.901 0.753-1.606 1.655-1.606 0.036 0 0.076 0.002 0.124 0.005 0.226 0.016 0.437-0.113 0.525-0.322 0.246-0.585 0.814-0.962 1.448-0.962 0.814 0 1.501 0.635 1.565 1.446 0.020 0.259 0.226 0.464 0.485 0.485 0.144 0.011 0.283 0.043 0.414 0.091 0.001 0 0.001 0 0.002 0.001 0.024 0.009 0.049 0.019 0.072 0.029 0.005 0.002 0.010 0.004 0.015 0.007 0.022 0.010 0.044 0.020 0.066 0.031 0.007 0.004 0.015 0.008 0.022 0.011 0.030 0.015 0.059 0.032 0.088 0.049 0.016 0.009 0.032 0.019 0.047 0.029 0.012 0.008 0.023 0.016 0.034 0.023 0.017 0.012 0.034 0.024 0.051 0.036 0.010 0.007 0.019 0.014 0.028 0.022 0.020 0.016 0.040 0.032 0.060 0.049 0.005 0.005 0.011 0.009 0.016 0.014 0.052 0.046 0.101 0.096 0.146 0.148 0.004 0.005 0.008 0.010 0.012 0.015 0.019 0.023 0.038 0.046 0.056 0.070 0.003 0.005 0.007 0.009 0.010 0.014 0.041 0.056 0.078 0.114 0.112 0.176 0.004 0.008 0.009 0.016 0.013 0.025 0.012 0.023 0.023 0.046 0.034 0.069 0.004 0.009 0.009 0.018 0.013 0.028 0.013 0.030 0.026 0.061 0.037 0.093 0 0.001 0.001 0.002 0.001 0.003 0.062 0.171 0.207 0.298 0.385 0.336 0.047 0.010 0.093 0.023 0.139 0.036 0.015 0.005 0.029 0.010 0.044 0.015 0.030 0.010 0.060 0.020 0.090 0.032 0.017 0.007 0.034 0.015 0.050 0.022 0.026 0.012 0.053 0.023 0.078 0.036 0.017 0.009 0.034 0.018 0.051 0.027 0.024 0.013 0.048 0.027 0.072 0.041 0.017 0.010 0.033 0.020 0.049 0.031 0.023 0.015 0.045 0.030 0.067 0.046 0.016 0.011 0.031 0.023 0.046 0.034 0.022 0.017 0.043 0.034 0.064 0.052 0.014 0.012 0.029 0.024 0.042 0.037 0.021 0.020 0.042 0.040 0.062 0.060 0.012 0.012 0.025 0.024 0.036 0.036 0.023 0.024 0.045 0.050 0.066 0.076 0.008 0.010 0.017 0.019 0.024 0.028 0.029 0.036 0.056 0.073 0.082 0.111 0.005 0.008 0.010 0.016 0.015 0.024 0.020 0.030 0.039 0.061 0.057 0.093 0.008 0.014 0.015 0.029 0.023 0.044 0.014 0.026 0.028 0.052 0.040 0.079 0.008 0.017 0.015 0.034 0.022 0.051 0.011 0.026 0.022 0.051 0.032 0.078 0.007 0.018 0.013 0.036 0.019 0.054 0.009 0.026 0.017 0.052 0.025 0.079 0.005 0.019 0.010 0.038 0.015 0.057 0.007 0.027 0.013 0.054 0.018 0.081 0.004 0.019 0.008 0.038 0.011 0.057 0.002 0.009 0.002 0.018 0.004 0.027h-10.703zM14.118 27.564v-0c-0-0.005-0.002-0.010-0.002-0.015-0.006-0.063-0.014-0.125-0.024-0.187-0.001-0.004-0.001-0.007-0.002-0.011-0.011-0.063-0.024-0.125-0.039-0.187-0.001-0.003-0.001-0.005-0.002-0.008-0.015-0.061-0.033-0.122-0.052-0.181-0.002-0.006-0.004-0.013-0.006-0.019-0.019-0.057-0.040-0.114-0.062-0.17-0.003-0.008-0.006-0.016-0.010-0.024-0.023-0.055-0.047-0.108-0.073-0.161-0.004-0.008-0.008-0.017-0.012-0.025-0.026-0.053-0.054-0.104-0.084-0.155-0.005-0.008-0.009-0.015-0.014-0.023-0.030-0.051-0.062-0.101-0.096-0.151-0.004-0.006-0.008-0.012-0.012-0.018-0.035-0.050-0.071-0.1-0.109-0.148-0.002-0.003-0.005-0.006-0.007-0.009-0.040-0.050-0.081-0.098-0.124-0.145-0.001-0-0.001-0.001-0.001-0.002-0.043-0.046-0.087-0.091-0.133-0.135-0.004-0.004-0.008-0.008-0.012-0.012-0.044-0.041-0.090-0.081-0.136-0.12-0.006-0.005-0.012-0.010-0.019-0.016-0.046-0.037-0.093-0.073-0.142-0.107-0.008-0.005-0.015-0.011-0.023-0.016-0.048-0.034-0.098-0.066-0.149-0.096-0.008-0.005-0.016-0.009-0.024-0.014-0.051-0.030-0.104-0.059-0.157-0.086-0.007-0.004-0.015-0.007-0.022-0.011-0.055-0.027-0.111-0.053-0.168-0.077-0.005-0.002-0.010-0.004-0.015-0.006-0.060-0.024-0.12-0.047-0.182-0.067-0-0-0-0-0.001-0-0.003-0.005-0.006-0.011-0.008-0.016-0.021-0.043-0.044-0.085-0.067-0.126-0.012-0.021-0.025-0.042-0.037-0.062-0.015-0.025-0.030-0.050-0.046-0.074s-0.031-0.047-0.047-0.070c-0.014-0.020-0.028-0.040-0.043-0.059-0.018-0.025-0.037-0.049-0.056-0.073-0.011-0.014-0.023-0.028-0.035-0.041-0.044-0.053-0.091-0.105-0.139-0.155-0.008-0.009-0.016-0.017-0.025-0.026-0.024-0.024-0.049-0.047-0.074-0.070-0.014-0.013-0.029-0.027-0.044-0.040-0.024-0.021-0.048-0.042-0.073-0.062-0.018-0.015-0.036-0.029-0.055-0.043-0.023-0.018-0.046-0.036-0.069-0.053-0.033-0.024-0.067-0.047-0.101-0.069-0.009-0.006-0.018-0.013-0.027-0.018 0.384-0.649 1.088-1.062 1.865-1.062 0.048 0 0.099 0.002 0.162 0.007 0.226 0.017 0.437-0.113 0.525-0.322 0.323-0.768 1.069-1.264 1.901-1.264 1.069 0 1.971 0.834 2.054 1.899 0.020 0.259 0.226 0.464 0.485 0.485 0.804 0.063 1.501 0.594 1.776 1.353 0.062 0.171 0.207 0.298 0.385 0.336 0.973 0.21 1.694 1.046 1.775 2.027h-8.069z"></path>
</svg>
