<!-- Generated by IcoMoon.io -->
<svg version="1.1" xmlns="http://www.w3.org/2000/svg" width="32" height="32" viewBox="0 0 32 32">
<title>golf-1</title>
<path d="M12.62 5.402c-0.651 0-1.215 0.228-1.692 0.683s-0.716 1.009-0.716 1.66 0.239 1.204 0.716 1.66 1.041 0.683 1.692 0.683c0.651 0 1.204-0.228 1.66-0.683s0.683-1.009 0.683-1.66-0.228-1.204-0.683-1.66-1.009-0.683-1.66-0.683zM24.661 10.023c-0.044-0.217-0.217-0.477-0.521-0.781l-13.928-9.242-1.302 1.887c-0.304 0.434-0.239 0.803 0.195 1.106s0.803 0.239 1.106-0.195l0.781-1.106 11.325 7.485-9.307 1.692c-0.304 0.043-0.564 0.206-0.781 0.488s-0.282 0.575-0.195 0.879l2.018 7.875-6.508 9.763c-0.217 0.347-0.271 0.716-0.163 1.106s0.336 0.673 0.683 0.846c0.347 0.174 0.705 0.217 1.074 0.13s0.662-0.304 0.879-0.651c4.513-6.855 6.79-10.305 6.834-10.348l0.325 1.432-1.041 7.745c-0.043 0.347 0.043 0.683 0.26 1.009s0.521 0.521 0.911 0.586 0.748-0.022 1.074-0.26 0.51-0.531 0.553-0.879l1.041-7.94c0.043-0.26 0.043-0.542 0-0.846l-2.343-9.307 6.053-1.041c0.304-0.087 0.553-0.26 0.748-0.521s0.271-0.564 0.228-0.911z"></path>
</svg>
