<!-- Generated by IcoMoon.io -->
<svg version="1.1" xmlns="http://www.w3.org/2000/svg" width="32" height="32" viewBox="0 0 32 32">
<title>handicapped</title>
<path d="M28.022 26.78h0.353c0.262 0 0.475-0.213 0.475-0.475v-2.091c0-0.262-0.213-0.475-0.475-0.475h-1.524l0.344-2.932c0.031-0.261-0.156-0.497-0.417-0.527s-0.497 0.156-0.527 0.417l-0.357 3.043h-1.839l0.421-4.068c0.014-0.134-0.030-0.267-0.12-0.367s-0.218-0.157-0.353-0.157h-1.378c-0.315-1.038-0.795-2.010-1.414-2.883l4.293 0.426c0.319 0.032 0.606 0.187 0.807 0.437s0.291 0.563 0.254 0.882l-0.149 1.271c-0.031 0.261 0.156 0.497 0.417 0.527 0.019 0.002 0.038 0.003 0.056 0.003 0.238 0 0.443-0.178 0.471-0.42l0.149-1.271c0.067-0.574-0.095-1.138-0.457-1.588s-0.878-0.73-1.454-0.787l-5.235-0.519c-0.319-0.342-0.663-0.662-1.029-0.957l-1.231-6.007c1.174-0.821 1.944-2.183 1.944-3.721-0-2.503-2.036-4.539-4.539-4.539s-4.539 2.036-4.539 4.539c0 1.341 0.585 2.549 1.514 3.38l-0.304 1.188c-0.112 0.438-0.202 0.881-0.271 1.328l-1.3-3.386c-0.262-0.683-0.93-1.142-1.662-1.142-0.552 0-1.063 0.249-1.403 0.684s-0.458 0.991-0.325 1.526l1.263 5.072c-1.018 0.531-1.945 1.239-2.739 2.103-1.692 1.843-2.624 4.236-2.624 6.74 0 5.496 4.471 9.967 9.967 9.967 3.778 0 7.072-2.113 8.762-5.22h1.726c-0.532 0.555-0.861 1.307-0.861 2.134 0 1.701 1.384 3.085 3.085 3.085s3.085-1.384 3.085-3.085c-0-0.828-0.328-1.58-0.861-2.134zM23.475 20.097l-0.377 3.642h-0.193c0.096-0.554 0.147-1.124 0.147-1.706 0-0.659-0.065-1.307-0.19-1.936h0.613zM18.202 13.477c-0.676-0.405-1.407-0.734-2.183-0.972v-1.634c0-0.262-0.213-0.475-0.475-0.475s-0.475 0.213-0.475 0.475v7.889h-2.376v-6.171c0-0.003 0-0.007 0-0.010v-0.009c0-1.087 0.137-2.173 0.407-3.226l0.213-0.833c0.651 0.362 1.399 0.568 2.196 0.568 0.61 0 1.191-0.122 1.723-0.341l0.972 4.739zM15.068 19.71v0.903c0 0.655-0.533 1.188-1.188 1.188s-1.188-0.533-1.188-1.188v-0.903h2.376zM11.919 4.539c0-1.979 1.61-3.589 3.589-3.589s3.589 1.61 3.589 3.589-1.61 3.589-3.589 3.589c-1.979 0-3.589-1.61-3.589-3.589zM8.139 7.888c-0.062-0.25-0.007-0.509 0.151-0.711s0.397-0.319 0.654-0.319c0.341 0 0.652 0.214 0.774 0.532l1.84 4.792c-0.759 0.117-1.496 0.32-2.2 0.604l-1.22-4.897zM13.085 31.049c-4.972 0-9.016-4.045-9.016-9.016 0-2.265 0.843-4.43 2.374-6.097 0.796-0.867 1.742-1.561 2.783-2.054 0.011-0.005 0.021-0.010 0.031-0.015 0.783-0.368 1.62-0.622 2.486-0.751v1.215c-1.934 0.337-3.7 1.41-4.894 2.988-0.158 0.209-0.117 0.507 0.092 0.666 0.086 0.065 0.187 0.096 0.287 0.096 0.144 0 0.286-0.065 0.379-0.188 1.016-1.342 2.502-2.268 4.136-2.595v5.316c0 1.179 0.959 2.139 2.139 2.139s2.139-0.959 2.139-2.139v-4.791c2.378 1.125 3.933 3.54 3.933 6.21 0 3.787-3.081 6.868-6.868 6.868s-6.868-3.081-6.868-6.868c0-1.005 0.212-1.973 0.63-2.878 0.11-0.238 0.006-0.521-0.232-0.631s-0.521-0.006-0.631 0.232c-0.476 1.030-0.718 2.133-0.718 3.277 0 4.311 3.507 7.818 7.818 7.818s7.818-3.507 7.818-7.818c0-3.189-1.949-6.060-4.884-7.249v-1.28c3.611 1.24 6.083 4.661 6.083 8.528-0 4.971-4.045 9.016-9.017 9.016zM22.3 25.83c0.153-0.37 0.284-0.75 0.392-1.141h5.207v1.141h-2.093c-0.003 0-0.006-0-0.009-0s-0.006 0-0.009 0h-3.489zM25.797 31.049c-1.177 0-2.135-0.958-2.135-2.135 0-1.174 0.953-2.13 2.126-2.134h0.017c1.173 0.005 2.126 0.96 2.126 2.134 0 1.177-0.958 2.135-2.135 2.135zM25.797 27.503c-0.779 0-1.412 0.633-1.412 1.412s0.633 1.412 1.412 1.412c0.779 0 1.412-0.633 1.412-1.412s-0.633-1.412-1.412-1.412zM25.797 29.376c-0.255 0-0.461-0.207-0.461-0.462s0.207-0.461 0.461-0.461c0.254 0 0.462 0.207 0.462 0.461s-0.207 0.462-0.462 0.462z"></path>
</svg>
