<!-- Generated by IcoMoon.io -->
<svg version="1.1" xmlns="http://www.w3.org/2000/svg" width="32" height="32" viewBox="0 0 32 32">
<title>house-sketch</title>
<path d="M10.393 26.629h17.603c0.259 0 0.469-0.21 0.469-0.469s-0.21-0.469-0.469-0.469h-17.603c-0.259 0-0.469 0.21-0.469 0.469s0.21 0.469 0.469 0.469zM10.393 10.906h1.542c0.259 0 0.469-0.21 0.469-0.469s-0.21-0.469-0.469-0.469h-1.542c-0.259 0-0.469 0.21-0.469 0.469s0.21 0.469 0.469 0.469zM10.393 14.837h1.542c0.259 0 0.469-0.21 0.469-0.469s-0.21-0.469-0.469-0.469h-1.542c-0.259 0-0.469 0.21-0.469 0.469s0.21 0.469 0.469 0.469zM10.393 18.768h1.542c0.259 0 0.469-0.21 0.469-0.469s-0.21-0.469-0.469-0.469h-1.542c-0.259 0-0.469 0.21-0.469 0.469s0.21 0.469 0.469 0.469zM10.393 22.698h1.542c0.259 0 0.469-0.21 0.469-0.469s-0.21-0.469-0.469-0.469h-1.542c-0.259 0-0.469 0.21-0.469 0.469s0.21 0.469 0.469 0.469zM15.94 22.698h9.808c0.487 0 0.883-0.396 0.883-0.883v-7.341h0.586c0.266 0 0.499-0.171 0.578-0.425s-0.014-0.527-0.233-0.679l-6.372-4.415c-0.203-0.141-0.486-0.141-0.69 0l-6.372 4.415c-0.219 0.152-0.313 0.425-0.233 0.679s0.312 0.425 0.578 0.425h0.586v7.341c-0 0.487 0.396 0.883 0.882 0.883zM21.987 21.761h-2.287v-3.963h2.287v3.963zM25.692 21.761h-2.768v-4.039c0-0.475-0.387-0.862-0.862-0.862h-2.439c-0.475 0-0.862 0.387-0.862 0.862v4.039h-2.768v-7.286h9.698v7.286zM20.843 9.857l5.311 3.68h-10.623l5.312-3.68zM31.531 8.617c0.259 0 0.469-0.21 0.469-0.469v-1.712c0-0.934-0.758-1.694-1.691-1.694l-22.891-0.021c0-2.050-1.664-3.717-3.709-3.717s-3.709 1.668-3.709 3.717v14.664c0 0.259 0.21 0.469 0.469 0.469s0.469-0.21 0.469-0.469v-14.664c0-1.533 1.243-2.78 2.772-2.78s2.772 1.247 2.772 2.78v20.086c-0.064-0.072-0.132-0.143-0.203-0.211-0.646-0.622-1.472-0.98-2.355-1.030-0.018-0.001-0.037-0.001-0.055-0.002-0.046-0.002-0.092-0.004-0.139-0.004-0.007-0-0.014-0.001-0.020-0.001-0.020 0-0.039 0.001-0.059 0.002-0.028 0-0.057 0-0.085 0.001-0.011 0-0.023 0.002-0.034 0.002-0.025 0.001-0.050 0.003-0.075 0.005-0.039 0.003-0.079 0.006-0.118 0.010-0.026 0.003-0.052 0.006-0.078 0.009-0.036 0.004-0.072 0.009-0.108 0.015-0.028 0.004-0.057 0.009-0.085 0.014-0.031 0.006-0.062 0.012-0.093 0.018-0.033 0.007-0.065 0.013-0.097 0.020-0.022 0.005-0.043 0.011-0.064 0.016-0.736 0.184-1.386 0.587-1.875 1.138v-3.524c0-0.259-0.21-0.469-0.469-0.469s-0.469 0.21-0.469 0.469v5.992c0 0.006 0.001 0.011 0.001 0.017 0.004 0.963 0.369 1.868 1.039 2.564 0.705 0.733 1.653 1.136 2.669 1.136h26.6c0.932 0 1.691-0.76 1.691-1.694v-19.201c0-0.259-0.21-0.469-0.469-0.469s-0.469 0.21-0.469 0.469v19.201c0 0.417-0.338 0.756-0.753 0.756h-26.6c-0.759 0-1.467-0.302-1.994-0.849-0.521-0.541-0.795-1.251-0.776-2.003 0-0.016 0-0.032 0.001-0.048 0.001-0.027 0.003-0.054 0.005-0.081 0.001-0.019 0.003-0.038 0.004-0.058 0.002-0.026 0.005-0.052 0.009-0.077 0.002-0.019 0.005-0.039 0.007-0.058 0.004-0.026 0.008-0.053 0.013-0.079 0.003-0.017 0.006-0.035 0.009-0.052 0.005-0.028 0.011-0.057 0.018-0.085 0.003-0.014 0.006-0.028 0.010-0.042 0.008-0.031 0.016-0.062 0.024-0.093 0.003-0.010 0.006-0.020 0.008-0.029 0.010-0.035 0.021-0.069 0.032-0.104 0.002-0.005 0.003-0.010 0.005-0.014 0.263-0.773 0.859-1.396 1.614-1.694 0.004-0.001 0.007-0.003 0.011-0.004 0.034-0.013 0.068-0.025 0.102-0.037 0.010-0.003 0.019-0.007 0.029-0.010 0.029-0.010 0.059-0.019 0.089-0.028 0.015-0.004 0.030-0.009 0.045-0.013 0.026-0.007 0.051-0.014 0.077-0.020 0.020-0.005 0.040-0.009 0.060-0.014 0.022-0.005 0.044-0.010 0.067-0.014 0.024-0.005 0.048-0.009 0.072-0.013 0.020-0.003 0.039-0.007 0.059-0.010 0.026-0.004 0.053-0.007 0.079-0.010 0.018-0.002 0.037-0.004 0.055-0.006 0.027-0.003 0.054-0.004 0.082-0.006 0.019-0.001 0.038-0.003 0.057-0.004 0.025-0.001 0.050-0.001 0.075-0.002 0.022-0 0.045-0.001 0.067-0.001 0.027 0 0.055 0.001 0.082 0.002 0.019 0.001 0.038 0.001 0.057 0.002 0.034 0.002 0.068 0.005 0.101 0.008 0.011 0.001 0.023 0.002 0.034 0.003 0.044 0.005 0.087 0.010 0.131 0.017 0.001 0 0.001 0 0.002 0 1.236 0.19 2.206 1.202 2.335 2.461 0.010 0.095 0.014 0.19 0.014 0.287 0 0.004 0.001 0.007 0.001 0.010 0 0.017 0.002 0.033 0.004 0.049 0.001 0.007 0.002 0.014 0.003 0.022 0.003 0.016 0.006 0.032 0.011 0.047 0.001 0.004 0.002 0.009 0.004 0.013 0.006 0.018 0.012 0.035 0.020 0.051 0.003 0.006 0.006 0.012 0.009 0.018 0.007 0.014 0.015 0.028 0.024 0.041 0.003 0.004 0.005 0.008 0.008 0.013 0.010 0.015 0.021 0.028 0.033 0.042 0.005 0.005 0.009 0.010 0.014 0.015 0.011 0.012 0.023 0.023 0.035 0.034 0.004 0.003 0.008 0.007 0.012 0.010 0.014 0.011 0.028 0.021 0.043 0.030 0.005 0.003 0.010 0.006 0.015 0.009 0.017 0.010 0.035 0.019 0.054 0.027 0 0 0.001 0 0.001 0.001 0.002 0.001 0.004 0.001 0.005 0.002 0.017 0.007 0.035 0.013 0.053 0.017 0.005 0.001 0.010 0.003 0.015 0.004 0.019 0.005 0.039 0.008 0.059 0.010 0.003 0 0.006 0 0.009 0 0.012 0.001 0.025 0.002 0.037 0.002 0.005 0 0.010-0.001 0.015-0.001s0.012-0 0.018-0.001c0.019-0.001 0.038-0.003 0.056-0.007 0.001-0 0.002-0 0.003-0 0.021-0.004 0.040-0.010 0.060-0.017 0.004-0.001 0.008-0.003 0.011-0.004 0.018-0.007 0.036-0.015 0.053-0.024 0.001-0.001 0.003-0.001 0.004-0.002 0.018-0.010 0.036-0.021 0.052-0.033 0.004-0.003 0.007-0.006 0.011-0.008 0.017-0.013 0.033-0.026 0.047-0.041 0-0 0-0 0-0 0.001-0.001 0.002-0.002 0.003-0.004 0.010-0.010 0.019-0.020 0.027-0.030 0.003-0.003 0.005-0.007 0.008-0.011 0.007-0.009 0.013-0.017 0.019-0.026 0.002-0.003 0.004-0.007 0.006-0.010 0.006-0.010 0.012-0.020 0.018-0.030 0.001-0.002 0.002-0.005 0.003-0.007 0.006-0.011 0.011-0.023 0.016-0.035 0.001-0.002 0.001-0.003 0.002-0.005 0.005-0.013 0.010-0.025 0.014-0.038 0-0.002 0.001-0.003 0.001-0.005 0.004-0.013 0.007-0.026 0.010-0.039 0.001-0.004 0.001-0.008 0.002-0.012 0.002-0.011 0.004-0.022 0.005-0.034 0.002-0.015 0.002-0.031 0.002-0.047v-21.598h22.891c0.415 0 0.753 0.339 0.753 0.756v1.711c0 0.259 0.21 0.469 0.469 0.469z"></path>
</svg>
