<!-- Generated by IcoMoon.io -->
<svg version="1.1" xmlns="http://www.w3.org/2000/svg" width="32" height="32" viewBox="0 0 32 32">
<title>intercom1</title>
<path d="M23.798 0h-15.595c-1.254 0-2.274 1.020-2.274 2.274v27.451c0 1.254 1.020 2.274 2.274 2.274h15.595c1.254 0 2.274-1.020 2.274-2.274v-27.451c0-1.254-1.020-2.274-2.274-2.274zM24.921 29.726c0 0.619-0.504 1.123-1.123 1.123h-15.595c-0.619 0-1.123-0.504-1.123-1.123v-27.451c0-0.619 0.504-1.123 1.123-1.123h15.595c0.619 0 1.123 0.504 1.123 1.123v27.451zM22.101 13.523h-12.201c-0.318 0-0.576 0.258-0.576 0.576v3.338c0 0.318 0.258 0.576 0.576 0.576h12.201c0.318 0 0.576-0.258 0.576-0.576v-3.338c0-0.318-0.258-0.576-0.576-0.576zM15.991 14.674h3.298l-0.603 2.187h-3.298l0.603-2.187zM14.194 16.861h-1.129l0.603-2.187h1.129l-0.603 2.187zM10.475 14.674h2l-0.603 2.187h-1.396v-2.187zM21.525 16.861h-1.645l0.603-2.187h1.042v2.187zM16 12.14c2.666 0 4.835-2.169 4.835-4.835s-2.169-4.835-4.835-4.835-4.835 2.169-4.835 4.835 2.169 4.835 4.835 4.835zM16 3.622c2.031 0 3.683 1.652 3.683 3.683s-1.652 3.683-3.683 3.683-3.683-1.652-3.683-3.683 1.652-3.683 3.683-3.683zM16 10.126c1.555 0 2.82-1.265 2.82-2.82s-1.265-2.82-2.82-2.82c-1.555 0-2.82 1.265-2.82 2.82s1.265 2.82 2.82 2.82zM16 5.636c0.92 0 1.669 0.749 1.669 1.669s-0.749 1.669-1.669 1.669-1.669-0.749-1.669-1.669 0.749-1.669 1.669-1.669zM15.945 19.953c-0.224-0.151-0.535-0.119-0.726 0.071-0.157 0.157-0.21 0.397-0.133 0.605 0.084 0.228 0.31 0.384 0.554 0.378 0.243-0.006 0.459-0.169 0.534-0.4 0.077-0.239-0.016-0.517-0.228-0.654-0.031-0.021 0.032 0.021 0 0zM16.158 22.284c-0.092-0.217-0.309-0.361-0.546-0.355-0.242 0.006-0.455 0.167-0.532 0.395-0.076 0.225 0.002 0.486 0.19 0.633 0.196 0.153 0.468 0.162 0.675 0.026 0.228-0.15 0.313-0.447 0.213-0.698-0.015-0.035 0.014 0.035 0 0zM16.158 24.356c-0.086-0.208-0.292-0.35-0.518-0.355-0.247-0.006-0.472 0.15-0.556 0.381-0.083 0.23-0.006 0.497 0.188 0.647 0.202 0.156 0.485 0.16 0.692 0.012 0.215-0.154 0.291-0.442 0.194-0.685-0.015-0.035 0.014 0.035 0 0zM15.945 26.169c-0.217-0.146-0.518-0.122-0.71 0.056-0.162 0.15-0.225 0.388-0.157 0.599 0.077 0.24 0.309 0.405 0.562 0.399 0.243-0.006 0.459-0.168 0.534-0.399 0.077-0.239-0.016-0.517-0.228-0.654-0.031-0.021 0.032 0.021 0 0zM13.798 20.212c-0.2-0.473-0.897-0.461-1.073 0.026-0.178 0.493 0.373 0.951 0.826 0.694 0.248-0.14 0.359-0.457 0.247-0.72zM13.798 22.284c-0.029-0.070-0.072-0.133-0.124-0.187-0.225-0.219-0.59-0.223-0.814 0-0.204 0.203-0.222 0.537-0.045 0.763 0.165 0.211 0.465 0.278 0.705 0.161 0.268-0.131 0.396-0.461 0.279-0.737-0.015-0.035 0.015 0.035 0 0zM13.798 24.356c-0.029-0.070-0.072-0.133-0.124-0.187-0.225-0.219-0.59-0.223-0.814 0-0.199 0.198-0.222 0.518-0.059 0.745 0.166 0.231 0.49 0.303 0.739 0.168 0.254-0.137 0.371-0.458 0.258-0.726-0.015-0.035 0.015 0.035 0 0zM13.798 26.427c-0.195-0.461-0.869-0.465-1.063 0-0.094 0.226-0.031 0.497 0.156 0.656 0.184 0.157 0.45 0.184 0.66 0.065 0.249-0.141 0.357-0.456 0.248-0.721-0.015-0.034 0.015 0.035 0 0zM11.438 20.212c-0.158-0.374-0.649-0.469-0.939-0.187-0.306 0.316-0.161 0.856 0.267 0.965 0.446 0.114 0.852-0.351 0.671-0.778zM11.438 22.284c-0.158-0.374-0.648-0.469-0.939-0.187-0.307 0.316-0.161 0.855 0.267 0.965 0.446 0.115 0.852-0.35 0.671-0.778zM11.438 24.356c-0.156-0.376-0.65-0.467-0.939-0.187-0.315 0.325-0.151 0.88 0.295 0.972 0.44 0.091 0.82-0.369 0.644-0.784-0.015-0.035 0.015 0.035 0 0zM11.438 26.428c-0.195-0.471-0.884-0.461-1.068 0.013-0.087 0.224-0.022 0.486 0.161 0.642s0.45 0.184 0.66 0.065c0.248-0.14 0.359-0.456 0.247-0.72-0.015-0.035 0.015 0.035 0 0zM20.72 23.309c-1.079 0-1.957 0.878-1.957 1.957s0.878 1.957 1.957 1.957 1.957-0.878 1.957-1.957-0.878-1.957-1.957-1.957zM20.72 26.072c-0.444 0-0.806-0.361-0.806-0.806s0.361-0.806 0.806-0.806 0.806 0.361 0.806 0.806-0.361 0.806-0.806 0.806z"></path>
</svg>
