<!-- Generated by IcoMoon.io -->
<svg version="1.1" xmlns="http://www.w3.org/2000/svg" width="32" height="32" viewBox="0 0 32 32">
<title>kids-play</title>
<path d="M7.758 13.055c-0.246-0.161-0.577-0.093-0.738 0.154-2.732 4.167-2.242 12.601-2.219 12.958 0.018 0.283 0.253 0.5 0.532 0.5 0.011 0 0.022 0 0.034-0.001 0.294-0.018 0.517-0.271 0.499-0.565-0.005-0.084-0.491-8.437 2.046-12.307 0.162-0.246 0.093-0.577-0.154-0.739zM26.666 26.667h0.020c0.294-0.011 0.525-0.258 0.514-0.553-0.005-0.154-0.144-3.823-0.945-7.559-1.122-5.235-2.957-7.889-5.455-7.889h-0.513c0.221-2.827 2.187-5.297 4.931-6.113 0.282-0.084 0.443-0.381 0.359-0.663s-0.38-0.444-0.663-0.359c-3.365 1.002-5.715 4.155-5.715 7.669 0 0.294 0.238 0.533 0.533 0.533h1.067c3.95 0 5.189 10.409 5.334 14.419 0.011 0.288 0.247 0.514 0.532 0.514zM14.4 17.067c2.058 0 3.733-1.675 3.733-3.733v-2.133c0-4.82 3.781-8.774 8.533-9.051v3.718c0 0.113 0.036 0.222 0.102 0.314l4.087 5.619c-0.183 0.346-0.615 0.95-1.42 0.998l-3.626-1.554c-0.269-0.116-0.584 0.010-0.7 0.28s0.010 0.585 0.28 0.7l3.733 1.6c0.066 0.029 0.138 0.043 0.21 0.043 1.962 0 2.612-1.884 2.639-1.965 0.055-0.163 0.027-0.343-0.074-0.482l-4.165-5.726v-4.093c0-0.294-0.238-0.533-0.533-0.533-5.588 0-10.133 4.546-10.133 10.133v2.133c0 1.47-1.196 2.667-2.667 2.667s-2.667-1.196-2.667-2.667v-1.6h3.733c0.295 0 0.533-0.239 0.533-0.533s-0.238-0.533-0.533-0.533h-4.267c-0.295 0-0.533 0.239-0.533 0.533v2.133c0 2.059 1.675 3.733 3.733 3.733zM7.429 27.732c0.013 0 0.026 0.001 0.038 0.001 0.277 0 0.511-0.214 0.531-0.495 0.020-0.284 0.584-6.971 8.002-6.971 7.394 0 7.98 6.688 8.002 6.972 0.022 0.293 0.266 0.508 0.571 0.493 0.293-0.022 0.514-0.276 0.493-0.57-0.196-2.754-2.344-7.962-9.065-7.962s-8.869 5.208-9.065 7.962c-0.021 0.293 0.2 0.549 0.494 0.57zM31.797 24.649c-0.23-0.182-0.565-0.144-0.749 0.086-0.041 0.051-4.213 5.131-15.049 5.131-10.559 0-14.992-5.066-15.058-5.143-0.188-0.224-0.525-0.255-0.751-0.066s-0.255 0.526-0.067 0.751c0.189 0.226 4.754 5.524 15.876 5.524 11.394 0 15.708-5.311 15.885-5.537 0.182-0.231 0.142-0.565-0.088-0.748zM1.6 17.067c0.125 0 1.277-0.033 2.963-1.156 0.245-0.163 0.311-0.494 0.148-0.74s-0.494-0.312-0.74-0.148c-0.633 0.421-1.172 0.661-1.575 0.798 0.585-1.395 2.282-4.087 6.671-4.087 0.295 0 0.533-0.239 0.533-0.533s-0.238-0.533-0.533-0.533c-6.759 0-7.978 5.705-7.989 5.762-0.031 0.157 0.009 0.319 0.11 0.443s0.252 0.195 0.412 0.195zM24.8 5.867c-0.441 0-0.8 0.359-0.8 0.8s0.359 0.8 0.8 0.8c0.441 0 0.8-0.359 0.8-0.8s-0.359-0.8-0.8-0.8z"></path>
</svg>
