<!-- Generated by IcoMoon.io -->
<svg version="1.1" xmlns="http://www.w3.org/2000/svg" width="32" height="32" viewBox="0 0 32 32">
<title>location-pin</title>
<path d="M21.333 0h-1.067v4.8h-20.267v1.067h21.333zM25.6 23.467h6.4v-1.067h-5.333v-11.2h5.333v-1.067h-6.4zM26.667 4.8v-4.8h-1.067v5.867h6.4v-1.067zM25.6 32h1.067v-3.2h5.333v-1.067h-6.4zM12.089 30.933h-12.089v1.067h12.444l4.267-3.2h3.556v3.2h1.067v-4.267h-4.978zM20.267 22.4h-4.978l-4.267 3.2h-1.422v1.067h1.778l4.267-3.2h5.689v-13.333h-21.333v1.067h20.267zM7.467 13.333c-2.65 0.003-4.797 2.15-4.8 4.8 0 2.453 3.915 8.19 4.361 8.836l0.439 0.636 0.439-0.636c0.446-0.646 4.361-6.383 4.361-8.836-0.003-2.65-2.15-4.797-4.8-4.8zM7.467 25.713c-1.342-2.030-3.733-5.98-3.733-7.58 0-2.062 1.671-3.733 3.733-3.733s3.733 1.671 3.733 3.733c0 1.6-2.391 5.547-3.733 7.58zM7.467 16c-1.178 0-2.133 0.955-2.133 2.133s0.955 2.133 2.133 2.133 2.133-0.955 2.133-2.133-0.955-2.133-2.133-2.133zM7.467 19.2c-0.589 0-1.067-0.478-1.067-1.067s0.478-1.067 1.067-1.067 1.067 0.478 1.067 1.067-0.478 1.067-1.067 1.067zM0 25.6h5.333v1.067h-5.333zM29.333 7.467h1.067v1.067h-1.067zM27.2 7.467h1.067v1.067h-1.067zM25.067 7.467h1.067v1.067h-1.067zM22.933 7.467h1.067v1.067h-1.067zM22.933 10.133h1.067v1.067h-1.067zM22.933 12.267h1.067v1.067h-1.067zM22.933 14.4h1.067v1.067h-1.067zM22.933 16.533h1.067v1.067h-1.067zM22.933 18.667h1.067v1.067h-1.067zM22.933 20.8h1.067v1.067h-1.067zM22.933 22.933h1.067v1.067h-1.067zM22.933 25.067h1.067v1.067h-1.067zM20.8 25.067h1.067v1.067h-1.067zM18.667 25.067h1.067v1.067h-1.067zM16.533 25.067h1.067v1.067h-1.067zM14.335 25.977l0.754-0.754 0.754 0.754-0.754 0.754zM12.735 27.577l0.754-0.754 0.754 0.754-0.754 0.754zM11.2 28.267h1.067v1.067h-1.067zM9.067 28.267h1.067v1.067h-1.067zM6.933 28.267h1.067v1.067h-1.067z"></path>
</svg>
