<!-- Generated by IcoMoon.io -->
<svg version="1.1" xmlns="http://www.w3.org/2000/svg" width="32" height="32" viewBox="0 0 32 32">
<title>repair-1</title>
<path d="M5.925 22.998c-0.345 0-0.625 0.28-0.625 0.625v4.519c0 0.345 0.28 0.625 0.625 0.625s0.625-0.28 0.625-0.625v-4.519c0-0.345-0.28-0.625-0.625-0.625zM6.366 20.794c-0.116-0.116-0.277-0.183-0.442-0.183s-0.326 0.067-0.442 0.183c-0.116 0.116-0.183 0.277-0.183 0.442s0.067 0.326 0.183 0.442c0.116 0.116 0.277 0.183 0.442 0.183s0.326-0.067 0.442-0.183c0.117-0.116 0.183-0.277 0.183-0.442s-0.066-0.326-0.183-0.442zM3.678 20.447c-0.345 0-0.625 0.28-0.625 0.625v7.070c0 0.345 0.28 0.625 0.625 0.625s0.625-0.28 0.625-0.625v-7.070c0-0.345-0.28-0.625-0.625-0.625zM8.976 18.012h-2.302v-12.231l0.859-0.891c0.146-0.152 0.206-0.367 0.159-0.572l-0.872-3.831c-0.065-0.284-0.318-0.486-0.609-0.486h-2.821c-0.292 0-0.545 0.202-0.609 0.486l-0.872 3.831c-0.047 0.205 0.013 0.421 0.159 0.572l0.859 0.891v12.231h-2.302c-0.345 0-0.625 0.28-0.625 0.625s0.28 0.625 0.625 0.625h0.163v8.725c0 2.211 1.799 4.010 4.015 4.010 2.211 0 4.010-1.799 4.010-4.010v-8.725h0.163c0.345 0 0.625-0.28 0.625-0.625s-0.28-0.625-0.625-0.625zM3.89 1.25h1.823l0.686 3.015-0.802 0.832c-0.125 0.13-0.185 0.304-0.172 0.478v12.436h-1.246v-12.423c0.016-0.178-0.044-0.358-0.172-0.491l-0.802-0.832 0.686-3.015zM7.564 27.987c0 1.522-1.238 2.76-2.765 2.76-1.522 0-2.76-1.238-2.76-2.76v-8.725h5.525v8.725zM18.503 14.536c-0.117-0.117-0.277-0.183-0.442-0.183s-0.326 0.066-0.442 0.183c-0.116 0.116-0.183 0.277-0.183 0.442s0.067 0.326 0.183 0.442c0.116 0.116 0.277 0.183 0.442 0.183s0.326-0.067 0.442-0.183c0.116-0.116 0.183-0.277 0.183-0.442s-0.066-0.326-0.183-0.442zM18.686 23.123v-5.604c0-0.345-0.28-0.625-0.625-0.625s-0.625 0.28-0.625 0.625v5.959c0 0.229 0.126 0.44 0.327 0.549 1.133 0.614 1.847 1.755 1.909 3.051 0.066 1.387-0.645 2.662-1.797 3.343v-2.255c0-1.034-0.841-1.875-1.875-1.875s-1.875 0.841-1.875 1.875v2.258c-1.104-0.648-1.801-1.834-1.801-3.164 0-1.34 0.734-2.575 1.916-3.224 0.2-0.11 0.324-0.32 0.324-0.548v-14.925c0-0.229-0.126-0.44-0.327-0.549-1.133-0.614-1.847-1.755-1.909-3.051-0.066-1.387 0.645-2.662 1.797-3.343v2.255c0 1.034 0.841 1.875 1.875 1.875s1.875-0.841 1.875-1.875v-2.258c1.104 0.648 1.801 1.834 1.801 3.164 0 1.34-0.734 2.575-1.916 3.224-0.2 0.11-0.324 0.32-0.324 0.548v3.841c0 0.345 0.28 0.625 0.625 0.625s0.625-0.28 0.625-0.625v-3.488h0c1.391-0.907 2.24-2.456 2.24-4.125 0-1.078-0.342-2.102-0.989-2.96-0.625-0.83-1.515-1.452-2.505-1.753-0.19-0.058-0.395-0.022-0.554 0.096s-0.253 0.304-0.253 0.502v3.208c0 0.345-0.28 0.625-0.625 0.625s-0.625-0.28-0.625-0.625v-3.208c0-0.198-0.094-0.384-0.253-0.502s-0.364-0.154-0.554-0.096c-2.162 0.656-3.596 2.693-3.489 4.953 0.077 1.609 0.904 3.039 2.234 3.897v14.216c-1.391 0.907-2.24 2.456-2.24 4.125 0 1.078 0.342 2.102 0.989 2.96 0.625 0.83 1.515 1.452 2.505 1.753 0.059 0.018 0.121 0.027 0.181 0.027 0.133 0 0.263-0.042 0.372-0.123 0.159-0.118 0.253-0.304 0.253-0.502v-3.208c0-0.345 0.28-0.625 0.625-0.625s0.625 0.28 0.625 0.625v3.208c0 0.198 0.094 0.384 0.253 0.502s0.364 0.154 0.554 0.096c2.162-0.656 3.596-2.693 3.488-4.953-0.077-1.609-0.904-3.039-2.234-3.897zM31.686 5.623l-3.75-2.165c-0.193-0.112-0.432-0.112-0.625 0l-3.75 2.165c-0.193 0.112-0.313 0.318-0.313 0.541v4.33c0 0.223 0.119 0.43 0.313 0.541l3.75 2.165c0.097 0.056 0.205 0.084 0.313 0.084s0.216-0.028 0.313-0.084l3.75-2.165c0.193-0.112 0.313-0.318 0.313-0.541v-4.33c-0-0.223-0.119-0.43-0.313-0.541zM30.749 10.133l-3.125 1.804-3.125-1.804v-3.608l3.125-1.804 3.125 1.804v3.608zM27.624 6.33c-1.103 0-2 0.897-2 2s0.897 2 2 2 2-0.897 2-2-0.897-2-2-2zM27.624 9.079c-0.413 0-0.75-0.336-0.75-0.75s0.336-0.75 0.75-0.75 0.75 0.336 0.75 0.75-0.336 0.75-0.75 0.75zM31.374 15.374h-7.499c-0.345 0-0.625 0.28-0.625 0.625v3.625c0 0.345 0.28 0.625 0.625 0.625h1.125v3.208c0 0 0 0 0 0.001v3.729c0 0.793 0.645 1.437 1.437 1.437h2.375c0.793 0 1.437-0.645 1.437-1.437v-6.937h1.125c0.345 0 0.625-0.28 0.625-0.625v-3.625c0-0.345-0.28-0.625-0.625-0.625zM28.999 27.185c0 0.103-0.084 0.188-0.188 0.188h-2.361l2.548-2.548v2.361zM28.999 23.057l-2.75 2.75v-2.091l2.75-2.75v2.091zM26.249 21.948v-1.699h1.699l-1.699 1.699zM30.749 18.998h-6.25v-2.375h6.25v2.375z"></path>
</svg>
