<!-- Generated by IcoMoon.io -->
<svg version="1.1" xmlns="http://www.w3.org/2000/svg" width="32" height="32" viewBox="0 0 32 32">
<title>floor</title>
<path d="M31.431 32h-30.862c-0.314 0-0.569-0.255-0.569-0.569v-30.862c0-0.314 0.255-0.569 0.569-0.569h30.862c0.314 0 0.569 0.255 0.569 0.569v30.862c0 0.314-0.255 0.569-0.569 0.569zM23.926 30.862h6.936v-6.936l-6.434 6.434c-0.001 0.001-0.002 0.002-0.003 0.003s-0.002 0.002-0.003 0.003l-0.496 0.496zM15.068 30.862h7.248l0.902-0.902-3.624-3.624-4.526 4.526zM6.798 30.862h6.66l9.892-9.892-3.33-3.33-13.223 13.223zM1.138 30.862h4.051l3.121-3.121-3.497-3.497-3.675 3.675v2.942zM20.399 25.531l3.624 3.624 6.839-6.839v-7.248l-10.463 10.463zM5.618 23.44l3.496 3.497 17.452-17.452-3.497-3.497-6.842 6.842c-0.001 0-0.001 0.001-0.002 0.001l-10.608 10.608zM1.138 18.666v7.644l3.267-3.267c0.002-0.002 0.004-0.004 0.006-0.006s0.004-0.004 0.006-0.006l10.603-10.603-3.742-3.742-10.139 9.98zM20.826 16.835l3.33 3.33 6.689-6.689c0.005-0.005 0.011-0.011 0.017-0.016v-6.661l-10.036 10.036zM1.138 9.379v7.69l4.506-4.435-3.861-3.862-0.645 0.607zM2.612 7.991l3.844 3.844 10.83-10.659h-7.438l-7.236 6.816zM12.088 7.888l3.736 3.736 10.486-10.486h-7.364l-6.858 6.75zM23.874 5.183l3.497 3.497 3.491-3.491v-4.051h-2.942l-4.045 4.045zM1.138 1.138v6.678l0.213-0.2c0.012-0.015 0.025-0.028 0.038-0.042 0.022-0.022 0.045-0.042 0.069-0.059l6.769-6.377h-7.090z"></path>
</svg>
