<!-- Generated by IcoMoon.io -->
<svg version="1.1" xmlns="http://www.w3.org/2000/svg" width="32" height="32" viewBox="0 0 32 32">
<title>mirror</title>
<path d="M29.935 0h-27.871c-0.286 0-0.516 0.231-0.516 0.516v15.484c0 0.285 0.231 0.516 0.516 0.516h17.032v2.065h-13.419c-0.286 0-0.516 0.231-0.516 0.516v2.065c0 0.285 0.231 0.516 0.516 0.516h1.548v0.516c0 0.854 0.695 1.548 1.548 1.548s1.548-0.695 1.548-1.548v-0.516h11.355v0.516c0 0.854 0.695 1.548 1.548 1.548s1.548-0.695 1.548-1.548v-0.516h1.548c0.286 0 0.516-0.231 0.516-0.516v-2.065c0-0.285-0.231-0.516-0.516-0.516h-2.065v-2.065h5.677c0.286 0 0.516-0.231 0.516-0.516v-15.484c0-0.285-0.231-0.516-0.516-0.516zM23.742 11.355h-0.516v-1.548c0-0.285-0.231-0.516-0.516-0.516h-2.065c-0.286 0-0.516 0.231-0.516 0.516v1.548h-0.516c-0.286 0-0.516 0.231-0.516 0.516v1.548h-14.452v-10.323h22.71v10.323h-3.097v-1.548c0-0.285-0.231-0.516-0.516-0.516zM22.194 11.355h-1.032v-1.032h1.032zM9.29 22.194c0 0.284-0.231 0.516-0.516 0.516s-0.516-0.232-0.516-0.516v-0.516h1.032zM23.742 22.194c0 0.284-0.231 0.516-0.516 0.516s-0.516-0.232-0.516-0.516v-0.516h1.032zM25.806 20.645h-19.613v-1.032h19.613zM20.129 18.581v-6.194h3.097v6.194zM29.419 15.484h-5.161v-1.032h3.613c0.286 0 0.516-0.231 0.516-0.516v-11.355c0-0.285-0.231-0.516-0.516-0.516h-23.742c-0.286 0-0.516 0.231-0.516 0.516v11.355c0 0.285 0.231 0.516 0.516 0.516h14.968v1.032h-16.516v-14.452h26.839zM23.742 27.871v-2.581c0-0.285-0.231-0.516-0.516-0.516h-5.677v-0.516c0-0.854-0.695-1.548-1.548-1.548s-1.548 0.695-1.548 1.548v0.516h-5.677c-0.286 0-0.516 0.231-0.516 0.516v2.581c0 1.234 0.547 2.34 1.407 3.097h-7.084v1.032h26.839v-1.032h-7.084c0.86-0.757 1.407-1.863 1.407-3.097zM15.484 24.258c0-0.284 0.231-0.516 0.516-0.516s0.516 0.232 0.516 0.516v0.516h-1.032zM12.387 30.968c-1.708 0-3.097-1.389-3.097-3.097v-2.065h13.419v2.065c0 1.708-1.389 3.097-3.097 3.097zM16.667 9.958l4.645-4.645 0.73 0.73-4.645 4.645zM9.441 9.958l4.645-4.645 0.73 0.73-4.645 4.645z"></path>
</svg>
