<!-- Generated by IcoMoon.io -->
<svg version="1.1" xmlns="http://www.w3.org/2000/svg" width="32" height="32" viewBox="0 0 32 32">
<title>modern-house</title>
<path d="M29 28h-0.5v-9h1.5c0.276 0 0.5-0.224 0.5-0.5v0-1.5c0-0.276-0.224-0.5-0.5-0.5v0h-0.5v-3h0.5c0.276 0 0.5-0.224 0.5-0.5v0-1.5c0-0.276-0.224-0.5-0.5-0.5v0h-15.5v-4c0-0 0-0 0-0 0-0.276-0.224-0.5-0.5-0.5-0.063 0-0.124 0.012-0.179 0.033l0.003-0.001-12 4.5c-0.191 0.073-0.324 0.255-0.324 0.468 0 0 0 0 0 0.001v-0 7c0 0.276 0.224 0.5 0.5 0.5v0h1.5v9h-2.5c-0.276 0-0.5 0.224-0.5 0.5s0.224 0.5 0.5 0.5v0h28c0.276 0 0.5-0.224 0.5-0.5s-0.224-0.5-0.5-0.5v0zM28.5 16.5h-12.5v-3h12.5zM29.5 12v0.5h-14c-0.276 0-0.5 0.224-0.5 0.5v0 4c0 0.276 0.224 0.5 0.5 0.5v0h14v0.5h-15v-6zM2.5 11.847l11-4.125v10.278h-11zM6 28v-7h1.5v7zM8.5 28v-7h1.5v7zM11 28v-7h1.5v7zM13.5 28v-7h1.5v7zM16 28v-7.5c0-0.276-0.224-0.5-0.5-0.5v0h-10c-0.276 0-0.5 0.224-0.5 0.5v0 7.5h-0.5v-9h23v9zM31 28h-0.5c-0.276 0-0.5 0.224-0.5 0.5s0.224 0.5 0.5 0.5v0h0.5c0.276 0 0.5-0.224 0.5-0.5s-0.224-0.5-0.5-0.5v0zM26.5 20h-9c-0.276 0-0.5 0.224-0.5 0.5v0 5c0 0.276 0.224 0.5 0.5 0.5v0h9c0.276 0 0.5-0.224 0.5-0.5v0-5c0-0.276-0.224-0.5-0.5-0.5v0zM18 25v-4h2v4zM21 25v-4h2v4zM26 25h-2v-4h2zM12.5 17.5c0.276 0 0.5-0.224 0.5-0.5v0-4c0-0.276-0.224-0.5-0.5-0.5v0h-8.5c-0.276 0-0.5 0.224-0.5 0.5v0 4c0 0.276 0.224 0.5 0.5 0.5v0zM12 13.5v3h-2v-3zM9 13.5v3h-1.5v-3zM4.5 13.5h2v3h-2zM17.5 8.5h3.5c0 0 0.001 0 0.001 0 0.092 0 0.179-0.027 0.251-0.074l-0.002 0.001c0.729-0.222 1.251-0.889 1.251-1.677 0-0.9-0.679-1.641-1.552-1.739l-0.008-0.001c-0.224-0.875-1.006-1.511-1.936-1.511-0.741 0-1.388 0.404-1.732 1.004l-0.005 0.010c-1 0.12-1.768 0.964-1.768 1.987 0 1.105 0.895 2 2 2 0 0 0 0 0 0v0zM17.483 5.5l0.073 0.008c0.011 0.001 0.023 0.001 0.036 0.001 0.217 0 0.401-0.139 0.468-0.332l0.001-0.003c0.138-0.395 0.508-0.673 0.943-0.673 0.544 0 0.986 0.436 0.996 0.978v0.001c0 0.016-0.003 0.034-0.003 0.046 0 0 0 0 0 0 0 0.276 0.224 0.5 0.5 0.5 0.035 0 0.070-0.004 0.103-0.011l-0.003 0.001c0.042-0.008 0.090-0.013 0.139-0.013 0.416 0 0.754 0.333 0.764 0.746l0 0.001c0 0 0 0 0 0 0 0.361-0.255 0.663-0.595 0.734l-0.005 0.001c-0.023 0.005-0.041 0.010-0.060 0.016l0.004-0.001h-3.344c-0.003 0-0.006 0-0.009 0-0.552 0-1-0.448-1-1 0-0.549 0.443-0.995 0.991-1h0z"></path>
</svg>
