<!-- Generated by IcoMoon.io -->
<svg version="1.1" xmlns="http://www.w3.org/2000/svg" width="32" height="32" viewBox="0 0 32 32">
<title>villa</title>
<path d="M31.603 10.040h-9.423v-0.331h0.759c0.176 0 0.331-0.116 0.381-0.285s-0.019-0.351-0.167-0.446l-6.897-4.411c-0.13-0.083-0.297-0.083-0.428 0l-6.897 4.411c-0.148 0.095-0.216 0.276-0.167 0.446s0.205 0.285 0.381 0.285h0.76v0.331h-9.51c-0.219 0-0.397 0.178-0.397 0.397v16.661c0 0.219 0.178 0.397 0.397 0.397h31.207c0.219 0 0.397-0.178 0.397-0.397v-16.661c0-0.219-0.178-0.397-0.397-0.397zM22.744 26.701h-13.488v-0.661h13.488v0.661zM20.595 23.065h-0.793v-11.372h0.793v11.372zM17.488 25.247v-1.785c0-0.185-0.127-0.34-0.298-0.384v-1.666h1.818v1.666c-0.171 0.044-0.298 0.199-0.298 0.384v1.785h-1.223zM12.992 13.346h1.818v1.653h-1.818v-1.653zM12.992 15.792h1.818v1.058h-1.818v-1.058zM12.992 17.644h1.818v0.264h-1.818v-0.264zM12.992 18.701h1.818v1.917h-1.818v-1.917zM12.992 23.078v-1.666h1.818v1.666c-0.171 0.044-0.298 0.199-0.298 0.384v1.785h-1.223v-1.785c0-0.185-0.127-0.34-0.298-0.384zM15.306 23.858h1.388v1.388h-1.388v-1.388zM17.19 13.346h1.818v1.653h-1.818v-1.653zM17.19 15.792h1.818v1.058h-1.818v-1.058zM17.19 17.644h1.818v0.264h-1.818v-0.264zM17.19 18.701h1.818v1.917h-1.818v-1.917zM19.008 12.553h-1.818v-0.86h1.818v0.86zM16.397 23.065h-0.793v-11.372h0.793v11.372zM14.81 12.553h-1.818v-0.86h1.818v0.86zM12.198 23.065h-0.793v-11.372h0.793v11.372zM10.612 23.078c-0.171 0.044-0.298 0.199-0.298 0.384v0.397h-9.521v-11.174h9.818v10.393zM11.107 23.858h1.388v1.388h-1.388v-1.388zM19.504 25.247v-1.388h1.388v1.388h-1.388zM21.388 23.078v-10.393h9.818v11.174h-9.521v-0.397c0-0.185-0.127-0.34-0.298-0.384zM31.207 10.834v1.058h-9.818v-0.198h0.395c0.219 0 0.397-0.178 0.397-0.397v-0.463h9.026zM16.043 5.373l5.54 3.544h-11.080l5.54-3.544zM21.387 9.71v1.19h-10.687v-1.19h10.687zM9.907 10.834v0.463c0 0.219 0.178 0.397 0.397 0.397h0.308v0.198h-9.818v-1.058h9.113zM0.793 24.652h9.521v0.595h-1.455c-0.219 0-0.397 0.178-0.397 0.397v1.058h-7.669v-2.050zM23.537 26.701v-1.058c0-0.219-0.178-0.397-0.397-0.397h-1.455v-0.595h9.521v2.050h-7.669zM2.919 17.115h2.182c0.219 0 0.397-0.178 0.397-0.397v-3.174c0-0.219-0.178-0.397-0.397-0.397h-2.182c-0.219 0-0.397 0.178-0.397 0.397v3.174c0 0.219 0.178 0.397 0.397 0.397zM3.316 16.321v-1.322h1.388v1.322h-1.388zM4.704 13.941v0.264h-1.388v-0.264h1.388zM6.886 17.115h2.182c0.219 0 0.397-0.178 0.397-0.397v-3.174c0-0.219-0.178-0.397-0.397-0.397h-2.182c-0.219 0-0.397 0.178-0.397 0.397v3.174c0 0.219 0.178 0.397 0.397 0.397zM7.283 16.321v-1.322h1.388v1.322h-1.388zM8.671 13.941v0.264h-1.388v-0.264h1.388zM2.919 23.131h2.182c0.219 0 0.397-0.178 0.397-0.397v-3.174c0-0.219-0.178-0.397-0.397-0.397h-2.182c-0.219 0-0.397 0.178-0.397 0.397v3.174c0 0.219 0.178 0.397 0.397 0.397zM3.316 22.338v-1.322h1.388v1.322h-1.388zM4.704 19.958v0.264h-1.388v-0.264h1.388zM6.886 23.131h2.182c0.219 0 0.397-0.178 0.397-0.397v-3.174c0-0.219-0.178-0.397-0.397-0.397h-2.182c-0.219 0-0.397 0.178-0.397 0.397v3.174c0 0.219 0.178 0.397 0.397 0.397zM7.283 22.338v-1.322h1.388v1.322h-1.388zM8.671 19.958v0.264h-1.388v-0.264h1.388zM23.018 17.115h2.182c0.219 0 0.397-0.178 0.397-0.397v-3.174c0-0.219-0.178-0.397-0.397-0.397h-2.182c-0.219 0-0.397 0.178-0.397 0.397v3.174c0 0.219 0.178 0.397 0.397 0.397zM23.415 16.321v-1.322h1.388v1.322h-1.388zM24.804 13.941v0.264h-1.388v-0.264h1.388zM26.985 17.115h2.182c0.219 0 0.397-0.178 0.397-0.397v-3.174c0-0.219-0.178-0.397-0.397-0.397h-2.182c-0.219 0-0.397 0.178-0.397 0.397v3.174c0 0.219 0.178 0.397 0.397 0.397zM27.382 16.321v-1.322h1.388v1.322h-1.388zM28.771 13.941v0.264h-1.388v-0.264h1.388zM23.018 23.131h2.182c0.219 0 0.397-0.178 0.397-0.397v-3.174c0-0.219-0.178-0.397-0.397-0.397h-2.182c-0.219 0-0.397 0.178-0.397 0.397v3.174c0 0.219 0.178 0.397 0.397 0.397zM23.415 22.338v-1.322h1.388v1.322h-1.388zM24.804 19.958v0.264h-1.388v-0.264h1.388zM26.985 23.131h2.182c0.219 0 0.397-0.178 0.397-0.397v-3.174c0-0.219-0.178-0.397-0.397-0.397h-2.182c-0.219 0-0.397 0.178-0.397 0.397v3.174c0 0.219 0.178 0.397 0.397 0.397zM27.382 22.338v-1.322h1.388v1.322h-1.388zM28.771 19.958v0.264h-1.388v-0.264h1.388z"></path>
</svg>
