<!-- Generated by IcoMoon.io -->
<svg version="1.1" xmlns="http://www.w3.org/2000/svg" width="32" height="32" viewBox="0 0 32 32">
<title>mosque-7</title>
<path d="M31.22 17.155v-8.788c0.472-0.341 0.78-0.895 0.78-1.521 0-0.531-0.222-1.011-0.578-1.352 0.355-1.187-0.036-2.481-1.056-3.351l-2.335-1.994c-0.234-0.199-0.578-0.199-0.812 0l-2.335 1.993c-1.020 0.871-1.411 2.165-1.056 3.352-0.356 0.342-0.578 0.821-0.578 1.352 0 0.625 0.308 1.18 0.78 1.521v5.86h-6.69c-0.253-1.411-1.117-2.754-2.534-3.79l-4.661-3.407c0.45-0.265 0.824-0.657 1.068-1.147 0.103-0.207 0.084-0.454-0.051-0.642s-0.361-0.287-0.591-0.256c-0.374 0.049-0.855-0.225-1.224-0.7-0.389-0.501-0.556-1.113-0.406-1.486 0.085-0.211 0.048-0.452-0.096-0.629s-0.373-0.26-0.597-0.219c-1.305 0.24-2.252 1.378-2.252 2.707 0 1.009 0.546 1.893 1.358 2.372l-0.626 0.458c-0.279 0.204-0.339 0.595-0.136 0.873s0.595 0.34 0.873 0.136l1.282-0.938 5.319 3.888c1.297 0.948 2.015 2.169 2.093 3.423 0 0.019 0.002 0.038 0.004 0.056 0.030 0.629-0.102 1.266-0.402 1.88-0.046-0.003-0.092-0.006-0.138-0.006h-13.75c-0.046 0-0.093 0.002-0.138 0.006-0.909-1.857-0.272-3.921 1.694-5.359 0.279-0.204 0.34-0.595 0.136-0.874s-0.595-0.339-0.873-0.136c-2.443 1.786-3.243 4.485-2.101 6.872-0.364 0.342-0.593 0.828-0.593 1.366 0 0.718 0.406 1.343 1 1.657v11.042c0 0.345 0.28 0.625 0.625 0.625h28.97c0.345 0 0.625-0.28 0.625-0.625v-11.179c0.472-0.341 0.78-0.895 0.78-1.52s-0.308-1.18-0.78-1.52zM7.684 3.599c0.092 0.491 0.322 0.995 0.678 1.453 0.321 0.414 0.698 0.73 1.096 0.932-0.213 0.114-0.455 0.176-0.708 0.176-0.828 0-1.502-0.674-1.502-1.502 0-0.409 0.164-0.785 0.436-1.059zM25.28 8.722h4.69v8.079h-4.69zM24.882 7.422c-0.224-0.095-0.382-0.317-0.382-0.576 0-0.345 0.281-0.625 0.625-0.625h5c0.345 0 0.625 0.28 0.625 0.625 0 0.258-0.158 0.481-0.382 0.576-0.005 0.002-0.011 0.004-0.017 0.006-0.070 0.028-0.146 0.043-0.227 0.043h-5c-0.080 0-0.156-0.016-0.227-0.043-0.005-0.002-0.011-0.004-0.017-0.006zM25.125 19.3c-0.080 0-0.156-0.016-0.227-0.043-0.005-0.002-0.011-0.004-0.017-0.006-0.224-0.095-0.382-0.317-0.382-0.576s0.158-0.48 0.382-0.576c0.006-0.002 0.011-0.004 0.017-0.006 0.070-0.027 0.147-0.043 0.227-0.043h5c0.080 0 0.156 0.016 0.227 0.043 0.005 0.002 0.011 0.004 0.017 0.006 0.224 0.095 0.382 0.317 0.382 0.576 0 0.345-0.281 0.625-0.625 0.625h-5zM25.695 3.094l1.93-1.647 1.93 1.647c0.595 0.508 0.849 1.21 0.71 1.883-0.046-0.003-0.093-0.006-0.14-0.006h-5c-0.047 0-0.094 0.002-0.14 0.006-0.139-0.674 0.115-1.375 0.71-1.883zM17.404 15.478h6.626v1.677c-0.472 0.341-0.78 0.895-0.78 1.52s0.308 1.18 0.78 1.52v0.838h-7.53v-0.701c0.594-0.315 1-0.94 1-1.657 0-0.538-0.228-1.024-0.593-1.366 0.286-0.597 0.45-1.214 0.497-1.832zM1.875 19.3c-0.042 0-0.083-0.004-0.123-0.012-0.001-0-0.003-0.001-0.004-0.001-0.284-0.059-0.498-0.311-0.498-0.612 0-0.345 0.28-0.625 0.625-0.625h13.75c0.344 0 0.625 0.28 0.625 0.625 0 0.301-0.214 0.553-0.498 0.612-0.001 0-0.003 0-0.004 0.001-0.040 0.008-0.081 0.012-0.123 0.012zM4.279 30.75v-3.73c0-0.779 0.634-1.413 1.413-1.413h0.002c0.779 0 1.412 0.634 1.412 1.413v3.73zM8.356 30.75v-3.73c0-1.232-0.841-2.27-1.978-2.573 0.245-1.085 1.215-1.897 2.373-1.897s2.128 0.813 2.373 1.897c-1.138 0.303-1.978 1.342-1.978 2.573v3.73zM10.394 30.75v-3.73c0-0.779 0.634-1.413 1.413-1.413h0.001c0.779 0 1.413 0.634 1.413 1.413v3.73zM15.25 30.75h-0.779v-3.73c0-1.269-0.892-2.332-2.081-2.598-0.271-1.766-1.8-3.123-3.64-3.123s-3.369 1.357-3.64 3.123c-1.189 0.267-2.081 1.33-2.081 2.598v3.73h-0.779v-10.2h13zM16.5 30.75v-5.966h1.265c0.345 0 0.625-0.28 0.625-0.625s-0.28-0.625-0.625-0.625h-1.265v-1.25h7.53v1.25h-1.265c-0.345 0-0.625 0.28-0.625 0.625s0.28 0.625 0.625 0.625h1.265v5.966zM25.28 30.75v-10.2h4.69v10.2zM28.313 26.775h-1.376c-0.345 0-0.625 0.28-0.625 0.625s0.28 0.625 0.625 0.625h1.376c0.345 0 0.625-0.28 0.625-0.625s-0.28-0.625-0.625-0.625zM28.313 23.025h-1.376c-0.345 0-0.625 0.28-0.625 0.625s0.28 0.625 0.625 0.625h1.376c0.345 0 0.625-0.28 0.625-0.625s-0.28-0.625-0.625-0.625zM26.937 15.261h1.376c0.345 0 0.625-0.28 0.625-0.625s-0.28-0.625-0.625-0.625h-1.376c-0.345 0-0.625 0.28-0.625 0.625s0.28 0.625 0.625 0.625zM26.937 11.511h1.376c0.345 0 0.625-0.28 0.625-0.625s-0.28-0.625-0.625-0.625h-1.376c-0.345 0-0.625 0.28-0.625 0.625s0.28 0.625 0.625 0.625zM20.265 23.534h-0c-0.345 0-0.625 0.28-0.625 0.625s0.28 0.625 0.625 0.625 0.625-0.28 0.625-0.625c0-0.345-0.28-0.625-0.625-0.625zM5.148 10.042c0.141 0 0.283-0.047 0.4-0.145 0.265-0.221 0.301-0.615 0.080-0.88s-0.615-0.301-0.88-0.080l-0 0c-0.265 0.221-0.301 0.615-0.080 0.88 0.124 0.148 0.301 0.225 0.48 0.225z"></path>
</svg>
