<!-- Generated by IcoMoon.io -->
<svg version="1.1" xmlns="http://www.w3.org/2000/svg" width="32" height="32" viewBox="0 0 32 32">
<title>swimming-6</title>
<path d="M27.253 30.52c-1.541-0.738-3.333-0.738-4.874 0-1.248 0.598-2.699 0.598-3.947 0-1.541-0.738-3.333-0.738-4.873 0-1.247 0.598-2.699 0.598-3.947 0-1.541-0.738-3.333-0.738-4.873 0-1.247 0.597-2.697 0.597-3.944 0l-0.796-0.388v1.188l0.336 0.16c1.541 0.738 3.333 0.738 4.874 0 1.248-0.598 2.699-0.598 3.947 0 1.541 0.738 3.333 0.738 4.874 0 1.248-0.598 2.699-0.598 3.947 0 1.541 0.738 3.333 0.738 4.874 0 1.247-0.598 2.699-0.598 3.947 0 1.541 0.739 3.333 0.739 4.873 0l0.329-0.16v-1.188l-0.8 0.388c-1.247 0.598-2.699 0.598-3.947 0zM27.253 27.883c-1.541-0.738-3.333-0.738-4.874 0-1.247 0.598-2.699 0.598-3.947 0-1.54-0.738-3.333-0.738-4.873 0-1.247 0.599-2.699 0.599-3.947 0-1.541-0.738-3.333-0.738-4.873 0-1.247 0.598-2.697 0.598-3.944 0l-0.796-0.387v1.185l0.336 0.16c1.541 0.738 3.333 0.738 4.874 0 1.247-0.599 2.699-0.599 3.947 0 1.541 0.738 3.333 0.738 4.874 0 1.248-0.598 2.699-0.598 3.947 0 1.541 0.738 3.333 0.738 4.874 0 1.247-0.598 2.699-0.598 3.947 0 1.541 0.738 3.333 0.738 4.873 0l0.329-0.161v-1.184l-0.8 0.387c-1.247 0.599-2.699 0.599-3.947 0zM27.253 25.216c-1.541-0.738-3.333-0.738-4.874 0-1.247 0.599-2.699 0.599-3.947 0-1.541-0.738-3.333-0.738-4.874 0-1.247 0.599-2.699 0.599-3.947 0-1.541-0.738-3.333-0.738-4.873 0-1.247 0.598-2.697 0.598-3.944 0l-0.795-0.387v1.185l0.336 0.16c1.541 0.738 3.333 0.738 4.874 0 1.247-0.599 2.699-0.599 3.947 0 1.541 0.738 3.333 0.738 4.874 0 1.248-0.598 2.699-0.598 3.947 0 1.541 0.738 3.333 0.738 4.874 0 1.247-0.598 2.699-0.598 3.947 0 1.541 0.738 3.333 0.738 4.873 0l0.329-0.161v-1.184l-0.8 0.387c-1.247 0.599-2.699 0.599-3.947 0zM32 9.667v-1.067h-3.733v-3.2c0-2.946-2.388-5.333-5.333-5.333s-5.333 2.388-5.333 5.333v3.2h-1.067v-3.2c0-2.946-2.388-5.333-5.333-5.333s-5.333 2.388-5.333 5.333v3.2h-5.867v1.067h5.867v12.487c-0.386 0.091-0.762 0.224-1.12 0.396-1.247 0.598-2.697 0.598-3.944 0l-0.803-0.387v1.185l0.336 0.16c1.541 0.738 3.333 0.738 4.874 0 1.247-0.599 2.699-0.599 3.947 0 1.541 0.738 3.333 0.738 4.874 0 1.248-0.598 2.699-0.598 3.947 0 1.541 0.738 3.333 0.738 4.874 0 1.247-0.598 2.699-0.598 3.947 0 1.541 0.738 3.333 0.738 4.873 0l0.329-0.161v-1.184l-0.8 0.387c-1.247 0.598-2.697 0.598-3.944 0-1.541-0.738-3.333-0.738-4.874 0-0.497 0.238-1.033 0.382-1.581 0.427v-13.309zM17.6 9.667v2.133h-8.533v-2.133zM9.067 8.6v-3.2c0-1.178 0.955-2.133 2.133-2.133s2.133 0.955 2.133 2.133v3.2zM17.6 22.235c-1.338-0.399-2.777-0.286-4.037 0.315-1.248 0.599-2.699 0.599-3.947 0-0.179-0.086-0.363-0.163-0.55-0.229v-1.988h8.533zM25.067 8.6h-4.267v-3.2c0-1.178 0.955-2.133 2.133-2.133s2.133 0.955 2.133 2.133zM27.2 8.6h-1.067v-3.2c0-1.767-1.433-3.2-3.2-3.2s-3.2 1.433-3.2 3.2v17.542c-0.366-0.055-0.725-0.155-1.067-0.297v-2.845c0-0.295-0.239-0.533-0.533-0.533h-9.6c-0.295 0-0.533 0.239-0.533 0.533v2.262c-0.353-0.051-0.71-0.069-1.067-0.053v-16.609c0-2.357 1.91-4.267 4.267-4.267s4.267 1.91 4.267 4.267v3.2h-1.067v-3.2c0-1.767-1.433-3.2-3.2-3.2s-3.2 1.433-3.2 3.2v6.933c0 0.295 0.239 0.533 0.533 0.533h9.6c0.295 0 0.533-0.239 0.533-0.533v-6.933c0-2.357 1.91-4.267 4.267-4.267s4.267 1.91 4.267 4.267zM18.133 13.933h-9.6c-0.295 0-0.533 0.239-0.533 0.533v3.2c0 0.295 0.239 0.533 0.533 0.533h9.6c0.295 0 0.533-0.239 0.533-0.533v-3.2c0-0.295-0.239-0.533-0.533-0.533zM17.6 17.133h-8.533v-2.133h8.533zM24.427 15.747c0.602-0.451 0.808-1.261 0.495-1.946s-1.060-1.058-1.796-0.898-1.259 0.811-1.259 1.563v2.133c0 0.202 0.114 0.387 0.295 0.477s0.397 0.071 0.559-0.051zM23.787 14.893l-0.853 0.64v-1.067c0-0.251 0.175-0.468 0.42-0.521s0.494 0.071 0.598 0.299c0.104 0.228 0.036 0.498-0.165 0.648zM2.24 18.413l1.706 1.28c0.162 0.121 0.378 0.141 0.559 0.051s0.295-0.275 0.295-0.477v-2.133c0-0.752-0.524-1.403-1.259-1.563s-1.483 0.214-1.796 0.898c-0.313 0.684-0.107 1.494 0.495 1.946zM3.2 16.6c0.295 0 0.533 0.239 0.533 0.533v1.067l-0.853-0.64c-0.184-0.138-0.259-0.377-0.186-0.595s0.276-0.365 0.506-0.365zM23.467 20.867c0.036 0 0.072-0.003 0.107-0.011l1.852-0.37c0.733-0.153 1.254-0.806 1.242-1.555 0.002-0.743-0.525-1.382-1.254-1.522s-1.455 0.258-1.73 0.948l-0.711 1.779c-0.066 0.164-0.045 0.351 0.054 0.497s0.265 0.234 0.442 0.234zM24.674 18.753c0.073-0.183 0.249-0.303 0.446-0.302 0.052-0 0.103 0.008 0.151 0.025 0.207 0.073 0.341 0.274 0.329 0.494 0 0.229-0.162 0.427-0.387 0.471l-0.886 0.177z"></path>
</svg>
