<!-- Generated by IcoMoon.io -->
<svg version="1.1" xmlns="http://www.w3.org/2000/svg" width="32" height="32" viewBox="0 0 32 32">
<title>radiation</title>
<path d="M16 19.247c0.47 0 0.935-0.097 1.365-0.285l3.34 5.9c0.011 0.018 0.024 0.034 0.038 0.049 0.008 0.012 0.017 0.023 0.026 0.034 0.018 0.017 0.037 0.032 0.058 0.045 0.008 0.006 0.015 0.013 0.024 0.018 0.022 0.012 0.046 0.022 0.070 0.029 0.009 0.003 0.016 0.008 0.025 0.010 0.066 0.017 0.134 0.017 0.2 0 0.010-0.002 0.018-0.008 0.028-0.011 0.023-0.007 0.046-0.016 0.067-0.027 3.296-1.887 5.331-5.392 5.338-9.19 0-0.217-0.176-0.394-0.394-0.394h-5.62c-0.217 0-0.394 0.176-0.394 0.394s0.176 0.394 0.394 0.394h5.214c-0.135 3.23-1.852 6.188-4.59 7.907l-3.143-5.554c0.877-0.649 1.391-1.678 1.384-2.769s-0.535-2.113-1.42-2.751l3.36-5.892c0.013-0.027 0.022-0.055 0.027-0.084 0.009-0.021 0.016-0.042 0.021-0.063 0.002-0.032-0.001-0.063-0.007-0.094-0-0.019-0.002-0.038-0.005-0.057-0.011-0.034-0.027-0.067-0.048-0.097-0.006-0.013-0.012-0.026-0.019-0.038-0.021-0.023-0.044-0.043-0.070-0.061-0.015-0.015-0.031-0.029-0.048-0.042-3.24-1.836-7.206-1.836-10.446 0-0.017 0.013-0.033 0.027-0.048 0.042-0.026 0.018-0.049 0.038-0.070 0.061-0.007 0.012-0.013 0.025-0.019 0.038-0.020 0.030-0.036 0.063-0.048 0.097-0.003 0.019-0.004 0.038-0.005 0.057-0.006 0.031-0.008 0.063-0.007 0.094 0.005 0.022 0.012 0.042 0.021 0.063 0.006 0.029 0.015 0.057 0.028 0.084l2.743 4.808c0.108 0.189 0.348 0.255 0.537 0.147s0.255-0.348 0.147-0.537l-2.541-4.454c2.813-1.454 6.157-1.454 8.97 0l-3.16 5.541c-0.994-0.417-2.127-0.342-3.057 0.203s-1.55 1.496-1.672 2.567h-6.782c-0.217 0-0.394 0.176-0.394 0.394 0.010 3.761 2.006 7.236 5.25 9.138 0.006 0.004 0.014 0.006 0.021 0.009 0.185 0.098 0.414 0.031 0.517-0.15l2.716-4.65c0.074-0.121 0.077-0.274 0.008-0.398s-0.201-0.201-0.344-0.201-0.274 0.077-0.343 0.202l-2.51 4.299c-2.694-1.729-4.378-4.66-4.514-7.858h6.375c0.201 1.729 1.664 3.033 3.405 3.036zM16 13.176c1.459 0 2.642 1.183 2.642 2.642s-1.183 2.642-2.642 2.642c-1.459 0-2.642-1.183-2.642-2.642 0.001-1.459 1.183-2.641 2.642-2.642zM16 2.033c-6.7 0-12.463 4.744-13.75 11.32s2.263 13.142 8.47 15.668c6.207 2.525 13.332 0.302 17.002-5.304s2.857-13.026-1.941-17.704c-0.156-0.152-0.405-0.149-0.557 0.007s-0.149 0.405 0.007 0.556c5.102 4.983 5.324 13.117 0.501 18.371s-12.947 5.726-18.346 1.067c-5.4-4.659-6.122-12.764-1.633-18.305s12.569-6.513 18.246-2.196c0.112 0.088 0.262 0.109 0.394 0.055s0.223-0.175 0.24-0.316-0.043-0.281-0.157-0.365c-2.433-1.86-5.413-2.863-8.476-2.854zM4.117 25.544c-0.136-0.167-0.382-0.193-0.551-0.058s-0.197 0.38-0.064 0.55c0.084 0.105 0.17 0.21 0.258 0.315 0.141 0.161 0.386 0.18 0.55 0.042s0.187-0.382 0.052-0.549c-0.083-0.099-0.165-0.199-0.246-0.3zM16 0.044c-5.863 0.001-11.256 3.208-14.056 8.359s-2.56 11.421 0.627 16.342c0.118 0.183 0.362 0.235 0.545 0.116s0.235-0.362 0.117-0.545c-4.39-6.766-2.741-15.782 3.759-20.557s15.596-3.654 20.742 2.557c5.145 6.211 4.555 15.357-1.346 20.855s-15.066 5.441-20.898-0.13c-0.157-0.15-0.406-0.145-0.557 0.012s-0.145 0.406 0.012 0.556c5.202 4.974 13.085 5.861 19.263 2.169s9.131-11.054 7.216-17.992c-1.915-6.938-8.226-11.743-15.423-11.743z"></path>
</svg>
