<!-- Generated by IcoMoon.io -->
<svg version="1.1" xmlns="http://www.w3.org/2000/svg" width="32" height="32" viewBox="0 0 32 32">
<title>satellite-9</title>
<path d="M26.346 17.134c1.087-1.087 1.196-2.968 0.306-5.296-0.443-1.161-1.111-2.373-1.956-3.573l0.975-3.914c0.652-0.773 0.615-1.933-0.113-2.66s-1.888-0.765-2.66-0.113l-3.914 0.975c-1.2-0.846-2.413-1.513-3.573-1.956-2.328-0.889-4.209-0.781-5.296 0.306-4.443 4.443-4.474 11.652-0.095 16.135l-3.462 11.842h-1.249c-0.308 0-0.557 0.249-0.557 0.557v2.006c0 0.308 0.249 0.557 0.557 0.557h14.774c0.308 0 0.557-0.249 0.557-0.557v-2.006c0-0.308-0.249-0.557-0.557-0.557h-1.253l-2.585-8.561c0.656 0.114 1.32 0.172 1.985 0.172 2.939 0 5.878-1.119 8.116-3.356zM25.611 12.236c0.713 1.866 0.693 3.364-0.053 4.11-0.588 0.588-1.643 0.725-2.977 0.408l1.751-7.029c0.535 0.85 0.968 1.695 1.279 2.511zM14.782 11.679c-1.817-1.902-3.205-3.973-3.933-5.878-0.009-0.022-0.017-0.045-0.025-0.067l7.927-1.975c0.725 0.539 1.444 1.146 2.139 1.811l-6.108 6.108zM21.678 6.358c0.665 0.696 1.273 1.415 1.811 2.139l-1.975 7.927c-0.022-0.008-0.045-0.016-0.067-0.025-1.905-0.728-3.976-2.116-5.878-3.933l6.108-6.108zM22.467 5.57l0.759-0.759c0.292 0.159 0.617 0.239 0.941 0.239 0.062 0 0.123-0.003 0.184-0.009l-0.518 2.081c-0.424-0.526-0.881-1.046-1.366-1.552zM23.562 2.478c0.166-0.167 0.385-0.25 0.604-0.25s0.438 0.083 0.604 0.25c0.333 0.333 0.333 0.875 0 1.208s-0.875 0.333-1.208 0c-0.333-0.333-0.333-0.875 0-1.208zM22.207 2.898c-0.036 0.385 0.041 0.778 0.23 1.125l-0.759 0.759c-0.507-0.485-1.026-0.941-1.552-1.366l2.081-0.518zM10.902 1.69c0.383-0.383 0.962-0.574 1.688-0.574 0.69 0 1.513 0.173 2.422 0.521 0.815 0.311 1.661 0.744 2.511 1.279l-7.029 1.751c-0.317-1.334-0.181-2.389 0.408-2.977zM9.235 3.871c0.062 0.707 0.252 1.488 0.573 2.328 0.834 2.182 2.459 4.55 4.575 6.667s4.485 3.742 6.667 4.576c0.839 0.321 1.62 0.511 2.327 0.573-3.957 2.263-9.1 1.707-12.475-1.668s-3.931-8.518-1.667-12.476zM10.934 17.879c0.386 0.319 0.789 0.608 1.204 0.869v10.132h-4.42l3.216-11.001zM19.526 30.886h-13.66v-0.891h13.66v0.891zM17.666 28.88h-4.414v-9.519c0.565 0.271 1.147 0.494 1.741 0.667l2.673 8.852z"></path>
</svg>
