<!-- Generated by IcoMoon.io -->
<svg version="1.1" xmlns="http://www.w3.org/2000/svg" width="32" height="32" viewBox="0 0 32 32">
<title>run-4</title>
<path d="M26.57 18.835l-1.295-1.295c-0.092-0.107-0.228-0.175-0.38-0.175-0.276 0-0.5 0.224-0.5 0.5 0 0.152 0.067 0.288 0.174 0.379l0.001 0.001 0.93 0.94-1.41 1.415-1.090-1.1c-0.361-0.359-0.86-0.581-1.409-0.581-0.739 0-1.384 0.401-1.73 0.997l-0.005 0.010-0.75 1.315-1.855-1.070 1-3.17h4.645c0.276 0 0.5-0.224 0.5-0.5s-0.224-0.5-0.5-0.5v0h-4.5v-6c0.002-0.155 0.029-0.302 0.078-0.44l-0.003 0.009s0 0 0 0c0.191-0.624 0.762-1.070 1.437-1.070 0.005 0 0.009 0 0.014 0h2.999c0.828 0 1.5 0.672 1.5 1.5v0c0 0.276 0.224 0.5 0.5 0.5s0.5-0.224 0.5-0.5v0c-0.005-1.147-0.782-2.111-1.837-2.401l-0.018-0.004c0.528-0.54 0.854-1.279 0.855-2.095v-0.71c0.89-0.396 1.499-1.272 1.5-2.29v-1c0-0.276-0.224-0.5-0.5-0.5v0h-6c-0.276 0-0.5 0.224-0.5 0.5s0.224 0.5 0.5 0.5v0h5.5v0.5c0 0.828-0.672 1.5-1.5 1.5v0h-3c-0.276 0-0.5 0.224-0.5 0.5v0 1c0 0.276-0.224 0.5-0.5 0.5v0h-0.5c-0.552 0-1-0.448-1-1v0-1.5c0-0.276-0.224-0.5-0.5-0.5s-0.5 0.224-0.5 0.5v0 1.5c0 0.001 0 0.001 0 0.002 0 1.073 0.845 1.949 1.906 1.998l0.004 0c0.129 0.229 0.28 0.426 0.455 0.6l0 0c-0.775 0.21-1.389 0.764-1.679 1.483l-0.006 0.017-2.94 1.695c-0.703 0.415-1.217 1.087-1.416 1.884l-0.004 0.021-0.815 3.435c-0.032 0.125-0.050 0.269-0.050 0.417 0 0.811 0.55 1.494 1.298 1.695l0.012 0.003c0.138 0.038 0.296 0.059 0.46 0.060h0c0.002 0 0.005 0 0.007 0 0.811 0 1.494-0.55 1.695-1.298l0.003-0.012 0.65-2.365c0.011-0.039 0.017-0.084 0.017-0.13 0-0.285-0.231-0.517-0.517-0.517-0.239 0-0.44 0.162-0.499 0.383l-0.001 0.004-0.63 2.355c-0.053 0.202-0.181 0.367-0.351 0.468l-0.004 0.002c-0.111 0.063-0.245 0.1-0.386 0.1-0.071 0-0.139-0.009-0.204-0.026l0.006 0.001c-0.329-0.088-0.568-0.384-0.568-0.735 0-0.066 0.008-0.129 0.024-0.19l-0.001 0.005 0.815-3.435c0.134-0.544 0.476-0.991 0.936-1.26l0.009-0.005 2.26-1.305v6.035l-1.23 3.81-0.58 1-4.33 2.5c-0.152 0.088-0.252 0.249-0.252 0.434 0 0.092 0.025 0.179 0.069 0.253l-0.001-0.002 1.5 2.595c0.127 0.215 0.201 0.474 0.201 0.751 0 0.138-0.019 0.273-0.054 0.4l0.002-0.011c-0.063 0.227-0.168 0.425-0.307 0.593l0.002-0.003-2.21-3.825c-0.085-0.161-0.252-0.268-0.443-0.268-0.276 0-0.5 0.224-0.5 0.5 0 0.1 0.029 0.192 0.079 0.27l-0.001-0.002 2.5 4.33c0.088 0.151 0.249 0.25 0.433 0.25 0.001 0 0.001 0 0.002 0h-0c0.002 0 0.003 0 0.005 0 0.089 0 0.172-0.026 0.241-0.071l-0.002 0.001c0.568-0.324 0.987-0.852 1.161-1.483l0.004-0.017c0.055-0.196 0.087-0.421 0.087-0.654 0-0.281-0.046-0.552-0.132-0.804l0.005 0.018 4.845-2.785c0.076-0.047 0.138-0.109 0.184-0.183l0.001-0.002 1.040-1.82 1-1.745c0.176-0.303 0.498-0.503 0.868-0.503 0.274 0 0.522 0.11 0.702 0.288l-0-0 1.47 1.46 0.355 0.355-3.185 3.18c-0.091 0.091-0.148 0.216-0.148 0.355s0.057 0.264 0.148 0.355l2.12 2.12c0.272 0.272 0.44 0.647 0.44 1.061 0 0.234-0.054 0.455-0.149 0.653l0.004-0.009-3.12-3.12c-0.093-0.095-0.222-0.154-0.365-0.154-0.281 0-0.509 0.228-0.509 0.509 0 0.138 0.055 0.263 0.144 0.355l3.535 3.535c0.092 0.088 0.217 0.143 0.355 0.145h0c0.001 0 0.002 0 0.003 0 0.137 0 0.262-0.055 0.352-0.145l-0 0c0.452-0.452 0.732-1.077 0.732-1.768 0-0.515-0.156-0.994-0.423-1.391l0.006 0.009 3.94-3.925c0.452-0.452 0.732-1.077 0.732-1.767s-0.28-1.315-0.732-1.767v0zM20.92 5.5v-0.5h2.5v0.5c-0.013 1.095-0.903 1.977-2 1.977-0.555 0-1.058-0.226-1.42-0.592l-0-0c0.545-0.233 0.92-0.764 0.92-1.383 0-0.001 0-0.001 0-0.002v0zM13.21 26.050l-0.5-0.865-0.5-0.87 0.87-0.5 1 1.73zM17.86 23.365l-2.915 1.685-1-1.735 2.28-1.315c0.077-0.045 0.14-0.108 0.184-0.183l0.001-0.002 0.42-0.73 0.83 0.5 0.925 0.53zM23.385 26.965l-1.415-1.415 0.71-0.705 1.415 1.41zM27.275 23.075l-2.475 2.5-1.415-1.415 1.77-1.765c0.091-0.091 0.148-0.216 0.148-0.355s-0.057-0.264-0.148-0.355l-0-0-0.355-0.35 1.415-1.415 1.060 1.060c0.264 0.27 0.426 0.64 0.426 1.047s-0.163 0.777-0.427 1.048l0-0zM29.23 12.5h-3.5l-3.2-3.2c-0.091-0.091-0.216-0.148-0.355-0.148s-0.264 0.057-0.355 0.148l-0 0c-0.090 0.090-0.145 0.215-0.145 0.352s0.056 0.262 0.145 0.353l1.77 1.77-1.060 1.060-1.77-1.765c-0.092-0.107-0.228-0.175-0.38-0.175-0.276 0-0.5 0.224-0.5 0.5 0 0.152 0.067 0.288 0.174 0.379l0.001 0.001 3.5 3.5c0.542 0.543 1.292 0.879 2.12 0.88h0.085l3.525-0.1c0.927-0.063 1.654-0.829 1.654-1.766 0-0.954-0.755-1.732-1.701-1.769l-0.003-0zM29.23 15.035l-3.53 0.1c-0.017 0.001-0.036 0.001-0.056 0.001-0.552 0-1.052-0.224-1.414-0.586l-1-1 1.080-1.050 0.87 0.875c0.092 0.088 0.217 0.143 0.355 0.145h3.695c0.398 0.033 0.708 0.364 0.708 0.768s-0.31 0.734-0.705 0.767l-0.003 0zM13.5 3c0-0.276-0.224-0.5-0.5-0.5v0h-10.5c-0.276 0-0.5 0.224-0.5 0.5s0.224 0.5 0.5 0.5v0h10.5c0.276 0 0.5-0.224 0.5-0.5v0zM6.5 7.5c0 0.276 0.224 0.5 0.5 0.5v0h7.5c0.276 0 0.5-0.224 0.5-0.5s-0.224-0.5-0.5-0.5v0h-7.5c-0.276 0-0.5 0.224-0.5 0.5v0zM10.5 14c0.276 0 0.5-0.224 0.5-0.5s-0.224-0.5-0.5-0.5v0h-6.5c-0.276 0-0.5 0.224-0.5 0.5s0.224 0.5 0.5 0.5v0zM8 19.5c-0.276 0-0.5 0.224-0.5 0.5s0.224 0.5 0.5 0.5v0h3.5c0.276 0 0.5-0.224 0.5-0.5s-0.224-0.5-0.5-0.5v0zM9 28h-4.5c-0.276 0-0.5 0.224-0.5 0.5s0.224 0.5 0.5 0.5v0h4.5c0.276 0 0.5-0.224 0.5-0.5s-0.224-0.5-0.5-0.5v0z"></path>
</svg>
