<!-- Generated by IcoMoon.io -->
<svg version="1.1" xmlns="http://www.w3.org/2000/svg" width="32" height="32" viewBox="0 0 32 32">
<title>security-3</title>
<path d="M21.625 28.062c-0.345 0-0.625 0.28-0.625 0.625s0.28 0.625 0.625 0.625c0.345 0 0.625-0.28 0.625-0.625s-0.28-0.625-0.625-0.625zM27.527 22.487c-0.637-0.936-1.53-1.652-2.583-2.068l-4.585-1.814c1.199-1.166 1.891-2.774 1.891-4.479 0-0.674-0.105-1.33-0.313-1.959 0.191-0.11 0.313-0.315 0.313-0.541v-1.915l1.091-2.182 1.064-0.532c0.212-0.106 0.346-0.322 0.346-0.559v-1.875c0-0.269-0.172-0.508-0.427-0.593l-1.777-0.592-4.293-3.25c-0.109-0.082-0.241-0.127-0.377-0.127h-3.75c-0.136 0-0.269 0.044-0.377 0.127l-4.293 3.25-1.777 0.592c-0.255 0.085-0.427 0.324-0.427 0.593v1.875c0 0.237 0.134 0.453 0.346 0.559l1.064 0.532 1.091 2.182v1.915c0 0.227 0.122 0.431 0.313 0.541-0.208 0.628-0.313 1.285-0.313 1.959 0 1.704 0.692 3.312 1.89 4.478l-4.585 1.815c-1.053 0.417-1.946 1.132-2.582 2.068s-0.973 2.030-0.973 3.162v5.727c0 0.345 0.28 0.625 0.625 0.625h11.249c0.001 0 0.001 0 0.001 0s0.001-0 0.001-0h1.246c0 0 0.001 0 0.001 0s0.001-0 0.001-0h11.249c0.345 0 0.625-0.28 0.625-0.625v-5.726c-0-1.132-0.337-2.226-0.973-3.162zM22.323 20.725l-3.823 6.334v-1.892c0-0.404-0.133-0.803-0.375-1.125l-1.103-1.471c0.513-0.335 0.853-0.914 0.853-1.571v-0.912c0.466-0.146 0.91-0.345 1.33-0.597l3.119 1.234zM9.684 6.783c-0.060-0.121-0.159-0.219-0.28-0.279l-0.905-0.452v-1.038l1.448-0.483c0.065-0.022 0.125-0.053 0.18-0.095l4.208-3.186h3.33l4.208 3.186c0.054 0.041 0.115 0.073 0.18 0.095l1.448 0.483v1.038l-0.904 0.452c-0.121 0.061-0.219 0.159-0.28 0.279l-1.077 2.154h-10.477l-1.077-2.155zM11 10.187h10v0.985l-1.634 0.538c-1.091 0.358-2.226 0.54-3.373 0.54-0.575 0-1.153-0.046-1.719-0.138-0.565-0.091-1.128-0.229-1.675-0.409l-1.207-0.399c-0.054-0.063-0.121-0.116-0.2-0.154-0.062-0.030-0.127-0.049-0.193-0.058v-0.904zM11 14.125c0-0.535 0.083-1.055 0.246-1.553l0.961 0.318c0.61 0.201 1.239 0.355 1.868 0.457 0.631 0.102 1.277 0.154 1.918 0.154 1.28 0 2.545-0.203 3.763-0.603l0.997-0.328c0.164 0.499 0.247 1.020 0.247 1.556 0 1.659-0.819 3.204-2.192 4.137-0.010 0.006-0.019 0.013-0.028 0.019-0.509 0.342-1.070 0.584-1.668 0.72-0.724 0.164-1.499 0.164-2.223 0-0.601-0.136-1.166-0.381-1.679-0.727-1.383-0.932-2.209-2.483-2.209-4.149zM16.625 20.343v0.657c0 0.345-0.28 0.625-0.625 0.625-0.167 0-0.324-0.065-0.442-0.183s-0.183-0.275-0.183-0.442v-0.657c0.207 0.021 0.416 0.032 0.625 0.032s0.418-0.011 0.625-0.032zM12.795 19.49c0.42 0.252 0.865 0.451 1.33 0.597v0.912c0 0.501 0.195 0.971 0.549 1.326 0.093 0.093 0.195 0.175 0.303 0.246l-1.102 1.47c-0.242 0.322-0.375 0.722-0.375 1.125v1.893l-3.823-6.335 3.118-1.234zM4.75 30.75v-5.102c0-1.806 1.085-3.403 2.765-4.068l0.983-0.389 5.769 9.559h-9.518zM17.25 29.13l-0.978 1.62h-0.545l-0.978-1.619v-3.964c0-0.135 0.044-0.268 0.125-0.375l1.125-1.5 1.125 1.501c0.080 0.107 0.125 0.24 0.125 0.375v3.963zM17.732 30.75l5.77-9.558 0.982 0.389c1.68 0.665 2.766 2.262 2.766 4.068v5.101h-9.518zM16 2.688c-1.379 0-2.5 1.122-2.5 2.5s1.121 2.5 2.5 2.5c1.379 0 2.5-1.122 2.5-2.5s-1.122-2.5-2.5-2.5zM16 6.438c-0.689 0-1.25-0.561-1.25-1.25s0.561-1.25 1.25-1.25c0.689 0 1.25 0.561 1.25 1.25s-0.561 1.25-1.25 1.25zM25.375 28.062h-1.25c-0.345 0-0.625 0.28-0.625 0.625s0.28 0.625 0.625 0.625h1.25c0.345 0 0.625-0.28 0.625-0.625s-0.28-0.625-0.625-0.625z"></path>
</svg>
