<!-- Generated by IcoMoon.io -->
<svg version="1.1" xmlns="http://www.w3.org/2000/svg" width="32" height="32" viewBox="0 0 32 32">
<title>security-cam3</title>
<path d="M10.933 14.4c3.529 0 6.4-2.871 6.4-6.4s-2.871-6.4-6.4-6.4-6.4 2.871-6.4 6.4 2.871 6.4 6.4 6.4zM10.933 2.667c2.941 0 5.333 2.393 5.333 5.333s-2.393 5.333-5.333 5.333-5.333-2.393-5.333-5.333 2.393-5.333 5.333-5.333zM10.933 12.267c2.353 0 4.267-1.914 4.267-4.267s-1.914-4.267-4.267-4.267-4.267 1.914-4.267 4.267 1.914 4.267 4.267 4.267zM10.933 4.8c1.765 0 3.2 1.435 3.2 3.2s-1.435 3.2-3.2 3.2-3.2-1.435-3.2-3.2 1.435-3.2 3.2-3.2zM16.8 2.133c0 0.295-0.239 0.533-0.533 0.533s-0.533-0.239-0.533-0.533c0-0.295 0.239-0.533 0.533-0.533s0.533 0.239 0.533 0.533zM9.333 8c0-0.882 0.718-1.6 1.6-1.6 0.294 0 0.533-0.239 0.533-0.533s-0.239-0.533-0.533-0.533c-1.47 0-2.667 1.196-2.667 2.667 0 0.294 0.239 0.533 0.533 0.533s0.533-0.239 0.533-0.533zM29.067 22.75l-8.938 2.682c-0.734-0.874-1.834-1.431-3.062-1.431-0.178 0-0.352 0.016-0.524 0.038l-3.393-3.878c0.475-0.373 0.81-0.884 0.93-1.494h2.721c1.216 0 2.133-0.98 2.133-2.281v-14.106c0-1.3-0.917-2.281-2.133-2.281h-11.586c-1.258 0-2.281 1.023-2.281 2.281v14.105c0 1.207 0.946 2.188 2.133 2.266v0.015h3.254c0.101 0.511 0.351 0.953 0.707 1.303l4.34 6.51c-0.193 0.469-0.301 0.981-0.301 1.519 0 2.206 1.794 4 4 4 1.794 0 3.315-1.187 3.821-2.815l8.179-2.105v-4.33zM4 16.386v-14.106c0-0.669 0.545-1.214 1.214-1.214h11.586c0.733 0 1.067 0.629 1.067 1.214v14.105c0 0.585-0.334 1.214-1.067 1.214v-0.573c0-1.155-0.939-2.094-2.094-2.094h-7.546c-1.155 0.001-2.094 0.94-2.094 2.094v0.558c-0.599-0.074-1.067-0.58-1.067-1.199zM6.133 17.027c0-0.566 0.461-1.027 1.027-1.027h7.546c0.566 0 1.027 0.461 1.027 1.027v0.573h-9.6v-0.573zM12.983 18.667c-0.25 0.733-1.019 1.067-1.783 1.067s-1.533-0.334-1.783-1.067h3.566zM10.863 20.8h1.428l3.117 3.563c-0.009 0.004-0.017 0.009-0.025 0.013-0.119 0.056-0.236 0.117-0.349 0.184-0.021 0.012-0.042 0.025-0.063 0.038-0.106 0.065-0.207 0.135-0.306 0.21-0.020 0.014-0.039 0.029-0.059 0.044-0.107 0.083-0.209 0.172-0.307 0.265-0.007 0.007-0.014 0.013-0.022 0.020-0.108 0.105-0.21 0.214-0.306 0.33l-3.11-4.667zM17.067 30.933c-1.618 0-2.933-1.316-2.933-2.933 0-0.479 0.118-0.931 0.323-1.331 0.373-0.729 1.037-1.273 1.823-1.492l0.003-0.001c0.25-0.069 0.512-0.109 0.784-0.109 1.009 0 1.901 0.513 2.429 1.291 0.069 0.103 0.131 0.211 0.186 0.319 0.014 0.028 0.027 0.056 0.041 0.084 0.052 0.111 0.099 0.225 0.137 0.342 0.008 0.024 0.014 0.049 0.022 0.073 0.030 0.107 0.055 0.217 0.074 0.327l0.014 0.093c0.018 0.132 0.031 0.266 0.031 0.403 0 0.049-0.005 0.097-0.007 0.146-0.001 0.009-0.001 0.015-0.002 0.025-0.010 0.165-0.030 0.321-0.061 0.462-0.289 1.314-1.462 2.301-2.862 2.301zM28 26.253l-6.933 1.783c0-0.012 0-0.024 0-0.037 0-0.099-0.006-0.203-0.016-0.311-0.006-0.075-0.014-0.148-0.024-0.222-0.001-0.006-0.001-0.011-0.002-0.017l-0.019-0.126c-0.001-0.006-0.003-0.011-0.004-0.018-0.012-0.068-0.025-0.135-0.041-0.202-0.022-0.103-0.046-0.198-0.070-0.273l-0.002-0.004c-0.003-0.010-0.006-0.020-0.009-0.030l-0.013-0.042c-0.009-0.028-0.024-0.059-0.035-0.087-0.035-0.1-0.073-0.198-0.116-0.293-0.001-0.002-0.002-0.004-0.003-0.006l7.285-2.186v2.070z"></path>
</svg>
