<!-- Generated by IcoMoon.io -->
<svg version="1.1" xmlns="http://www.w3.org/2000/svg" width="32" height="32" viewBox="0 0 32 32">
<title>cafe</title>
<path d="M30.666 14.666c-0.367 0-0.666 0.299-0.666 0.667v7.332h-6c-0.368 0-0.666 0.299-0.666 0.668v8c0 0.367 0.298 0.666 0.666 0.666s0.666-0.299 0.666-0.666v-5.334h5.334v5.334c0 0.367 0.299 0.666 0.666 0.666 0.369 0 0.668-0.299 0.668-0.666v-16c-0-0.368-0.299-0.667-0.668-0.667zM30 24.666h-5.334v-0.666h5.334v0.666zM8 22.666h-6v-7.332c0-0.368-0.298-0.667-0.667-0.667s-0.667 0.299-0.667 0.667v16c0 0.367 0.299 0.666 0.667 0.666s0.667-0.299 0.667-0.666v-5.334h5.333v5.334c0 0.367 0.298 0.666 0.667 0.666s0.667-0.299 0.667-0.666v-8c0-0.369-0.298-0.668-0.667-0.668zM7.333 24.666h-5.333v-0.666h5.333v0.666zM30.894 6.707l-14.228-5.173v-0.867c0-0.368-0.298-0.667-0.667-0.667s-0.667 0.298-0.667 0.667v0.867l-14.228 5.173c-0.263 0.096-0.439 0.347-0.439 0.627v1.333c0 0.368 0.299 0.667 0.667 0.667h14v8.666h-8.667c-0.368 0-0.667 0.299-0.667 0.666v2c0 0.369 0.298 0.668 0.667 0.668h7.333v9.332h-2c-0.368 0-0.667 0.299-0.667 0.668 0 0.367 0.298 0.666 0.667 0.666h8c0.368 0 0.666-0.299 0.666-0.666 0-0.369-0.298-0.668-0.666-0.668h-2v-9.332h7.334c0.367 0 0.666-0.299 0.666-0.668v-2c0-0.367-0.299-0.666-0.666-0.666h-8.668v-8.666h13.999c0.369 0 0.668-0.299 0.668-0.667v-1.333c0-0.28-0.176-0.531-0.439-0.627zM16.666 30.666h-1.333v-9.332h1.333v9.332zM24.666 19.334v0.666h-17.332v-0.666h17.332zM30 8h-28v-0.2l14-5.091 14 5.091v0.2z"></path>
</svg>
