<!-- Generated by IcoMoon.io -->
<svg version="1.1" xmlns="http://www.w3.org/2000/svg" width="32" height="32" viewBox="0 0 32 32">
<title>smart-house</title>
<path d="M28.034 17.159l-11.733-8c-0.182-0.124-0.42-0.123-0.602 0.001-4.478 3.069-11.237 7.691-11.682 7.969-0.169 0.090-0.283 0.267-0.283 0.471v1.6c0 0.295 0.238 0.533 0.533 0.533h1.6v-1.067h-1.067v-0.794c0.875-0.551 3.383-2.27 11.201-7.627l11.199 7.636v0.785h-1.067v1.067h1.6c0.295 0 0.533-0.238 0.533-0.533v-1.6c0-0.177-0.087-0.341-0.233-0.441zM16 12.8c-1.177 0-2.133 0.957-2.133 2.133s0.957 2.133 2.133 2.133 2.133-0.957 2.133-2.133-0.957-2.133-2.133-2.133zM16 16c-0.588 0-1.067-0.478-1.067-1.067s0.478-1.067 1.067-1.067c0.588 0 1.067 0.478 1.067 1.067s-0.478 1.067-1.067 1.067zM21.867 19.2h-3.2c-0.295 0-0.533 0.238-0.533 0.533v7.467c0 0.295 0.238 0.533 0.533 0.533h3.2c0.295 0 0.533-0.238 0.533-0.533v-7.467c0-0.295-0.238-0.533-0.533-0.533zM21.333 26.667h-2.133v-1.067h2.133v1.067zM21.333 24.533h-2.133v-4.267h2.133v4.267zM28.8 28.8h-1.067v-1.21c0.702-0.404 1.067-1.603 1.067-2.79 0-1.458-0.549-2.933-1.6-2.933s-1.6 1.476-1.6 2.933c0 1.187 0.364 2.385 1.067 2.79v1.21h-2.133v-10.667h-1.067v10.667h-6.4v-9.067c0-0.295-0.238-0.533-0.533-0.533h-6.4c-0.295 0-0.533 0.238-0.533 0.533v9.067h-1.067v-10.667h-1.067v10.667h-2.133v-1.21c0.702-0.404 1.067-1.603 1.067-2.79 0-1.458-0.549-2.933-1.6-2.933s-1.6 1.476-1.6 2.933c0 1.187 0.364 2.385 1.067 2.79v1.21h-1.067c-0.295 0-0.533 0.238-0.533 0.533v2.133c0 0.295 0.238 0.533 0.533 0.533h25.6c0.295 0 0.533-0.238 0.533-0.533v-2.133c0-0.295-0.238-0.533-0.533-0.533zM27.189 22.932c0.15 0.049 0.545 0.697 0.545 1.868s-0.394 1.819-0.522 1.868c-0.15-0.049-0.545-0.697-0.545-1.868s0.394-1.819 0.522-1.868zM13.867 20.267h2.133v8.533h-2.133v-8.533zM10.667 20.267h2.133v8.533h-2.133v-8.533zM4.789 22.932c0.15 0.049 0.545 0.697 0.545 1.868s-0.394 1.819-0.522 1.868c-0.15-0.049-0.545-0.697-0.545-1.868s0.394-1.819 0.522-1.868zM28.267 30.933h-24.533v-1.067h24.533v1.067zM16 0c-3.426 0-6.523 1.898-8.081 4.952l0.95 0.484c1.375-2.695 4.108-4.37 7.131-4.37s5.755 1.674 7.131 4.369l0.95-0.484c-1.558-3.054-4.654-4.951-8.081-4.951zM16 3.2c-2.637 0-4.965 1.775-5.66 4.317l1.029 0.281c0.569-2.079 2.473-3.531 4.631-3.531s4.063 1.453 4.631 3.532l1.029-0.281c-0.694-2.542-3.021-4.318-5.66-4.318zM16 6.279c-1.482 0-2.79 0.997-3.181 2.426l1.029 0.281c0.264-0.966 1.149-1.641 2.151-1.641s1.888 0.675 2.152 1.641l1.029-0.281c-0.391-1.429-1.699-2.427-3.181-2.427z"></path>
</svg>
