<!-- Generated by IcoMoon.io -->
<svg version="1.1" xmlns="http://www.w3.org/2000/svg" width="32" height="32" viewBox="0 0 32 32">
<title>spa-4</title>
<path d="M31.466 25.333h-0.593c1.473-1.434 1.505-3.79 0.072-5.263-0.227-0.234-0.485-0.437-0.765-0.603 1.127-0.673 1.817-1.888 1.819-3.2-0.003-2.061-1.673-3.731-3.733-3.733h-4.8v-3.733c-0-0.295-0.239-0.533-0.534-0.533-0.027 0-0.054 0.002-0.081 0.006l-6.319 0.972v-0.498c1.241-0.255 2.132-1.347 2.133-2.613 0-2.327-2.196-4.55-2.29-4.644-0.208-0.208-0.546-0.208-0.754 0-0.094 0.093-2.29 2.316-2.29 4.644 0.002 1.267 0.893 2.358 2.133 2.613v0.663l-6.481 0.997c-0.26 0.040-0.452 0.263-0.452 0.526v5.942c-0.39-0.42-0.839-0.781-1.333-1.070-0.165-0.095-0.368-0.095-0.533 0-1.575 0.915-2.638 2.507-2.88 4.312-0.369-0.076-0.744-0.115-1.12-0.118-0.235 0.001-0.47 0.016-0.704 0.046-0.189 0.023-0.352 0.145-0.427 0.32-1.087 2.549-0.24 5.511 2.030 7.101h-3.566v1.067h1.27l0.919 1.838c0.090 0.181 0.275 0.295 0.477 0.295h20.266c0.295 0 0.533-0.239 0.533-0.533v-1.6h3.404l0.919 1.838c0.090 0.181 0.275 0.295 0.477 0.295h2.133c0.295 0 0.533-0.239 0.533-0.533v-1.6h0.533c0.295 0 0.533-0.239 0.533-0.533v-2.133c0-0.295-0.239-0.533-0.533-0.533zM30.933 22.667c-0.002 1.472-1.195 2.665-2.667 2.667h-9.6c-1.473 0-2.667-1.194-2.667-2.667s1.194-2.667 2.667-2.667h6.933c0.884 0 1.6 0.716 1.6 1.6s-0.716 1.6-1.6 1.6h-5.333c-0.295 0-0.533-0.239-0.533-0.533s0.239-0.533 0.533-0.533h3.733v-1.067h-3.733c-0.884 0-1.6 0.716-1.6 1.6s0.716 1.6 1.6 1.6h5.333c1.472-0.002 2.665-1.195 2.667-2.667-0.002-0.579-0.194-1.141-0.547-1.6h0.547c1.472 0.002 2.665 1.195 2.667 2.667zM26.666 13.6c0.884 0 1.6 0.716 1.6 1.6s-0.716 1.6-1.6 1.6h-5.333c-0.295 0-0.533-0.239-0.533-0.533s0.239-0.533 0.533-0.533h3.733v-1.067h-3.733c-0.884 0-1.6 0.716-1.6 1.6s0.716 1.6 1.6 1.6h5.333c1.472-0.002 2.665-1.195 2.667-2.667-0.001-0.55-0.173-1.086-0.493-1.534 1.436 0.326 2.336 1.754 2.011 3.191-0.274 1.209-1.345 2.069-2.584 2.077h-7.467c-1.473 0-2.667-1.194-2.667-2.667s1.194-2.667 2.667-2.667h5.867zM14.4 6.133c0-1.364 1.027-2.782 1.6-3.467 0.574 0.684 1.6 2.1 1.6 3.467-0.003 0.676-0.43 1.277-1.067 1.502v-0.969h-1.067v0.969c-0.637-0.225-1.064-0.826-1.067-1.502zM6.933 16.895c1.192 0.802 1.963 2.094 2.104 3.523-0.795 0.318-1.512 0.805-2.099 1.429-0.592-0.621-1.311-1.106-2.109-1.42 0.138-1.433 0.91-2.728 2.104-3.532zM9.609 21.338c0.511-0.18 1.049-0.271 1.591-0.271 0.084 0 0.171 0.003 0.262 0.009 0.879 2.501-0.437 5.241-2.938 6.12-0.511 0.18-1.049 0.271-1.591 0.271-0.084 0-0.171-0.003-0.262-0.009-0.879-2.501 0.437-5.241 2.938-6.12zM2.133 22.667c-0.001-0.542 0.091-1.080 0.271-1.591 0.091-0.006 0.179-0.009 0.262-0.009 1.381-0.004 2.695 0.593 3.601 1.636-0.875 1.344-1.151 2.992-0.763 4.548-2.006-0.625-3.372-2.482-3.372-4.583zM10.87 29.6h-7.874l-0.533-1.067h8.941l-0.533 1.067zM16 29.6h-3.937l0.533-1.067h1.27v-1.067h-3.571c2.273-1.587 3.122-4.55 2.035-7.1-0.075-0.175-0.237-0.297-0.427-0.32-0.607-0.078-1.222-0.056-1.822 0.064-0.083-0.593-0.257-1.17-0.516-1.71h0.034v-7.009l12.8-1.969v3.111h-1.6c-2.059-0.003-3.731 1.664-3.733 3.724-0.001 1.022 0.417 2 1.157 2.705-2.044 0.241-3.506 2.094-3.265 4.139 0.1 0.848 0.488 1.636 1.1 2.233h-0.593c-0.295 0-0.533 0.239-0.533 0.533v2.133c0 0.295 0.239 0.533 0.533 0.533h0.533v1.067zM18.337 29.6h-1.27v-1.067h1.804l-0.533 1.067zM22.4 29.6h-2.87l0.533-1.067h2.337v1.067zM29.866 29.6h-1.27l-0.533-1.067h1.804v1.067zM30.933 27.466h-14.933v-1.067h14.933v1.067zM10.667 12.533h1.067v4.267h-1.067v-4.267zM10.667 17.867h1.067v1.067h-1.067v-1.067z"></path>
</svg>
