<!-- Generated by IcoMoon.io -->
<svg version="1.1" xmlns="http://www.w3.org/2000/svg" width="32" height="32" viewBox="0 0 32 32">
<title>spa</title>
<path d="M30.661 19.047c-0.008-0.039-0.020-0.079-0.036-0.117s-0.035-0.074-0.058-0.108c-0.023-0.034-0.049-0.066-0.078-0.095s-0.061-0.055-0.095-0.078c-0.034-0.023-0.070-0.041-0.108-0.057s-0.078-0.028-0.117-0.036c-0.081-0.016-0.164-0.016-0.244 0-0.040 0.008-0.079 0.021-0.117 0.036s-0.074 0.034-0.108 0.057c-0.034 0.023-0.066 0.049-0.095 0.078s-0.055 0.061-0.078 0.095c-0.023 0.034-0.042 0.070-0.058 0.108s-0.027 0.078-0.036 0.117c-0.008 0.041-0.012 0.082-0.012 0.122s0.004 0.082 0.012 0.122c0.008 0.040 0.020 0.079 0.036 0.117s0.035 0.074 0.058 0.108c0.022 0.034 0.049 0.066 0.078 0.095s0.061 0.055 0.095 0.078c0.034 0.023 0.070 0.042 0.108 0.058s0.077 0.027 0.117 0.036 0.081 0.012 0.122 0.012c0.041 0 0.082-0.004 0.122-0.012 0.039-0.008 0.079-0.020 0.117-0.036s0.074-0.035 0.108-0.058c0.034-0.023 0.066-0.049 0.095-0.078s0.055-0.061 0.078-0.095c0.023-0.034 0.042-0.070 0.058-0.108s0.027-0.077 0.036-0.117c0.008-0.040 0.012-0.081 0.012-0.122s-0.004-0.082-0.012-0.122zM15.158 10.013c-0.202-0.28-0.593-0.343-0.873-0.141-0.228 0.165-0.535 0.165-0.763 0-0.28-0.202-0.671-0.139-0.873 0.141s-0.139 0.671 0.141 0.873c0.333 0.24 0.723 0.36 1.113 0.36s0.78-0.12 1.113-0.361c0.28-0.202 0.343-0.593 0.141-0.873zM19.417 10.013c-0.202-0.28-0.593-0.343-0.873-0.141-0.228 0.165-0.535 0.165-0.763 0-0.28-0.202-0.671-0.139-0.873 0.141s-0.139 0.671 0.141 0.873c0.333 0.24 0.723 0.36 1.113 0.36s0.78-0.12 1.113-0.36c0.28-0.202 0.343-0.593 0.141-0.873zM17.254 12.762c-0.202-0.28-0.593-0.343-0.873-0.141-0.228 0.165-0.535 0.165-0.763 0-0.28-0.202-0.671-0.139-0.873 0.141s-0.139 0.671 0.141 0.873c0.333 0.24 0.723 0.36 1.113 0.36s0.78-0.12 1.113-0.361c0.28-0.202 0.343-0.593 0.141-0.873zM26.030 10.378c-0.205-0.189-0.221-0.221-0.221-0.319s0.016-0.13 0.221-0.318c0.088-0.081 0.187-0.172 0.282-0.286 0.22-0.266 0.183-0.66-0.083-0.88s-0.66-0.183-0.88 0.083c-0.040 0.049-0.101 0.104-0.165 0.163-0.249 0.229-0.625 0.575-0.625 1.239s0.376 1.010 0.625 1.239c0.205 0.189 0.221 0.221 0.221 0.319s-0.016 0.13-0.221 0.319c-0.052 0.048-0.11 0.101-0.168 0.161-0.241 0.247-0.237 0.643 0.010 0.884 0.122 0.119 0.279 0.178 0.437 0.178 0.162 0 0.325-0.063 0.447-0.188 0.035-0.036 0.076-0.074 0.12-0.114 0.249-0.229 0.625-0.575 0.625-1.239s-0.376-1.010-0.625-1.239zM29.072 12.181c-0.205-0.189-0.221-0.221-0.221-0.319s0.016-0.13 0.221-0.318c0.088-0.081 0.187-0.172 0.281-0.286 0.22-0.266 0.183-0.66-0.083-0.88s-0.66-0.183-0.88 0.083c-0.040 0.049-0.101 0.104-0.165 0.163-0.249 0.229-0.625 0.575-0.625 1.239s0.376 1.010 0.625 1.239c0.205 0.189 0.221 0.221 0.221 0.319s-0.016 0.13-0.221 0.319c-0.052 0.048-0.11 0.101-0.168 0.161-0.241 0.247-0.237 0.643 0.010 0.884 0.122 0.119 0.279 0.178 0.437 0.178 0.162 0 0.325-0.063 0.447-0.188 0.035-0.036 0.076-0.074 0.12-0.114 0.249-0.229 0.625-0.575 0.625-1.239s-0.376-1.010-0.625-1.239zM23.75 18.91c-0.013-0.505-0.173-0.974-0.437-1.366 1.532 0.292 2.951 0.679 4.217 1.154 0.072 0.027 0.146 0.040 0.219 0.040 0.253 0 0.491-0.155 0.585-0.406 0.121-0.323-0.043-0.683-0.366-0.805-2.705-1.014-6.052-1.644-9.714-1.831 0.805-0.366 1.494-0.9 2.014-1.569 0.65-0.835 1.006-1.842 1.034-2.922 1.359-1.595 1.693-3.846 0.844-5.806-0.717-1.654-2.176-2.844-3.931-3.218-0.088-0.089-0.181-0.175-0.279-0.256-0.574-0.476-1.427-0.773-2.403-0.836-1.044-0.068-2.115 0.138-3.097 0.595-2.431 1.131-3.063 3.439-3.164 3.891-0.841 3.724 1.005 6.061 1.556 6.659 0.356 1.524 1.419 2.779 2.917 3.461-3.662 0.186-7.011 0.817-9.715 1.831-0.876 0.329-1.679 0.698-2.387 1.098-0.3 0.17-0.406 0.551-0.237 0.852 0.115 0.203 0.327 0.318 0.545 0.318 0.104 0 0.21-0.026 0.307-0.081 0.651-0.368 1.395-0.71 2.211-1.016 1.266-0.475 2.684-0.862 4.217-1.154-0.264 0.393-0.423 0.862-0.437 1.366-5.177 1.107-8.25 3.191-8.25 5.621 0 1.82 1.743 3.475 4.909 4.662 2.972 1.115 6.911 1.729 11.091 1.729s8.119-0.614 11.091-1.729c3.165-1.187 4.909-2.843 4.909-4.663 0-2.429-3.072-4.514-8.25-5.621zM19.032 5.115c0.146-0.384 0.17-0.832 0.080-1.283 0.832 0.451 1.5 1.171 1.888 2.066 0.486 1.12 0.474 2.362 0.014 3.431-0.056-0.166-0.121-0.333-0.193-0.501-0.515-1.189-1.427-2.142-2.547-2.721 0.324-0.232 0.589-0.547 0.758-0.992zM17.821 3.837c0.118 0.336 0.116 0.641 0.043 0.834-0.206 0.541-0.758 0.695-1.96 0.9-0.031 0.005-0.062 0.011-0.094 0.016-0.995 0.168-2.181 0.369-3.232 1.092 0.286-0.704 0.926-1.791 2.274-2.419 0.945-0.439 2.032-0.591 2.969-0.424zM10.947 8.98c-0.076 0.286-0.129 0.577-0.164 0.86-0.398-0.95-0.673-2.296-0.291-3.988 0.079-0.351 0.572-2.149 2.472-3.033 1.369-0.637 2.689-0.576 3.529-0.276-0.735 0.066-1.476 0.262-2.169 0.584-2.431 1.131-3.063 3.44-3.164 3.891-0.149 0.662-0.221 1.321-0.214 1.962zM9.499 21.984c0-0.007 0-0.015 0-0.022v-2.531c0-0.007 0-0.015 0-0.022v-0.429c0-0.733 0.596-1.329 1.329-1.329h3.466c0.319 0 0.586-0.24 0.621-0.557l0.188-1.708c0.032-0.291-0.142-0.565-0.419-0.659-1.411-0.484-2.407-1.57-2.668-2.908-0.076-0.66-0.091-1.854 0.213-2.764 0-0.001 0.001-0.002 0.001-0.003 0.002-0.007 0.005-0.015 0.008-0.022 0.001-0.002 0.001-0.004 0.002-0.006 0.002-0.007 0.005-0.013 0.007-0.020 0.002-0.005 0.004-0.011 0.006-0.016 0-0.001 0.001-0.002 0.001-0.003 0.089-0.247 0.197-0.456 0.324-0.625 0-0 0-0.001 0.001-0.001 0.005-0.007 0.011-0.014 0.016-0.021 0.002-0.003 0.004-0.006 0.007-0.008 0.003-0.004 0.006-0.008 0.009-0.011s0.006-0.008 0.009-0.011c0.002-0.002 0.004-0.004 0.005-0.007 0.004-0.005 0.009-0.010 0.013-0.015 0.001-0.002 0.003-0.003 0.004-0.005 0.005-0.006 0.010-0.011 0.014-0.017 0.001-0.001 0.002-0.002 0.002-0.003 0.005-0.006 0.011-0.012 0.016-0.018 0.924-1.015 2.154-1.223 3.344-1.424 0.010-0.002 0.020-0.003 0.030-0.005 0.001-0 0.002-0 0.003-0 0.078-0.013 0.156-0.026 0.235-0.040 1.495 0.196 2.788 1.167 3.388 2.552 0.245 0.566 0.373 1.119 0.381 1.645v0.099c0 1.694-1.064 3.1-2.776 3.669-0.28 0.093-0.456 0.369-0.424 0.662l0.187 1.694c0.035 0.317 0.303 0.557 0.621 0.557h3.509c0.733 0 1.329 0.596 1.329 1.329v0.43c-0 0.007-0 0.014 0 0.021v2.531c-0 0.008-0 0.015 0 0.022v1.556c-0.364 0.067-0.737 0.128-1.117 0.184 0.054-0.253 0.075-0.514 0.062-0.779-0.074-1.57-1.386-2.859-2.987-2.935-0.666-0.031-1.311 0.139-1.867 0.493-0.36 0.229-0.824 0.229-1.184 0-0.555-0.354-1.2-0.524-1.867-0.493-1.601 0.076-2.913 1.365-2.987 2.935-0.012 0.265 0.009 0.526 0.062 0.779-0.38-0.055-0.754-0.117-1.117-0.184v-1.556zM20.009 23.894c-1.293 0.134-2.64 0.202-4.009 0.202s-2.716-0.068-4.009-0.202c-0.139-0.274-0.204-0.578-0.189-0.891 0.044-0.933 0.834-1.7 1.798-1.746 0.407-0.019 0.799 0.084 1.136 0.298 0.768 0.489 1.76 0.489 2.527 0 0.337-0.214 0.73-0.317 1.136-0.298 0.964 0.046 1.754 0.813 1.798 1.746 0.015 0.313-0.050 0.616-0.189 0.89zM8.75 24.668c0.866 0.176 1.789 0.321 2.744 0.43 0.009 0.001 0.019 0.002 0.028 0.003s2.956 0.246 4.479 0.246 4.499-0.249 4.522-0.255c0.023-0 1.888-0.253 2.729-0.424 0.291-0.059 0.5-0.315 0.5-0.613v-1.297c0.51 0.127 0.995 0.267 1.451 0.419 1.556 0.517 2.375 1.031 2.776 1.353-0.401 0.322-1.22 0.837-2.776 1.353-2.502 0.83-5.77 1.288-9.202 1.288s-6.7-0.457-9.202-1.288c-1.556-0.517-2.375-1.031-2.776-1.353 0.401-0.322 1.22-0.837 2.776-1.353 0.455-0.151 0.941-0.291 1.451-0.419v1.297c0 0.297 0.209 0.553 0.501 0.612zM26.652 28.023c-2.835 1.063-6.619 1.649-10.652 1.649s-7.817-0.586-10.652-1.649c-2.604-0.977-4.098-2.249-4.098-3.492 0-1.683 2.782-3.39 6.999-4.34v1.282c-0.651 0.154-1.269 0.328-1.845 0.519-2.235 0.742-3.42 1.627-3.783 2.208-0.127 0.203-0.127 0.46 0 0.663 0.364 0.581 1.549 1.466 3.783 2.208 2.625 0.871 6.033 1.351 9.595 1.351s6.97-0.48 9.595-1.351c2.235-0.742 3.42-1.627 3.783-2.208 0.127-0.203 0.127-0.46 0-0.663-0.364-0.581-1.549-1.466-3.783-2.208-0.575-0.191-1.194-0.365-1.845-0.519v-1.282c4.218 0.951 6.999 2.658 6.999 4.34 0 1.243-1.494 2.515-4.098 3.492z"></path>
</svg>
