<!-- Generated by IcoMoon.io -->
<svg version="1.1" xmlns="http://www.w3.org/2000/svg" width="32" height="32" viewBox="0 0 32 32">
<title>sport-6</title>
<path d="M31.622 13.241c-1.493-5.495-6.993-8.828-12.495-7.707-2.305-2.198-5.132-3.847-8.277-4.755l-0.367 1.281c2.671 0.771 5.097 2.115 7.133 3.896-1.159 0.417-2.207 1.017-3.121 1.759-0.48-0.358-0.98-0.691-1.501-0.993l-0.666 1.154c0.404 0.234 0.794 0.487 1.171 0.758-0.773 0.81-1.414 1.735-1.9 2.737-0.619-0.45-1.289-0.837-2.002-1.15l-0.533 1.221c0.726 0.318 1.401 0.725 2.014 1.205-0.653 1.944-0.757 4.096-0.179 6.224 0.030 0.113 0.090 0.215 0.173 0.298l0.221 0.221-0.478 0.478c-0 0-0 0-0 0-0.784 0.784-0.784 2.056 0 2.84l0.008 0.008-4.581 4.581c-1.136 1.049-1.212 2.818-0.171 3.96 0.486 0.478 1.142 0.742 1.823 0.733 0.804-0.006 1.572-0.331 2.137-0.904l4.582-4.581c0.376 0.378 0.888 0.59 1.421 0.588 0.533 0.001 1.044-0.211 1.42-0.588l0.478-0.478 0.223 0.223c0.082 0.083 0.185 0.142 0.298 0.173 0.911 0.245 1.851 0.37 2.794 0.369 0.956 0.001 1.909-0.125 2.831-0.376 5.723-1.555 9.101-7.455 7.546-13.178zM7.011 30.317c-0.469-0.562-0.451-1.368 0.008-1.909l1.901 1.901c-0.541 0.459-1.347 0.477-1.909 0.008zM9.865 29.369l-1.905-1.905 3.803-3.803 1.905 1.905-3.803 3.803zM16.512 25.568c-0.268 0.255-0.689 0.255-0.956 0l-3.798-3.798c-0.264-0.264-0.264-0.692 0-0.956l0.478-0.478 4.753 4.753-0.477 0.479zM30.374 18.357c-1.265 5.035-6.373 8.091-11.408 6.826l-6.826-6.826c-0.378-1.504-0.378-3.078 0-4.582 0.010-0.040 0.021-0.079 0.031-0.118 0.855 0.923 1.525 2.018 1.955 3.229l1.261-0.444c-0.571-1.607-1.512-3.035-2.725-4.185 0.466-1.054 1.112-1.991 1.892-2.783 1.147 1.006 2.127 2.196 2.898 3.527l1.153-0.668c-0.815-1.406-1.844-2.668-3.044-3.745 0.943-0.718 2.018-1.255 3.165-1.577 1.793 1.848 3.209 4.070 4.125 6.551l1.25-0.459c-0.879-2.382-2.189-4.54-3.833-6.388 1.070-0.113 2.177-0.044 3.281 0.234 5.035 1.265 8.091 6.373 6.826 11.408zM17.934 22.237l0.942-0.942 0.947 0.947-0.942 0.942-0.947-0.947zM20.304 24.608l-0.947-0.947 0.942-0.942 0.947 0.947-0.942 0.942zM21.731 23.185l-0.947-0.947 0.942-0.942 0.947 0.947-0.942 0.942zM10.662 5.338c0-2.944-2.387-5.331-5.331-5.331s-5.331 2.387-5.331 5.331 2.387 5.331 5.331 5.331c2.943-0.003 5.328-2.388 5.331-5.331zM5.331 9.336c-2.208 0-3.998-1.79-3.998-3.998s1.79-3.998 3.998-3.998c2.207 0.002 3.996 1.791 3.998 3.998 0 2.208-1.79 3.998-3.998 3.998zM5.331 2.673v1.333c0.736 0 1.333 0.597 1.333 1.333h1.333c0-1.472-1.193-2.665-2.665-2.665z"></path>
</svg>
