<!-- Generated by IcoMoon.io -->
<svg version="1.1" xmlns="http://www.w3.org/2000/svg" width="32" height="32" viewBox="0 0 32 32">
<title>tank</title>
<path d="M31.375 29.813h-1.375v-1.875c0-0.345-0.28-0.625-0.625-0.625h-0.625v-10.625c0-1.034-0.841-1.875-1.875-1.875h-4.375v-9.375c0-0.345-0.28-0.625-0.625-0.625h-2.75v-1.875c0-0.345-0.28-0.625-0.625-0.625h-5c-0.345 0-0.625 0.28-0.625 0.625v1.875h-6.625v-3.25c0-0.345-0.28-0.625-0.625-0.625s-0.625 0.28-0.625 0.625v0.75h-1.25v-0.75c0-0.345-0.28-0.625-0.625-0.625s-0.625 0.28-0.625 0.625v3.25h-1.875c-0.345 0-0.625 0.28-0.625 0.625v25c0 0.345 0.28 0.625 0.625 0.625h30.75c0.345 0 0.625-0.28 0.625-0.625s-0.28-0.625-0.625-0.625zM2.5 29.813h-1.25v-23.75h1.25v23.75zM5 29.813h-1.25v-1.25h1.25v1.25zM5 27.313h-1.25v-1.25h1.25v1.25zM5 24.813h-1.25v-1.25h1.25v1.25zM5 22.313h-1.25v-1.25h1.25v1.25zM5 19.813h-1.25v-1.25h1.25v1.25zM5 17.313h-1.25v-1.25h1.25v1.25zM5 14.813h-1.25v-1.25h1.25v1.25zM5 12.313h-1.25v-1.25h1.25v1.25zM5 9.813h-1.25v-1.25h1.25v1.25zM5 7.313h-1.25v-1.25h1.25v1.25zM5 4.813h-1.25v-1.25h1.25v1.25zM14.125 3.563h3.75v1.25h-3.75v-1.25zM21.25 29.813h-15v-23.75h15v23.75zM22.5 16.063h4.375c0.345 0 0.625 0.28 0.625 0.625v10.625h-1.25v-9.375c0-0.345-0.28-0.625-0.625-0.625h-3.125v-1.25zM23.75 27.938v1.875h-1.25v-11.25h2.5v8.75h-0.625c-0.345 0-0.625 0.28-0.625 0.625zM28.75 29.813h-3.75v-1.25h3.75v1.25zM19.375 27.313h-3.75c-0.344 0-0.625 0.281-0.625 0.625s0.281 0.625 0.625 0.625h3.75c0.344 0 0.625-0.28 0.625-0.625s-0.281-0.625-0.625-0.625zM13.125 27.313c-0.344 0-0.625 0.281-0.625 0.625s0.281 0.625 0.625 0.625 0.625-0.28 0.625-0.625c0-0.344-0.281-0.625-0.625-0.625zM19.375 24.813h-2.813c-0.345 0-0.625 0.28-0.625 0.625s0.28 0.625 0.625 0.625h2.813c0.345 0 0.625-0.28 0.625-0.625s-0.28-0.625-0.625-0.625z"></path>
</svg>
