<!-- Generated by IcoMoon.io -->
<svg version="1.1" xmlns="http://www.w3.org/2000/svg" width="32" height="32" viewBox="0 0 32 32">
<title>tv</title>
<path d="M31.484 6.194h-30.968c-0.285 0-0.516 0.231-0.516 0.516v16.516c0 0.285 0.231 0.516 0.516 0.516h30.968c0.285 0 0.516-0.231 0.516-0.516v-16.516c-0-0.285-0.231-0.516-0.516-0.516zM30.968 22.71h-29.936v-15.484h29.936v15.484zM30.483 3.613h-28.967c-0.836 0-1.517 0.68-1.517 1.517v1.58c0 0.285 0.231 0.516 0.516 0.516h30.968c0.285 0 0.516-0.231 0.516-0.516v-1.58c-0-0.836-0.68-1.517-1.517-1.517zM30.968 6.194h-29.936v-1.064c0-0.267 0.217-0.484 0.484-0.484h28.967c0.267 0 0.484 0.217 0.484 0.484v1.064zM31.484 22.71h-30.968c-0.285 0-0.516 0.231-0.516 0.516v1.58c0 0.836 0.68 1.517 1.517 1.517h28.967c0.836 0 1.517-0.68 1.517-1.517v-1.58c0-0.285-0.231-0.516-0.516-0.516zM30.968 24.806c0 0.267-0.217 0.484-0.484 0.484h-28.967c-0.267 0-0.484-0.217-0.484-0.484v-1.064h29.936v1.064zM19.613 25.29h-7.226c-0.285 0-0.516 0.231-0.516 0.516v2.065c0 0.285 0.231 0.516 0.516 0.516h7.226c0.285 0 0.516-0.231 0.516-0.516v-2.065c0-0.285-0.231-0.516-0.516-0.516zM19.097 27.355h-6.194v-1.032h6.194v1.032zM22.194 27.355h-12.387c-0.285 0-0.516 0.231-0.516 0.516s0.231 0.516 0.516 0.516h12.387c0.285 0 0.516-0.231 0.516-0.516s-0.231-0.516-0.516-0.516zM3.978 7.893c-0.202-0.202-0.528-0.202-0.73 0l-1.548 1.548c-0.202 0.202-0.202 0.528 0 0.73 0.101 0.101 0.233 0.151 0.365 0.151s0.264-0.050 0.365-0.151l1.548-1.548c0.202-0.202 0.202-0.528 0-0.73zM6.042 7.893c-0.202-0.202-0.528-0.202-0.73 0l-3.355 3.355c-0.202 0.202-0.202 0.528 0 0.73 0.101 0.101 0.233 0.151 0.365 0.151s0.264-0.050 0.365-0.151l3.355-3.355c0.202-0.202 0.202-0.528 0-0.73z"></path>
</svg>
