<!-- Generated by IcoMoon.io -->
<svg version="1.1" xmlns="http://www.w3.org/2000/svg" width="32" height="32" viewBox="0 0 32 32">
<title>villa-1</title>
<path d="M30.9 12.155h0.624c0.263 0 0.475-0.213 0.475-0.475v-1.59c0-0.262-0.213-0.475-0.475-0.475h-5.079v-0.639h1.909c0.211 0 0.396-0.139 0.456-0.341s-0.021-0.42-0.199-0.534l-12.355-7.956c-0.157-0.101-0.358-0.101-0.515 0l-12.356 7.956c-0.177 0.114-0.258 0.331-0.199 0.534s0.245 0.341 0.456 0.341h1.909v0.639h-1.542c-0.263 0-0.475 0.213-0.475 0.475s0.213 0.475 0.475 0.475h1.542v0.639h-4.603v-0.639h1.159c0.263 0 0.475-0.213 0.475-0.475s-0.213-0.475-0.475-0.475h-1.635c-0.263 0-0.475 0.213-0.475 0.475v1.59c0 0.262 0.213 0.475 0.475 0.475h0.624v11.767h-0.624c-0.263 0-0.475 0.213-0.475 0.475v7.059c0 0.262 0.213 0.475 0.475 0.475h31.049c0.263 0 0.475-0.213 0.475-0.475v-7.059c0-0.262-0.213-0.475-0.475-0.475h-0.624v-11.767zM29.95 22.422h-1.378v-4.912h1.378v4.912zM7.455 12.155h2.889v12.922h-2.889v-12.922zM11.885 27.156v-1.604c0-0.262-0.213-0.475-0.475-0.475h-0.115v-12.922h2.31v12.922h-0.115c-0.263 0-0.475 0.213-0.475 0.475v1.604h-1.13zM13.965 26.028h4.070v1.128h-4.070v-1.128zM17.445 25.078h-2.889v-12.922h2.889v12.922zM6.864 26.028h4.070v1.128h-4.070v-1.128zM5.939 28.107h20.121v0.852h-20.121v-0.852zM21.066 27.156v-1.128h4.070v1.128h-4.070zM24.545 25.078h-2.889v-4.541c0-0.262-0.213-0.475-0.475-0.475s-0.475 0.213-0.475 0.475v4.541h-0.115c-0.263 0-0.475 0.213-0.475 0.475v1.604h-1.13v-1.604c0-0.262-0.213-0.475-0.475-0.475h-0.115v-12.922h2.31v6.48c0 0.262 0.213 0.475 0.475 0.475s0.475-0.213 0.475-0.475v-6.48h2.889v12.922zM31.049 10.565v0.639h-4.603v-0.639h4.603zM16 1.11l10.74 6.915h-21.479l10.74-6.915zM6.504 8.975h18.992v1.11c0 0.002-0 0.003-0 0.005s0 0.003 0 0.005v1.11h-18.992v-2.229zM2.050 17.509h1.378v4.912h-1.378v-4.912zM0.951 24.872h4.504c0.263 0 0.475-0.213 0.475-0.475s-0.213-0.475-0.475-0.475h-3.405v-0.549h1.853c0.263 0 0.475-0.213 0.475-0.475v-5.863c0-0.262-0.213-0.475-0.475-0.475h-1.853v-0.811h3.405c0.263 0 0.475-0.213 0.475-0.475s-0.213-0.475-0.475-0.475h-3.405v-2.642h4.454v12.922h-0.115c-0.263 0-0.475 0.213-0.475 0.475v1.604h-0.45c-0.263 0-0.475 0.213-0.475 0.475v1.327h-0.509c-0.263 0-0.475 0.213-0.475 0.475v1.546h-3.054v-6.108zM4.955 30.98v-1.071h22.090v1.071h-22.090zM31.049 24.872v6.108h-3.054v-1.547c0-0.262-0.213-0.475-0.475-0.475h-0.509v-1.327c0-0.262-0.213-0.475-0.475-0.475h-0.45v-1.604c0-0.262-0.213-0.475-0.475-0.475h-0.115v-12.922h4.454v2.642h-3.405c-0.263 0-0.475 0.213-0.475 0.475s0.213 0.475 0.475 0.475h3.405v0.811h-1.853c-0.263 0-0.475 0.213-0.475 0.475v5.863c0 0.262 0.213 0.475 0.475 0.475h1.853v0.549h-3.405c-0.263 0-0.475 0.213-0.475 0.475s0.213 0.475 0.475 0.475h4.504zM16 7.436c1.501 0 2.723-1.221 2.723-2.723s-1.222-2.723-2.723-2.723-2.723 1.222-2.723 2.723 1.222 2.723 2.723 2.723zM16 2.94c0.977 0 1.772 0.795 1.772 1.772s-0.795 1.772-1.772 1.772c-0.977 0-1.772-0.795-1.772-1.772s0.795-1.772 1.772-1.772zM16 5.188c0.263 0 0.475-0.213 0.475-0.475v-0.795c0-0.262-0.213-0.475-0.475-0.475s-0.475 0.213-0.475 0.475v0.795c0 0.263 0.213 0.475 0.475 0.475z"></path>
</svg>
