<!-- Generated by IcoMoon.io -->
<svg version="1.1" xmlns="http://www.w3.org/2000/svg" width="32" height="32" viewBox="0 0 32 32">
<title>warehouse</title>
<path d="M4.625 17.226c0.164 0 0.326-0.066 0.442-0.182s0.183-0.278 0.183-0.443c0-0.164-0.067-0.326-0.183-0.442s-0.278-0.183-0.442-0.183-0.326 0.067-0.442 0.183c-0.116 0.116-0.183 0.278-0.183 0.442s0.067 0.326 0.183 0.443c0.116 0.116 0.278 0.182 0.442 0.182zM31.677 8.578l-5.712-3.158c-0.302-0.167-0.682-0.057-0.849 0.245s-0.057 0.682 0.245 0.849l5.389 2.98v21.256h-2.75v-19.625c0-0.345-0.28-0.625-0.625-0.625h-22.75c-0.345 0-0.625 0.28-0.625 0.625v2.976c0 0.345 0.28 0.625 0.625 0.625s0.625-0.28 0.625-0.625v-2.351h21.5v19h-2.617v-6.25c0-0.689-0.561-1.25-1.25-1.25h-2.5v-6.25c0-0.689-0.561-1.25-1.25-1.25h-6.25c-0.689 0-1.25 0.561-1.25 1.25v6.25h-2.508c-0.689 0-1.25 0.561-1.25 1.25v6.25h-2.625v-11.649c0-0.345-0.28-0.625-0.625-0.625s-0.625 0.28-0.625 0.625v11.649h-2.75v-21.256l14.75-8.155 4.985 2.756c0.302 0.167 0.682 0.057 0.849-0.245s0.057-0.682-0.245-0.849l-5.287-2.923c-0.188-0.104-0.417-0.104-0.605 0l-15.375 8.5c-0.199 0.11-0.323 0.319-0.323 0.547v22.25c0 0.345 0.28 0.625 0.625 0.625h30.75c0.345 0 0.625-0.28 0.625-0.625v-22.25c0-0.228-0.124-0.437-0.323-0.547zM19.133 24.5h1.25v1.25h-1.25zM16.625 17v1.25h-1.25v-1.25zM12.883 17h1.242v1.875c0 0.345 0.28 0.625 0.625 0.625h2.5c0.345 0 0.625-0.28 0.625-0.625v-1.875h1.258l0.001 6.25s-0 0-0.001 0h-6.25zM12.883 24.5v1.25h-1.25v-1.25zM9.125 30.75v-6.25h1.258v1.875c0 0.345 0.28 0.625 0.625 0.625h2.5c0.345 0 0.625-0.28 0.625-0.625v-1.875h1.242l0.001 6.25s-0 0-0.001 0zM16.633 30.75v-6.25h1.25v1.875c0 0.345 0.28 0.625 0.625 0.625h2.5c0.345 0 0.625-0.28 0.625-0.625v-1.875h1.25l0.001 6.25s-0 0-0.001 0zM23.475 5.383c0.164 0 0.325-0.067 0.442-0.183s0.183-0.278 0.183-0.442c0-0.165-0.067-0.326-0.183-0.442s-0.278-0.183-0.442-0.183c-0.165 0-0.326 0.067-0.442 0.183s-0.183 0.277-0.183 0.442c0 0.164 0.067 0.325 0.183 0.442s0.277 0.183 0.442 0.183zM13.375 6.375c0 1.447 1.178 2.625 2.625 2.625s2.625-1.178 2.625-2.625-1.177-2.625-2.625-2.625-2.625 1.178-2.625 2.625zM17.375 6.375c0 0.758-0.617 1.375-1.375 1.375s-1.375-0.617-1.375-1.375c0-0.758 0.617-1.375 1.375-1.375s1.375 0.617 1.375 1.375z"></path>
</svg>
