<?xml version="1.0" encoding="utf-8"?>
<!-- Generator: Adobe Illustrator 21.0.0, SVG Export Plug-In . SVG Version: 6.00 Build 0)  -->
<svg version="1.1" id="Isolation_Mode" xmlns="http://www.w3.org/2000/svg" xmlns:xlink="http://www.w3.org/1999/xlink" x="0px"
	 y="0px" viewBox="0 0 500 500" style="enable-background:new 0 0 500 500;" xml:space="preserve">
<style type="text/css">
	.st0{fill:#EEBA63;}
	.st1{fill:#F3E077;}
	.st2{fill:#F5C956;}
	.st3{opacity:0.54;fill:#F9C662;}
	.st4{opacity:0.75;fill:#FFD488;}
	.st5{fill:#EEBA63;stroke:#1E1E1E;stroke-width:7;stroke-miterlimit:10;}
</style>
<g>
	<path class="st0" d="M498.5,250c0,137.2-111.3,248.5-248.5,248.5S1.5,387.2,1.5,250S112.8,1.5,250,1.5S498.5,112.8,498.5,250
		L498.5,250z M498.5,250"/>
	<path class="st1" d="M250,458.5C135,458.5,41.5,365,41.5,250S135,41.5,250,41.5c115,0,208.5,93.5,208.5,208.5S365,458.5,250,458.5
		L250,458.5z M250,458.5"/>
	<path class="st2" d="M81.5,250c0-108.2,82.9-197.4,188.5-207.5c-6.6-0.6-13.3-1-20-1C135,41.5,41.5,135,41.5,250
		S135,458.5,250,458.5c6.7,0,13.4-0.3,20-1C164.4,447.4,81.5,358.2,81.5,250L81.5,250z M81.5,250"/>
	<path d="M250-6C198.1-6,148.1,9.5,105.5,38.7c-3.4,2.3-4.3,7-1.9,10.4c2.3,3.4,7,4.3,10.4,1.9C154.1,23.5,201.1,9,250,9
		c64.4,0,124.9,25.1,170.4,70.6c45.5,45.5,70.6,106,70.6,170.4s-25.1,124.9-70.6,170.4C374.9,465.9,314.4,491,250,491
		s-124.9-25.1-170.4-70.6C34.1,374.9,9,314.4,9,250c0-69.4,30-135.6,82.3-181.4c3.1-2.7,3.4-7.5,0.7-10.6c-2.7-3.1-7.5-3.4-10.6-0.7
		C25.9,106-6,176.2-6,250c0,68.4,26.6,132.7,75,181c48.4,48.4,112.6,75,181,75s132.7-26.6,181-75c48.4-48.4,75-112.6,75-181
		s-26.6-132.7-75-181C382.7,20.6,318.4-6,250-6L250-6z M250-6"/>
	<path d="M408.1,386c3.2,2.6,8,2.1,10.5-1.2c30.6-38.1,47.4-86,47.4-134.8c0-119.1-96.9-216-216-216S34,130.9,34,250
		s96.9,216,216,216c55.1,0,107.6-20.8,147.8-58.7c3-2.8,3.2-7.6,0.3-10.6c-2.8-3-7.6-3.2-10.6-0.3C350.1,431.6,301.3,451,250,451
		c-110.8,0-201-90.2-201-201S139.2,49,250,49s201,90.2,201,201c0,46.1-15.2,89.5-44.1,125.5C404.3,378.7,404.8,383.4,408.1,386
		L408.1,386z M408.1,386"/>
	<path class="st3" d="M383.6,100L102.4,386.3l-5.1,0c-8.6-10.5-16.2-21.9-22.7-34c-7.4-13.7-13.2-28.4-17.3-43.7
		C52.5,291.2,50,272.9,50,254c0-115.3,91.2-206,206.5-206c18.9,0,37.6,5.8,55,10.5c15.3,4.1,28.8,12.2,42.6,19.6
		C366.2,84.6,373.1,91.3,383.6,100z"/>
	<path class="st4" d="M350.6,76.2L74.6,352.3c-7.4-13.7-13.2-28.4-17.3-43.7L311.5,58.5C326.8,62.6,336.9,68.9,350.6,76.2z"/>
	<g>
		<path class="st5" d="M340.3,169.4c3,6.2,5.7,13.1,7.6,20.8l5.8-2.9v137.4h-25.5L282.7,279c28-9.5,48.2-36.1,48.2-67.3
			c0-1.7-0.1-3.5-0.2-5.2c-1.1-10.8-4.2-20.3-8.1-28.2l-0.1,0c-12-22.4-35.6-37.6-62.7-37.6h-60v21.9l22,12.3v-12.3h38
			c18.5,0,34.7,10.3,43.1,25.6L255,212.4l-111-61.6v195.8h130.9v-22H166V188.1l33.9,18.8v98.4h22v-86.2l32.7,18.1l54.4-27.4
			c0,0.6,0,1.3,0,1.9c0,27.1-22,49.1-49.1,49.1h-26.5l85.8,85.8h56.5v-195L340.3,169.4z"/>
	</g>
</g>
</svg>
