<?xml version="1.0" encoding="utf-8"?>
<!-- Generator: Adobe Illustrator 21.0.0, SVG Export Plug-In . SVG Version: 6.00 Build 0)  -->
<svg version="1.1" id="Layer_1" xmlns="http://www.w3.org/2000/svg" xmlns:xlink="http://www.w3.org/1999/xlink" x="0px" y="0px"
	 viewBox="0 0 512 512" style="enable-background:new 0 0 512 512;" xml:space="preserve">
<style type="text/css">
	.st0{fill:#A0C53A;}
	.st1{fill:#40892F;}
	.st2{fill:#EFEFEF;}
	.st3{fill:#231F20;}
</style>
<path class="st0" d="M175.7,137.7c-90.2,0-163.3,58.7-163.3,131.2c0,34.8,16.9,66.5,44.5,89.9l-3,108.3l77.7-71.9
	c14,3.2,28.8,4.8,44.1,4.8c90.2,0,163.3-58.7,163.3-131.2S265.9,137.7,175.7,137.7z"/>
<path class="st1" d="M499.6,202.6c0-87.1-87.9-157.7-196.3-157.7s-196.3,70.6-196.3,157.7c0,87.1,87.9,157.7,196.3,157.7
	c22.3,0,43.7-3,63.6-8.5l68.9,63.7l-2.6-94.7C473.9,292,499.6,249.7,499.6,202.6z"/>
<g>
	<circle class="st2" cx="305" cy="206.1" r="28"/>
	<circle class="st2" cx="410.6" cy="206.1" r="28"/>
	<circle class="st2" cx="199.3" cy="206.1" r="28"/>
</g>
<g>
	<path class="st3" d="M512,202.6c0-46-22.1-89-62.1-121.2c-39.3-31.6-91.4-48.9-146.6-48.9S195.9,49.9,156.6,81.4
		c-19.5,15.6-34.7,33.9-45.2,53.7c-21.8,7-41.8,17.5-59,31.3C18.6,193.6,0,230,0,268.9c0,35.4,15.7,69.1,44.3,95.4l-2.8,102.5
		c-0.1,5,2.7,9.6,7.3,11.7c1.6,0.7,3.4,1.1,5.1,1.1c3.1,0,6.1-1.1,8.4-3.3l73-67.5c13.2,2.5,26.7,3.8,40.4,3.8
		c45.6,0,88.6-14.1,121.4-39.8c2,0,4.1,0.1,6.1,0.1c20.5,0,40.7-2.4,60.2-7.2l63.9,59.1c2.3,2.2,5.4,3.3,8.4,3.3
		c1.7,0,3.5-0.4,5.1-1.1c4.6-2.1,7.4-6.7,7.3-11.7l-2.4-88.2C487.9,294.9,512,249.9,512,202.6z M175.7,387.6c-14,0-28-1.5-41.4-4.5
		c-4-0.9-8.2,0.2-11.2,3l-56,51.8l2.2-78.7c0.1-3.8-1.5-7.4-4.4-9.8c-25.8-22-40.1-50.6-40.1-80.5c0-43.5,29.9-81.6,74.3-102.3
		c-3.1,11.7-4.7,23.8-4.7,36c0,46,22.1,89,62.1,121.2c28.2,22.6,62.9,38,100.7,44.8C233.8,380.6,205.7,387.6,175.7,387.6z
		 M425.9,310.8c-3.4,2.4-5.3,6.3-5.2,10.5l1.8,65.2l-47.2-43.7c-2.3-2.2-5.4-3.3-8.4-3.3c-1.1,0-2.2,0.1-3.3,0.4
		c-19.4,5.3-39.7,8-60.3,8c-101.4,0-183.9-65.2-183.9-145.3S201.8,57.4,303.2,57.4s183.9,65.2,183.9,145.3
		C487.1,243.8,464.8,283.2,425.9,310.8z"/>
</g>
</svg>
