<?xml version="1.0" encoding="utf-8"?>
<!-- Generator: Adobe Illustrator 21.0.0, SVG Export Plug-In . SVG Version: 6.00 Build 0)  -->
<svg version="1.1" id="Capa_1" xmlns="http://www.w3.org/2000/svg" xmlns:xlink="http://www.w3.org/1999/xlink" x="0px" y="0px"
	 viewBox="0 0 512 512" style="enable-background:new 0 0 512 512;" xml:space="preserve">
<style type="text/css">
	.st0{fill:#C9E0FD;}
	.st1{fill:#BCD6F9;}
	.st2{fill:#EAF2FF;}
	.st3{fill:#DBE8F9;}
	.st4{fill:#9BC4F9;}
	.st5{fill:#7FB2F9;}
	.st6{fill:#3B7F05;}
	.st7{fill:#756E78;}
	.st8{fill:#665E66;}
	.st9{fill:#FFDDCE;}
	.st10{fill:#FFE07D;}
	.st11{fill:#A0C53A;}
	.st12{fill:#8BA030;}
	.st13{fill:#FFCBBE;}
	.st14{fill:#5391A0;}
</style>
<g>
	<g>
		<g>
			<g>
				<g>
					<path class="st0" d="M470.3,448.2H41.7V192.1c0-11.4,9.3-20.7,20.7-20.7h387.3c11.4,0,20.7,9.3,20.7,20.7V448.2z"/>
					<path class="st1" d="M449.6,171.4h-65.5c11.4,0,20.7,9.3,20.7,20.7v256.1h65.5V192.1C470.3,180.7,461.1,171.4,449.6,171.4z"/>
					<path class="st2" d="M81.7,435.5V225.2c0-7.6,6.2-13.7,13.7-13.7h321.2c7.6,0,13.7,6.2,13.7,13.7v210.4H81.7z"/>
					<path class="st3" d="M430.3,435.5V225.2c0-7.6-6.1-13.7-13.7-13.7h-11.8v224.1H430.3z"/>
					<path class="st4" d="M459.9,492.6H52.1c-24.6,0-44.6-20-44.6-44.6c0-6.9,5.6-12.4,12.4-12.4h472.2c6.9,0,12.4,5.6,12.4,12.4
						C504.5,472.6,484.5,492.6,459.9,492.6z"/>
					<path class="st5" d="M492.1,435.5h-52.9V448c0,24.6-20,44.6-44.6,44.6h65.3c24.6,0,44.6-20,44.6-44.6
						C504.5,441.1,498.9,435.5,492.1,435.5z"/>
					<path class="st6" d="M180.3,435.5c0,15.7,12.8,28.5,28.5,28.5h94.4c15.7,0,28.5-12.8,28.5-28.5H180.3z"/>
				</g>
			</g>
			<g>
				<g>
					<g>
						<g>
							<path class="st7" d="M329,254.5c19.4-6.5,32.4-24.7,32.4-45.1c0-54.7,0-84.6,0-84.6c0-58.2-47.2-105.4-105.4-105.4
								S150.6,66.6,150.6,124.8c0,0,0,29.9,0,84.6c0,20.4,13,38.6,32.4,45.1l37.4,12.6h71.2L329,254.5z"/>
							<g>
								<path class="st8" d="M304.6,89.3v80.9c-0.3,17.8-6.7,34.2-17.4,46.9v40.2c0,3.5,0.9,6.8,2.4,9.7h2l37.4-12.6
									c19.4-6.5,32.4-24.7,32.4-45.1c0-54.7,0-84.6,0-84.6c0-58.2-47.2-105.4-105.4-105.4c-4,0-7.9,0.2-11.8,0.7
									C278.3,24.7,304.6,54,304.6,89.3L304.6,89.3z"/>
							</g>
							<path class="st9" d="M430.3,435.5v-39.8c0-54.3-38.5-100.9-91.8-111.2l-24.5-6.3c-0.3,0-0.5-0.1-0.7-0.2
								c-9.6-2.2-16.5-10.8-16.5-20.7v-58.5h-81.4v58.5c0,9.9-6.9,18.5-16.5,20.7c-0.2,0.1-0.5,0.1-0.7,0.2l-24.5,6.3
								c-53.3,10.3-91.8,56.9-91.8,111.2v39.8H430.3z"/>
							<path class="st10" d="M430.3,435.5v-39.8c0-52.7-36.3-98.2-87.2-110.2l-0.6,0.5C322.3,311.6,291.1,328,256,328
								s-66.3-16.4-86.6-41.9l-0.6-0.5c-50.9,12-87.2,57.5-87.2,110.2v39.8L430.3,435.5L430.3,435.5z"/>
							<path class="st11" d="M302.4,435.5h127.9v-39.8c0-54.3-38.5-100.9-91.8-111.2l-24.5-6.3c-0.3,0-0.5-0.1-0.7-0.2
								c-7.1-1.6-12.8-6.8-15.2-13.4l3.2,18C310.3,333.3,310.7,385,302.4,435.5z"/>
							<path class="st12" d="M338.5,284.5l-24.5-6.3c-0.3,0-0.5-0.1-0.7-0.2c-7.1-1.6-12.8-6.8-15.2-13.4l3.2,18
								c2.1,11.5,3.6,23,4.8,34.5c35.5,19.4,58.9,57.1,58.9,99.4v19h65.3v-39.8C430.3,341.5,391.8,294.8,338.5,284.5z"/>
							<path class="st11" d="M209.6,435.5c-8.3-50.6-7.9-102.3,1.2-152.9l3.2-18c-2.4,6.6-8.1,11.7-15.2,13.4
								c-0.2,0.1-0.5,0.1-0.7,0.2l-24.5,6.3c-53.3,10.3-91.8,56.9-91.8,111.2v39.8H209.6z"/>
							<g>
								<path class="st9" d="M331.2,122.7c-22.5-11.4-31.7-30.4-35.4-41.9c-1.1-3.3-5.6-3.8-7.3-0.7c-16.3,29.4-48.8,42.6-86.3,42.6
									c-0.7,0-9.8,0-21.3,0v47.6c0.6,41,34,74,75.2,74s74.5-33,75.2-74L331.2,122.7L331.2,122.7z"/>
							</g>
							<path class="st13" d="M304.6,99.2v71.1c-0.6,36.5-27.1,66.6-61.9,72.8c4.3,0.8,8.7,1.2,13.3,1.2c41.1,0,74.5-33,75.2-74
								v-47.6C318.6,116.3,310.2,107.6,304.6,99.2z"/>
						</g>
						<g>
							<g>
								<path class="st14" d="M331.2,122.7v59.7h23.2c8.3,0,15-6.7,15-15v-29.7c0-8.3-6.7-15-15-15L331.2,122.7L331.2,122.7z"/>
							</g>
						</g>
						<g>
							<g>
								<path class="st14" d="M180.8,122.7v59.7h-23.2c-8.3,0-15-6.7-15-15v-29.7c0-8.3,6.7-15,15-15L180.8,122.7L180.8,122.7z"/>
							</g>
						</g>
						<g>
							<g>
								<path class="st11" d="M293.6,232.1h-19.2c-7.3,0-13.2-5.9-13.2-13.2s5.9-13.2,13.2-13.2h19.2c7.3,0,13.2,5.9,13.2,13.2
									C306.8,226.2,300.9,232.1,293.6,232.1z"/>
							</g>
						</g>
					</g>
				</g>
				<path class="st2" d="M346.7,377.4h32.6c4.6,0,8.3-3.7,8.3-8.3v-13.9c0-4.6-3.7-8.3-8.3-8.3h-32.6c-4.6,0-8.3,3.7-8.3,8.3v13.9
					C338.4,373.7,342.1,377.4,346.7,377.4z"/>
			</g>
		</g>
		<g>
			<path class="st4" d="M180.8,170.2v-47.6h-23.2c-8.3,0-15,6.7-15,15v29.7c0,8.3,6.7,15,15,15H182
				C181.3,178.4,180.9,174.4,180.8,170.2z"/>
		</g>
		<path class="st4" d="M354.4,122.7h-23.2v47.6c-0.1,4.1-0.5,8.2-1.2,12.1h24.4c8.3,0,15-6.7,15-15v-29.7
			C369.4,129.4,362.7,122.7,354.4,122.7z"/>
	</g>
	<g>
		<g>
			<path d="M379.3,339.5h-32.6c-8.7,0-15.8,7.1-15.8,15.8v13.9c0,8.7,7.1,15.8,15.8,15.8h32.6c8.7,0,15.8-7.1,15.8-15.8v-13.9
				C395.1,346.5,388,339.5,379.3,339.5z M380.1,369.1c0,0.4-0.4,0.8-0.8,0.8h-32.6c-0.4,0-0.8-0.4-0.8-0.8v-13.9
				c0-0.4,0.4-0.8,0.8-0.8h32.6c0.4,0,0.8,0.4,0.8,0.8V369.1z"/>
			<path d="M492.1,428h-14.3V192.1c0-15.5-12.6-28.2-28.2-28.2h-72.7v-26.3c0-6.9-3.2-13.2-8.1-17.3C366.4,60.2,316.6,11.9,256,11.9
				S145.6,60.2,143.2,120.4c-5,4.1-8.1,10.4-8.1,17.3v26.3H62.4c-15.5,0-28.2,12.6-28.2,28.2V428H19.9C8.9,428,0,437,0,448
				c0,28.7,23.4,52.1,52.1,52.1h407.8c28.7,0,52.1-23.4,52.1-52.1C512,437,503.1,428,492.1,428L492.1,428z M462.8,192.1V428h-25
				v-32.3V225.2c0-11.7-9.5-21.2-21.2-21.2h-19.8c-4.1,0-7.5,3.4-7.5,7.5s3.4,7.5,7.5,7.5h19.8c3.4,0,6.2,2.8,6.2,6.2v112.4
				c-16.9-30.5-46.6-53.3-82.7-60.3c-26.4-7-26.6-6.3-29.9-8.5l21.2-7.1c22.4-7.5,37.5-28.5,37.5-52.2c0-26.2,0-21.9,0-24.9
				c1.9-1.6,3.5-3.5,4.8-5.6h76C456.9,178.9,462.8,184.9,462.8,192.1L462.8,192.1z M382.5,428v-21.3c0-4.1-3.4-7.5-7.5-7.5
				s-7.5,3.4-7.5,7.5V428h-56.4c6.9-47.7,6.2-95.8-1.9-143.3c1.4,0.4,27.7,7.1,27.8,7.2c49.7,9.6,85.8,53.2,85.8,103.8V428
				L382.5,428L382.5,428z M137,399.2c-4.1,0-7.5,3.4-7.5,7.5V428H89.2v-32.3c0-50.6,36.1-94.3,85.8-103.8c0.2,0,26.5-6.7,27.8-7.2
				c-3.8,22-6,44.5-6.5,66.8c-0.1,4.1,3.2,7.6,7.3,7.7c0.1,0,0.1,0,0.2,0c4.1,0,7.4-3.2,7.5-7.3c0.2-8.2,0.6-16.5,1.3-24.7
				c27.7,11,59.1,11.1,86.9,0c2.7,33.6,1.5,67.4-3.5,100.9h-80c-2-13.8-3.5-27.8-4.2-41.6c-0.2-4.1-3.8-7.3-7.9-7.1
				c-4.1,0.2-7.3,3.8-7.1,7.9c0.7,13.6,2.1,27.3,4,40.8h-56.4v-21.3C144.5,402.6,141.1,399.2,137,399.2L137,399.2z M354.4,130.2
				c4.1,0,7.5,3.4,7.5,7.5v29.7c0,4.1-3.4,7.5-7.5,7.5h-15.9c0.1-1.5,0.2-3,0.2-4.5c0,0,0-0.1,0-0.1v-40.1H354.4z M218.1,284
				l2.5-14.3c1.4-8.2,2.2-16.5,2.2-24.9c10.3,4.5,21.6,7,33.2,7c11.6,0,22.8-2.4,33.2-7c0,8.4,0.7,16.7,2.2,24.9l2.5,14.3
				c1.6,9.2,3,18.3,4.1,27.5c-26.6,11.9-57.3,11.9-83.8,0C215.2,302.3,216.5,293.1,218.1,284L218.1,284z M336,189.8h17.9l0,5.2
				c0,9.7-7.9,17.5-17.6,17.5h-10C330.7,205.5,333.9,197.9,336,189.8L336,189.8z M293.6,224.6h-19.2c-3.2,0-5.7-2.6-5.7-5.7
				s2.6-5.7,5.7-5.7h19.2c3.2,0,5.7,2.6,5.7,5.7C299.3,222,296.7,224.6,293.6,224.6z M304.2,254.9v-18.3c2.5-1.5,9.9-8.7,10.2-9.1
				h21.8c5.4,0,10.4-1.3,14.9-3.6c-4.2,10.8-13,19.6-24.6,23.4L304.2,254.9z M323.7,170.2c-0.2,13.7-4.6,26.9-12.4,37.9
				c-3.6-6-10.2-10-17.7-10h-19.2c-11.4,0-20.7,9.3-20.7,20.7c0,7.4,3.9,13.9,9.7,17.5c-2.4,0.3-4.9,0.4-7.4,0.4
				c-18,0-34.9-7-47.5-19.5c-13-12.8-19.9-29.7-20.1-47.1v-40h13.8c40.1,0,71.4-14.2,89-40.2c4.8,11.3,14.3,26.6,32.5,37.2V170.2z
				 M173.3,170.4c0,1.5,0.1,3,0.2,4.5h-15.9c-4.1,0-7.5-3.4-7.5-7.5v-29.7c0-4.1,3.4-7.5,7.5-7.5h15.7v40.1
				C173.3,170.3,173.3,170.3,173.3,170.4z M158.1,189.8H176c3.7,14.3,11.2,27.5,22,38.1c3.1,3,6.4,5.8,9.8,8.3v18.6l-22.4-7.5
				c-16.3-5.5-27.3-20.7-27.3-38L158.1,189.8z M209.5,443C209.6,443,209.6,443,209.5,443C209.6,443,209.6,443,209.5,443h92.9
				c0,0,0,0,0,0c0,0,0,0,0,0h20.4c-3,7.9-10.7,13.5-19.6,13.5h-94.4c-8.9,0-16.6-5.6-19.6-13.5H209.5z M256,26.9
				c50.6,0,92.5,38.8,97.4,88.2H333c-18.3-9.9-26.5-25.3-30.1-36.7c-1.4-4.4-5.2-7.5-9.8-7.9c-4.6-0.4-9,1.9-11.2,5.9
				c-13.9,25-42.2,38.8-79.7,38.8c-15.1,0-28,0-43.6,0C163.5,65.7,205.4,26.9,256,26.9L256,26.9z M49.2,192.1
				c0-7.3,5.9-13.2,13.2-13.2h76c1.3,2.1,2.9,4,4.8,5.6l0,24.9c0,23.7,15.1,44.6,37.5,52.2l21.2,7.1c-3.8,2.6-15.1,4.6-29.9,8.5
				c-36.1,7-65.9,29.8-82.7,60.3V225.2c0-3.4,2.8-6.2,6.2-6.2h20.1c4.1,0,7.5-3.4,7.5-7.5s-3.4-7.5-7.5-7.5H95.4
				c-11.7,0-21.2,9.5-21.2,21.2v170.6V428h-25V192.1z M459.9,485.1H52.1C31.6,485.1,15,468.4,15,448c0-2.7,2.2-4.9,4.9-4.9h153.6
				c3.5,16.3,17.9,28.5,35.2,28.5h94.4c17.3,0,31.8-12.2,35.2-28.5h153.6c2.7,0,4.9,2.2,4.9,4.9C497,468.4,480.4,485.1,459.9,485.1
				L459.9,485.1z"/>
		</g>
	</g>
</g>
</svg>
